<svg width="115" height="17" viewBox="0 0 115 17" fill="none" xmlns="http://www.w3.org/2000/svg">
<path d="M4.032 4.388C4.032 4.952 4.17 5.396 4.446 5.72C4.734 6.032 5.172 6.188 5.76 6.188H9.72C10.308 6.188 10.74 6.032 11.016 5.72C11.304 5.396 11.448 4.952 11.448 4.388V4.226C11.448 3.674 11.34 3.26 11.124 2.984C10.908 2.708 10.548 2.528 10.044 2.444C9.24 2.276 8.472 2.192 7.74 2.192C7.008 2.192 6.24 2.276 5.436 2.444C4.932 2.528 4.572 2.708 4.356 2.984C4.14 3.26 4.032 3.674 4.032 4.226V4.388ZM1.872 4.226C1.872 3.23 2.136 2.408 2.664 1.76C3.192 1.1 3.972 0.679999 5.004 0.499999C5.904 0.319999 6.816 0.229999 7.74 0.229999C8.664 0.229999 9.576 0.319999 10.476 0.499999C11.508 0.679999 12.288 1.1 12.816 1.76C13.344 2.408 13.608 3.23 13.608 4.226V4.388C13.608 5.072 13.458 5.702 13.158 6.278C12.858 6.854 12.414 7.316 11.826 7.664C11.25 8 10.548 8.168 9.72 8.168H5.76C4.932 8.168 4.224 8 3.636 7.664C3.06 7.316 2.622 6.854 2.322 6.278C2.022 5.702 1.872 5.072 1.872 4.388V4.226ZM15.048 11.498H8.82V16.556H6.66V11.498H0.432V9.518H15.048V11.498ZM29.2023 0.319999V16.016H27.0423V0.319999H29.2023ZM16.2963 6.35H21.5883C22.0803 6.35 22.4403 6.212 22.6683 5.936C22.8963 5.66 23.0103 5.312 23.0103 4.892C23.0103 4.58 22.9563 4.28 22.8483 3.992C22.7403 3.692 22.6083 3.464 22.4523 3.308C22.0203 2.876 21.4443 2.66 20.7243 2.66C19.8483 2.66 18.7803 2.996 17.5203 3.668L16.4763 1.94C17.9883 1.112 19.4283 0.698 20.7963 0.698C22.1283 0.698 23.1963 1.1 24.0003 1.904C24.3603 2.276 24.6423 2.726 24.8463 3.254C25.0503 3.782 25.1523 4.322 25.1523 4.874C25.1523 5.486 25.0203 6.056 24.7563 6.584C24.5043 7.112 24.1083 7.538 23.5683 7.862C23.0403 8.174 22.3803 8.33 21.5883 8.33H19.4283C19.2003 8.726 19.0203 9.098 18.8883 9.446C18.7563 9.782 18.6903 10.112 18.6903 10.436C18.6903 10.904 18.8523 11.294 19.1763 11.606C19.5363 11.954 20.1003 12.128 20.8683 12.128C21.5403 12.128 22.3143 11.996 23.1903 11.732C24.0663 11.468 24.9183 11.12 25.7463 10.688V12.92C24.9543 13.268 24.1263 13.55 23.2623 13.766C22.4103 13.982 21.6003 14.09 20.8323 14.09C19.4523 14.09 18.3963 13.73 17.6643 13.01C16.9083 12.266 16.5303 11.408 16.5303 10.436C16.5303 9.788 16.6983 9.086 17.0343 8.33H16.2963V6.35ZM43.9595 0.319999V7.088H45.6875V9.248H43.9595V16.016H41.7995V0.319999H43.9595ZM31.6655 0.788H37.2635C37.9835 0.788 38.5895 0.997999 39.0815 1.418C39.5735 1.838 39.8435 2.438 39.8915 3.218C39.9275 5.282 39.6815 7.034 39.1535 8.474C38.6375 9.914 37.7495 11.102 36.4895 12.038C35.2295 12.974 33.5255 13.652 31.3775 14.072L30.9815 12.128C32.7215 11.792 34.0835 11.264 35.0675 10.544C36.0635 9.824 36.7595 8.882 37.1555 7.718C37.5635 6.554 37.7555 5.078 37.7315 3.29C37.7195 3.074 37.6775 2.936 37.6055 2.876C37.5455 2.804 37.4315 2.768 37.2635 2.768H31.6655V0.788ZM63.4994 15.962C62.5874 16.19 61.6394 16.364 60.6554 16.484C59.6834 16.616 58.7414 16.682 57.8294 16.682C56.7494 16.682 55.8014 16.58 54.9854 16.376C54.1814 16.184 53.5874 15.878 53.2034 15.458C52.8554 15.074 52.6094 14.636 52.4654 14.144C52.3214 13.652 52.2494 13.094 52.2494 12.47C52.2494 11.978 52.2914 11.342 52.3754 10.562L54.5354 10.778C54.4634 11.462 54.4274 12.038 54.4274 12.506C54.4274 13.322 54.5474 13.85 54.7874 14.09C54.9674 14.282 55.3214 14.426 55.8494 14.522C56.3774 14.63 57.0194 14.684 57.7754 14.684C58.6514 14.684 59.5934 14.618 60.6014 14.486C61.6214 14.354 62.5874 14.162 63.4994 13.91V15.962ZM63.0494 0.319999V4.028H64.7774V6.188H63.0494V11.516H60.8894V0.319999H63.0494ZM50.5754 0.805999H58.7114V9.554H53.7614C52.7894 9.554 52.0334 9.278 51.4934 8.726C50.9654 8.174 50.7254 7.418 50.7734 6.458C50.9054 5.054 51.0854 3.83 51.3134 2.786H50.5754V0.805999ZM52.9334 6.602C52.9214 6.986 52.9694 7.244 53.0774 7.376C53.1854 7.508 53.4134 7.574 53.7614 7.574H56.5514V2.786H53.5274C53.2754 3.794 53.0774 5.066 52.9334 6.602ZM78.7157 15.962C77.8037 16.19 76.8377 16.364 75.8177 16.484C74.8097 16.616 73.8317 16.682 72.8837 16.682C71.7437 16.682 70.7477 16.58 69.8957 16.376C69.0557 16.184 68.4437 15.878 68.0597 15.458C67.7117 15.086 67.4657 14.66 67.3217 14.18C67.1777 13.712 67.1057 13.178 67.1057 12.578C67.1057 12.11 67.1477 11.498 67.2317 10.742L69.3917 10.958C69.3197 11.642 69.2837 12.2 69.2837 12.632C69.2837 13.352 69.4037 13.838 69.6437 14.09C69.8237 14.282 70.1897 14.426 70.7417 14.522C71.3057 14.63 71.9897 14.684 72.7937 14.684C73.7297 14.684 74.7197 14.618 75.7637 14.486C76.8197 14.354 77.8037 14.162 78.7157 13.91V15.962ZM78.7157 5.846C77.9477 6.062 77.0537 6.236 76.0337 6.368C75.0137 6.5 74.0057 6.566 73.0097 6.566C71.9057 6.566 70.9277 6.476 70.0757 6.296C69.2237 6.104 68.6117 5.81 68.2397 5.414C67.9397 5.09 67.7237 4.76 67.5917 4.424C67.4597 4.088 67.3937 3.71 67.3937 3.29C67.3937 3.038 67.4237 2.714 67.4837 2.318H66.7637V0.337999H78.7157V2.318H69.6797C69.5957 2.666 69.5537 2.978 69.5537 3.254C69.5537 3.578 69.6437 3.842 69.8237 4.046C69.9917 4.226 70.3397 4.364 70.8677 4.46C71.4077 4.544 72.0557 4.586 72.8117 4.586C73.8317 4.586 74.8877 4.514 75.9797 4.37C77.0837 4.214 77.9957 4.01 78.7157 3.758V5.846ZM80.2277 9.518H65.6117V7.538H80.2277V9.518ZM88.3015 4.388C88.3015 4.952 88.4395 5.396 88.7155 5.72C89.0035 6.032 89.4415 6.188 90.0295 6.188H93.9895C94.5775 6.188 95.0095 6.032 95.2855 5.72C95.5735 5.396 95.7175 4.952 95.7175 4.388V4.226C95.7175 3.674 95.6095 3.26 95.3935 2.984C95.1775 2.708 94.8175 2.528 94.3135 2.444C93.5095 2.276 92.7415 2.192 92.0095 2.192C91.2775 2.192 90.5095 2.276 89.7055 2.444C89.2015 2.528 88.8415 2.708 88.6255 2.984C88.4095 3.26 88.3015 3.674 88.3015 4.226V4.388ZM86.1415 4.226C86.1415 3.23 86.4055 2.408 86.9335 1.76C87.4615 1.1 88.2415 0.679999 89.2735 0.499999C90.1735 0.319999 91.0855 0.229999 92.0095 0.229999C92.9335 0.229999 93.8455 0.319999 94.7455 0.499999C95.7775 0.679999 96.5575 1.1 97.0855 1.76C97.6135 2.408 97.8775 3.23 97.8775 4.226V4.388C97.8775 5.072 97.7275 5.702 97.4275 6.278C97.1275 6.854 96.6835 7.316 96.0955 7.664C95.5195 8 94.8175 8.168 93.9895 8.168H90.0295C89.2015 8.168 88.4935 8 87.9055 7.664C87.3295 7.316 86.8915 6.854 86.5915 6.278C86.2915 5.702 86.1415 5.072 86.1415 4.388V4.226ZM99.3175 11.498H93.0895V16.556H90.9295V11.498H84.7015V9.518H99.3175V11.498ZM101.754 0.301999H113.328C112.836 1.694 112.254 2.936 111.582 4.028C112.122 4.34 112.518 4.724 112.77 5.18C113.022 5.636 113.148 6.128 113.148 6.656C113.148 7.352 112.962 8.024 112.59 8.672H110.124C110.652 7.94 110.916 7.286 110.916 6.71C110.916 6.254 110.742 5.894 110.394 5.63C108.978 7.202 107.25 8.114 105.21 8.366C104.958 8.402 104.712 8.42 104.472 8.42C103.848 8.42 103.296 8.318 102.816 8.114C102.348 7.91 101.982 7.64 101.718 7.304C101.466 6.956 101.34 6.59 101.34 6.206C101.34 5.786 101.496 5.384 101.808 5C102.12 4.604 102.6 4.262 103.248 3.974C103.896 3.674 104.706 3.47 105.678 3.362C106.398 3.278 107.1 3.236 107.784 3.236C108.48 3.236 109.074 3.278 109.566 3.362C109.758 3.062 109.998 2.642 110.286 2.102H101.754V0.301999ZM114.804 11.678H108.576V16.556H106.416V11.678H100.188V9.698H114.804V11.678ZM104.958 6.566C106.17 6.422 107.25 5.912 108.198 5.036C107.538 5.012 106.782 5.054 105.93 5.162C105.162 5.246 104.568 5.39 104.148 5.594C103.728 5.786 103.518 5.984 103.518 6.188C103.518 6.308 103.596 6.41 103.752 6.494C103.92 6.566 104.154 6.602 104.454 6.602L104.958 6.566Z" fill="white"/>
</svg>
