<svg width="117" height="18" viewBox="0 0 117 18" fill="none" xmlns="http://www.w3.org/2000/svg">
<path d="M13.464 10.626C12.864 10.83 12.156 10.998 11.34 11.13C10.524 11.262 9.69 11.34 8.838 11.364V13.938H15.048V15.918H0.432V13.938H6.678V11.31C4.962 11.13 3.816 10.71 3.24 10.05C2.724 9.486 2.466 8.838 2.466 8.106C2.466 7.83 2.49 7.572 2.538 7.332H1.872V5.352H12.924V7.332H4.752C4.668 7.62 4.626 7.872 4.626 8.088C4.626 8.364 4.704 8.586 4.86 8.754C5.04 8.958 5.43 9.114 6.03 9.222C6.642 9.33 7.362 9.384 8.19 9.384C9.21 9.384 10.206 9.306 11.178 9.15C12.162 8.982 12.924 8.748 13.464 8.448V10.626ZM1.872 1.662H13.464V3.642H1.872V1.662ZM29.2023 1.32V17.016H27.0423V1.32H29.2023ZM16.2963 7.35H21.5883C22.0803 7.35 22.4403 7.212 22.6683 6.936C22.8963 6.66 23.0103 6.312 23.0103 5.892C23.0103 5.58 22.9563 5.28 22.8483 4.992C22.7403 4.692 22.6083 4.464 22.4523 4.308C22.0203 3.876 21.4443 3.66 20.7243 3.66C19.8483 3.66 18.7803 3.996 17.5203 4.668L16.4763 2.94C17.9883 2.112 19.4283 1.698 20.7963 1.698C22.1283 1.698 23.1963 2.1 24.0003 2.904C24.3603 3.276 24.6423 3.726 24.8463 4.254C25.0503 4.782 25.1523 5.322 25.1523 5.874C25.1523 6.486 25.0203 7.056 24.7563 7.584C24.5043 8.112 24.1083 8.538 23.5683 8.862C23.0403 9.174 22.3803 9.33 21.5883 9.33H19.4283C19.2003 9.726 19.0203 10.098 18.8883 10.446C18.7563 10.782 18.6903 11.112 18.6903 11.436C18.6903 11.904 18.8523 12.294 19.1763 12.606C19.5363 12.954 20.1003 13.128 20.8683 13.128C21.5403 13.128 22.3143 12.996 23.1903 12.732C24.0663 12.468 24.9183 12.12 25.7463 11.688V13.92C24.9543 14.268 24.1263 14.55 23.2623 14.766C22.4103 14.982 21.6003 15.09 20.8323 15.09C19.4523 15.09 18.3963 14.73 17.6643 14.01C16.9083 13.266 16.5303 12.408 16.5303 11.436C16.5303 10.788 16.6983 10.086 17.0343 9.33H16.2963V7.35ZM33.5555 6.306C33.5555 6.906 33.7355 7.404 34.0955 7.8C34.4555 8.184 34.9115 8.376 35.4635 8.376H35.6435C36.1955 8.376 36.6515 8.184 37.0115 7.8C37.3715 7.404 37.5515 6.906 37.5515 6.306V5.838C37.5515 5.226 37.3715 4.728 37.0115 4.344C36.6635 3.96 36.2075 3.768 35.6435 3.768H35.4635C34.8995 3.768 34.4375 3.96 34.0775 4.344C33.7295 4.728 33.5555 5.226 33.5555 5.838V6.306ZM31.3955 5.838C31.3955 5.094 31.5695 4.416 31.9175 3.804C32.2655 3.18 32.7455 2.688 33.3575 2.328C33.9815 1.968 34.6835 1.788 35.4635 1.788H35.6435C36.4235 1.788 37.1195 1.968 37.7315 2.328C38.3555 2.688 38.8415 3.18 39.1895 3.804C39.5375 4.416 39.7115 5.094 39.7115 5.838V6.306C39.7115 7.266 39.4235 8.118 38.8475 8.862C38.2715 9.594 37.5155 10.056 36.5795 10.248V13.02C38.5475 12.804 40.2875 12.318 41.7995 11.562V1.32H43.9595V8.088H45.6875V10.248H43.9595V17.016H41.7995V13.758C39.5795 14.67 36.9815 15.126 34.0055 15.126C33.1055 15.126 32.0375 15.072 30.8015 14.964L30.9815 12.984C32.0975 13.092 33.2435 13.146 34.4195 13.146V10.23C33.5195 10.002 32.7875 9.528 32.2235 8.808C31.6715 8.076 31.3955 7.242 31.3955 6.306V5.838ZM64.8494 1.32V17.016H62.6894V9.528H61.6094V16.116H59.4494V1.5H61.6094V7.368H62.6894V1.32H64.8494ZM58.9274 13.74C57.4634 14.472 56.2394 14.838 55.2554 14.838C53.5154 14.838 52.3034 13.806 51.6194 11.742C51.3554 10.95 51.2234 10.008 51.2234 8.916C51.2234 7.488 51.4574 5.772 51.9254 3.768H51.0974V1.788H58.1714V3.768H54.1574C53.6414 5.856 53.3834 7.596 53.3834 8.988C53.3834 9.852 53.4794 10.554 53.6714 11.094C53.8874 11.73 54.1334 12.186 54.4094 12.462C54.6974 12.738 55.0454 12.876 55.4534 12.876C55.8374 12.876 56.2814 12.768 56.7854 12.552C57.3014 12.324 58.0154 11.958 58.9274 11.454V13.74ZM71.7864 0.707999C71.7864 0.983999 71.8044 1.224 71.8404 1.428C71.8764 1.62 71.9604 1.83 72.0924 2.058H75.6564V4.038H66.2784V2.058H69.7344C69.6624 1.698 69.6264 1.248 69.6264 0.707999H71.7864ZM70.9764 9.51C71.6604 9.51 72.1404 9.402 72.4164 9.186C72.7044 8.97 72.8484 8.646 72.8484 8.214C72.8484 7.782 72.7044 7.458 72.4164 7.242C72.1404 7.026 71.6604 6.918 70.9764 6.918C70.2924 6.918 69.8064 7.026 69.5184 7.242C69.2424 7.458 69.1044 7.782 69.1044 8.214C69.1044 8.646 69.2424 8.97 69.5184 9.186C69.8064 9.402 70.2924 9.51 70.9764 9.51ZM79.2564 1.32V8.088H80.9844V10.248H79.2564V17.016H77.0964V13.758C74.8764 14.67 72.2784 15.126 69.3024 15.126C68.4024 15.126 67.3344 15.072 66.0984 14.964L66.2784 12.984C67.4424 13.092 68.4324 13.146 69.2484 13.146L69.8964 13.128V11.4C68.9124 11.232 68.1744 10.86 67.6824 10.284C67.1904 9.708 66.9444 9.018 66.9444 8.214C66.9444 7.614 67.0884 7.068 67.3764 6.576C67.6644 6.072 68.1084 5.676 68.7084 5.388C69.3204 5.088 70.0764 4.938 70.9764 4.938C71.8764 4.938 72.6264 5.088 73.2264 5.388C73.8384 5.676 74.2884 6.072 74.5764 6.576C74.8644 7.068 75.0084 7.614 75.0084 8.214C75.0084 9.018 74.7624 9.708 74.2704 10.284C73.7784 10.86 73.0404 11.232 72.0564 11.4V13.002C73.9524 12.762 75.6324 12.282 77.0964 11.562V1.32H79.2564ZM100.146 1.32V17.016H97.9862V9.528H96.9062V16.116H94.7462V1.5H96.9062V7.368H97.9862V1.32H100.146ZM94.2782 13.74C92.6942 14.568 91.3562 14.982 90.2642 14.982C88.5242 14.982 87.4142 13.932 86.9342 11.832C86.6702 10.704 86.5382 9.33 86.5382 7.71C86.5382 6.198 86.6582 4.224 86.8982 1.788H89.0582C88.8062 4.236 88.6802 6.222 88.6802 7.746C88.6802 9.21 88.7942 10.416 89.0222 11.364C89.1662 11.952 89.3642 12.378 89.6162 12.642C89.8682 12.894 90.1802 13.02 90.5522 13.02C90.9242 13.02 91.3562 12.912 91.8482 12.696C92.3402 12.48 93.0302 12.132 93.9182 11.652L94.2782 11.454V13.74ZM105.229 14.442C105.229 14.73 105.367 14.976 105.643 15.18C105.931 15.384 106.363 15.528 106.939 15.612C107.731 15.72 108.397 15.774 108.937 15.774C109.477 15.774 110.143 15.72 110.935 15.612C111.511 15.528 111.937 15.384 112.213 15.18C112.501 14.976 112.645 14.73 112.645 14.442V14.316C112.645 13.992 112.501 13.722 112.213 13.506C111.937 13.278 111.565 13.164 111.097 13.164H106.777C106.309 13.164 105.931 13.278 105.643 13.506C105.367 13.722 105.229 13.992 105.229 14.316V14.442ZM103.069 14.316C103.069 13.752 103.225 13.23 103.537 12.75C103.861 12.27 104.305 11.892 104.869 11.616C105.433 11.328 106.069 11.184 106.777 11.184H111.097C111.805 11.184 112.441 11.328 113.005 11.616C113.569 11.892 114.007 12.27 114.319 12.75C114.643 13.23 114.805 13.752 114.805 14.316V14.442C114.805 15.234 114.493 15.912 113.869 16.476C113.245 17.04 112.375 17.4 111.259 17.556C110.419 17.676 109.645 17.736 108.937 17.736C108.229 17.736 107.455 17.676 106.615 17.556C105.499 17.4 104.629 17.04 104.005 16.476C103.381 15.912 103.069 15.234 103.069 14.442V14.316ZM116.245 10.338H101.629V8.358H105.787V7.278C104.923 7.17 104.251 6.846 103.771 6.306C103.303 5.754 103.069 5.118 103.069 4.398V4.29C103.069 3.498 103.345 2.85 103.897 2.346C104.449 1.83 105.241 1.506 106.273 1.374C107.113 1.254 108.001 1.194 108.937 1.194C109.885 1.194 110.773 1.254 111.601 1.374C112.633 1.506 113.425 1.83 113.977 2.346C114.529 2.85 114.805 3.498 114.805 4.29V4.398C114.805 5.118 114.565 5.754 114.085 6.306C113.617 6.846 112.951 7.17 112.087 7.278V8.358H116.245V10.338ZM105.229 4.398C105.229 4.698 105.319 4.932 105.499 5.1C105.691 5.256 105.997 5.334 106.417 5.334H111.457C111.877 5.334 112.177 5.256 112.357 5.1C112.549 4.932 112.645 4.698 112.645 4.398V4.29C112.645 4.014 112.549 3.804 112.357 3.66C112.165 3.516 111.817 3.414 111.313 3.354C110.557 3.234 109.765 3.174 108.937 3.174C108.121 3.174 107.329 3.234 106.561 3.354C106.057 3.414 105.709 3.516 105.517 3.66C105.325 3.804 105.229 4.014 105.229 4.29V4.398ZM110.107 8.358V7.314H107.767V8.358H110.107Z" fill="white"/>
</svg>
