<svg width="98" height="17" viewBox="0 0 98 17" fill="none" xmlns="http://www.w3.org/2000/svg">
<path d="M13.896 16.214C13.236 16.394 12.462 16.532 11.574 16.628C10.698 16.736 9.822 16.79 8.946 16.79C7.83 16.79 6.834 16.7 5.958 16.52C5.094 16.352 4.476 16.094 4.104 15.746C3.54 15.266 3.258 14.714 3.258 14.09C3.258 14.006 3.27 13.868 3.294 13.676H2.664V11.696H12.816V13.676H5.472C5.436 13.796 5.418 13.898 5.418 13.982C5.418 14.114 5.466 14.216 5.562 14.288C5.742 14.444 6.126 14.564 6.714 14.648C7.314 14.732 8.016 14.774 8.82 14.774C9.792 14.774 10.74 14.714 11.664 14.594C12.6 14.486 13.344 14.324 13.896 14.108V16.214ZM2.664 8.888H13.356V10.868H2.664V8.888ZM13.356 0.319999V4.028H15.084V6.188H13.356V8.456H11.196V0.319999H13.356ZM1.062 0.788H6.66C7.392 0.788 8.004 1.004 8.496 1.436C9 1.868 9.252 2.486 9.252 3.29C9.12 4.754 8.382 5.9 7.038 6.728C5.694 7.556 3.576 8.114 0.684 8.402L0.468 6.422C2.064 6.266 3.336 6.05 4.284 5.774C5.232 5.486 5.916 5.138 6.336 4.73C6.768 4.31 7.02 3.806 7.092 3.218C7.08 3.038 7.044 2.918 6.984 2.858C6.936 2.798 6.828 2.768 6.66 2.768H1.062V0.788ZM29.2023 0.319999V16.016H27.0423V0.319999H29.2023ZM18.7983 8.996C18.7983 10.124 18.9543 10.952 19.2663 11.48C19.5783 11.996 20.0583 12.254 20.7063 12.254H20.8863C21.5343 12.254 22.0143 11.996 22.3263 11.48C22.6383 10.952 22.7943 10.124 22.7943 8.996V6.026C22.7943 4.898 22.6383 4.076 22.3263 3.56C22.0143 3.032 21.5343 2.768 20.8863 2.768H20.7063C20.0583 2.768 19.5783 3.032 19.2663 3.56C18.9543 4.076 18.7983 4.898 18.7983 6.026V8.996ZM16.6383 6.026C16.6383 4.43 16.9683 3.158 17.6283 2.21C18.3003 1.262 19.3263 0.788 20.7063 0.788H20.8863C22.2663 0.788 23.2863 1.262 23.9463 2.21C24.6183 3.158 24.9543 4.43 24.9543 6.026V8.996C24.9543 10.592 24.6183 11.864 23.9463 12.812C23.2863 13.76 22.2663 14.234 20.8863 14.234H20.7063C19.3263 14.234 18.3003 13.76 17.6283 12.812C16.9683 11.864 16.6383 10.592 16.6383 8.996V6.026ZM36.817 11.606H45.079C45.295 11.606 45.457 11.576 45.565 11.516C45.673 11.456 45.727 11.384 45.727 11.3C45.727 11.144 45.613 11.03 45.385 10.958C45.073 10.85 44.647 10.766 44.107 10.706C43.579 10.646 42.985 10.616 42.325 10.616C40.705 10.616 39.121 10.796 37.573 11.156L37.069 9.212C38.689 8.84 40.405 8.654 42.217 8.654C43.033 8.654 43.777 8.696 44.449 8.78C45.121 8.852 45.661 8.954 46.069 9.086C46.669 9.29 47.119 9.59 47.419 9.986C47.731 10.382 47.887 10.814 47.887 11.282C47.887 11.678 47.773 12.056 47.545 12.416C47.329 12.764 47.005 13.046 46.573 13.262C46.153 13.478 45.655 13.586 45.079 13.586H39.787C39.679 13.694 39.625 13.808 39.625 13.928C39.625 14.132 39.775 14.3 40.075 14.432C40.495 14.624 41.173 14.72 42.109 14.72C43.081 14.72 44.137 14.618 45.277 14.414C46.417 14.21 47.425 13.934 48.301 13.586L49.093 15.422C48.145 15.806 47.035 16.112 45.763 16.34C44.503 16.58 43.303 16.7 42.163 16.7C40.867 16.7 39.871 16.544 39.175 16.232C38.599 15.968 38.167 15.632 37.879 15.224C37.603 14.828 37.465 14.408 37.465 13.964C37.465 13.88 37.477 13.754 37.501 13.586H36.817V11.606ZM47.923 0.319999V8.456H45.763V7.178H43.279V5.018H45.763V3.758H43.279V1.598H45.763V0.319999H47.923ZM37.141 5.468C37.141 5.792 37.279 6.038 37.555 6.206C37.843 6.362 38.215 6.44 38.671 6.44C38.887 6.44 39.109 6.422 39.337 6.386C39.805 6.326 40.135 6.176 40.327 5.936C40.531 5.696 40.633 5.288 40.633 4.712V4.478C39.493 4.478 38.623 4.55 38.023 4.694C37.435 4.838 37.141 5.096 37.141 5.468ZM34.981 0.788H37.141V2.912C37.957 2.66 39.043 2.522 40.399 2.498C40.279 1.982 40.075 1.412 39.787 0.788H42.109C42.565 1.976 42.793 3.284 42.793 4.712C42.793 5.792 42.511 6.638 41.947 7.25C41.395 7.862 40.609 8.234 39.589 8.366C39.337 8.402 39.085 8.42 38.833 8.42C37.777 8.42 36.871 8.174 36.115 7.682C35.359 7.19 34.981 6.452 34.981 5.468V0.788ZM66.2837 0.319999V4.028H68.0117V6.188H66.2837V9.716H64.1237V0.319999H66.2837ZM63.0437 8.33C62.1077 8.582 61.2497 8.78 60.4697 8.924C59.6897 9.068 58.9457 9.14 58.2377 9.14C56.2697 9.14 54.9737 8.474 54.3497 7.142C53.9657 6.374 53.7737 5.45 53.7737 4.37C53.7737 3.446 53.9237 2.252 54.2237 0.788H56.4197C56.1077 2.264 55.9517 3.47 55.9517 4.406C55.9517 5.198 56.0657 5.822 56.2937 6.278C56.5817 6.878 57.2477 7.178 58.2917 7.178C58.8797 7.178 59.5517 7.1 60.3077 6.944C61.0757 6.788 61.9877 6.566 63.0437 6.278V8.33ZM55.0517 10.256H66.2837V16.7H58.2017C57.3377 16.7 56.6477 16.478 56.1317 16.034C55.6277 15.602 55.3757 14.984 55.3757 14.18C55.3757 13.964 55.3937 13.742 55.4297 13.514C55.5617 13.046 55.7117 12.62 55.8797 12.236H55.0517V10.256ZM57.5177 14.27C57.5177 14.45 57.5657 14.57 57.6617 14.63C57.7697 14.69 57.9497 14.72 58.2017 14.72H64.1237V12.236H58.2197C57.9197 12.824 57.6977 13.376 57.5537 13.892L57.5177 14.27ZM82.1301 0.319999V16.016H79.9701V0.319999H82.1301ZM69.8361 0.788H75.4341C76.1541 0.788 76.7601 0.997999 77.2521 1.418C77.7441 1.838 78.0141 2.438 78.0621 3.218C78.0981 5.282 77.8521 7.034 77.3241 8.474C76.8081 9.914 75.9201 11.102 74.6601 12.038C73.4001 12.974 71.6961 13.652 69.5481 14.072L69.1521 12.128C70.8921 11.792 72.2541 11.264 73.2381 10.544C74.2341 9.824 74.9301 8.882 75.3261 7.718C75.7341 6.554 75.9261 5.078 75.9021 3.29C75.8901 3.074 75.8481 2.936 75.7761 2.876C75.7161 2.804 75.6021 2.768 75.4341 2.768H69.8361V0.788ZM97.2473 0.319999V16.016H95.0873V0.319999H97.2473ZM84.9533 0.788H90.5513C91.2713 0.788 91.8773 0.997999 92.3693 1.418C92.8613 1.838 93.1313 2.438 93.1793 3.218C93.2153 5.282 92.9693 7.034 92.4413 8.474C91.9253 9.914 91.0373 11.102 89.7773 12.038C88.5173 12.974 86.8133 13.652 84.6653 14.072L84.2693 12.128C86.0093 11.792 87.3713 11.264 88.3553 10.544C89.3513 9.824 90.0473 8.882 90.4433 7.718C90.8513 6.554 91.0433 5.078 91.0193 3.29C91.0073 3.074 90.9653 2.936 90.8933 2.876C90.8333 2.804 90.7193 2.768 90.5513 2.768H84.9533V0.788Z" fill="white"/>
</svg>
