<svg width="68" height="16" viewBox="0 0 68 16" fill="none" xmlns="http://www.w3.org/2000/svg">
<path d="M7.05999 0.720087C7.16666 0.653387 7.23999 0.620088 7.27999 0.620088C7.33332 0.620088 7.45332 0.666788 7.63999 0.760088C7.85332 0.866788 7.97999 0.920084 8.01999 0.920084C8.15332 0.920084 8.27332 1.02009 8.37999 1.22009C8.49999 1.42009 8.55999 1.64679 8.55999 1.90009C8.55999 2.10009 8.58666 2.21338 8.63999 2.24008C8.69333 2.26678 8.83999 2.22008 9.07999 2.10008C9.30666 1.99338 9.55999 1.92679 9.83999 1.90009C10.1467 1.87339 10.36 1.81339 10.48 1.72009C10.6 1.61339 10.66 1.44008 10.66 1.20008C10.66 0.960083 10.7533 0.793383 10.94 0.700083C11.14 0.606783 11.3267 0.633384 11.5 0.780084C11.6067 0.873384 11.6933 0.920084 11.76 0.920084C11.8533 0.920084 11.9333 0.966783 12 1.06008C12.08 1.14008 12.12 1.22679 12.12 1.32009C12.12 1.42679 12.1333 1.56678 12.16 1.74008C12.2 1.88678 12.1933 2.06009 12.14 2.26009C12.0867 2.47339 12.06 2.79339 12.06 3.22009C12.06 3.64679 12.04 3.92009 12 4.04009C11.96 4.16009 11.94 4.51338 11.94 5.10008C11.9533 5.68678 11.9267 6.09339 11.86 6.32009C11.78 6.53339 11.74 6.68009 11.74 6.76009C11.74 7.01339 11.6267 7.18009 11.4 7.26009C11.28 7.30009 11.1667 7.36009 11.06 7.44009C10.9 7.54679 10.7533 7.56009 10.62 7.48009C10.5 7.40009 10.44 7.25339 10.44 7.04009C10.44 6.85339 10.4 6.68008 10.32 6.52008C10.2267 6.34678 10.18 6.19338 10.18 6.06008C10.18 5.84678 10.1267 5.72678 10.02 5.70008C9.91332 5.66008 9.59332 5.67338 9.05999 5.74008C8.91332 5.75338 8.82666 5.75338 8.79999 5.74008C8.77332 5.72678 8.73333 5.66678 8.67999 5.56008C8.51999 5.24008 8.33999 5.09339 8.13999 5.12009C7.95332 5.14679 7.79332 5.33339 7.65999 5.68009C7.56666 5.93339 7.41999 6.14679 7.21999 6.32009C7.01999 6.48009 6.81999 6.56008 6.61999 6.56008C6.39332 6.54678 6.21999 6.56679 6.09999 6.62009C5.81999 6.74009 5.41999 6.84008 4.89999 6.92008C4.37999 7.00008 4.06666 7.00679 3.95999 6.94009C3.89332 6.90009 3.63999 6.88008 3.19999 6.88008C2.82666 6.88008 2.54666 6.86009 2.35999 6.82009C2.17332 6.76679 1.99332 6.67339 1.81999 6.54009C1.68666 6.44679 1.53332 6.33338 1.35999 6.20008C0.879994 5.85338 0.633327 5.36009 0.619994 4.72009C0.619994 4.44009 0.593328 4.20678 0.539995 4.02008C0.499995 3.86008 0.499995 3.70009 0.539995 3.54009C0.633328 3.24679 0.646661 2.82678 0.579994 2.28008C0.539994 2.02678 0.586662 1.74008 0.719995 1.42008C0.853328 1.10008 0.993327 0.920083 1.13999 0.880083C1.37999 0.826783 1.63999 0.893388 1.91999 1.08009C2.19999 1.25339 2.32666 1.43339 2.29999 1.62009C2.24666 1.91339 2.29332 2.15338 2.43999 2.34008C2.47999 2.39338 2.51999 2.42008 2.55999 2.42008C2.61332 2.42008 2.74666 2.40009 2.95999 2.36009C3.69332 2.21339 4.51332 2.14679 5.41999 2.16009C5.89999 2.16009 6.17999 2.15338 6.25999 2.14008C6.35332 2.12679 6.43332 2.08009 6.49999 2.00009C6.71332 1.72009 6.80666 1.47339 6.77999 1.26009C6.73999 1.04679 6.83332 0.866787 7.05999 0.720087ZM8.89999 3.34008C8.75332 3.24678 8.64666 3.22678 8.57999 3.28008C8.51332 3.32008 8.46666 3.45339 8.43999 3.68009C8.41332 3.81339 8.36666 4.00679 8.29999 4.26009C8.21999 4.48679 8.20666 4.63338 8.25999 4.70008C8.31332 4.75338 8.47332 4.78008 8.73999 4.78008C8.91332 4.78008 9.03332 4.76678 9.09999 4.74008C9.16667 4.71338 9.26666 4.66009 9.39999 4.58009C9.59999 4.44679 9.75999 4.35339 9.87999 4.30009C9.99999 4.26009 10.1267 4.14009 10.26 3.94009C10.3933 3.74009 10.4467 3.59339 10.42 3.50009C10.38 3.40679 10.2533 3.35338 10.04 3.34008C9.83999 3.32678 9.60666 3.35338 9.33999 3.42008C9.21999 3.44678 9.13999 3.46008 9.09999 3.46008C9.05999 3.44678 8.99332 3.40678 8.89999 3.34008ZM6.53999 3.74008C6.45999 3.70008 6.23999 3.67339 5.87999 3.66009C5.51999 3.64679 5.28666 3.66008 5.17999 3.70008C5.04666 3.75338 4.91332 3.78008 4.77999 3.78008C4.59332 3.78008 4.33332 3.82009 3.99999 3.90009C3.63999 3.96679 3.37999 3.98009 3.21999 3.94009C2.77999 3.83339 2.53332 3.85339 2.47999 4.00009C2.45332 4.06679 2.45999 4.22679 2.49999 4.48009C2.53999 4.73339 2.57999 4.92009 2.61999 5.04009C2.69999 5.24009 2.97999 5.38679 3.45999 5.48009C3.93999 5.56009 4.37999 5.55338 4.77999 5.46008C5.36666 5.31339 5.79999 5.24008 6.07999 5.24008C6.41332 5.24008 6.57999 5.09339 6.57999 4.80009C6.57999 4.66679 6.60666 4.53339 6.65999 4.40009C6.68666 4.26679 6.68666 4.13339 6.65999 4.00009C6.64666 3.85339 6.60666 3.76678 6.53999 3.74008ZM7.65999 8.06008C7.77999 8.03338 7.97999 8.02679 8.25999 8.04009C8.81999 8.06679 9.23332 8.06008 9.49999 8.02008C9.76666 7.98008 9.99999 8.04008 10.2 8.20008C10.3467 8.30678 10.4733 8.36009 10.58 8.36009C10.7933 8.34679 10.94 8.46679 11.02 8.72009C11.0467 8.78679 11.1067 8.95339 11.2 9.22009C11.2933 9.43339 11.3267 9.62679 11.3 9.80009C11.2733 9.96009 11.2667 10.1468 11.28 10.3601C11.28 10.6801 11.1467 10.9801 10.88 11.2601C10.72 11.4201 10.4733 11.5868 10.14 11.7601C9.80666 11.9334 9.56666 12.0201 9.41999 12.0201C9.29999 12.0201 9.09999 12.0468 8.81999 12.1001C8.53999 12.1401 8.31999 12.1601 8.15999 12.1601C7.97332 12.1601 7.70666 12.2068 7.35999 12.3001C6.99999 12.3934 6.61332 12.4401 6.19999 12.4401C5.79999 12.4268 5.55332 12.4468 5.45999 12.5001C5.37999 12.5401 5.33999 12.6601 5.33999 12.8601C5.33999 13.0468 5.37332 13.1801 5.43999 13.2601C5.50666 13.3268 5.65999 13.4134 5.89999 13.5201C6.16666 13.6268 6.43999 13.6734 6.71999 13.6601C6.99999 13.6601 7.17999 13.6801 7.25999 13.7201C7.44666 13.8268 7.69999 13.8134 8.01999 13.6801C8.19332 13.6134 8.44666 13.5801 8.77999 13.5801C9.11332 13.5801 9.40666 13.5401 9.65999 13.4601C9.92666 13.3934 10.12 13.3734 10.24 13.4001C10.3733 13.4268 10.52 13.4401 10.68 13.4401C10.8533 13.4401 10.9533 13.4601 10.98 13.5001C11.02 13.5268 11.0867 13.6668 11.18 13.9201C11.3 14.2534 11.34 14.4934 11.3 14.6401C11.26 14.8001 11.1333 14.9068 10.92 14.9601C10.8267 14.9868 10.76 15.0134 10.72 15.0401C10.68 15.0801 10.5467 15.0934 10.32 15.0801C8.86666 15.0534 7.92666 15.0868 7.49999 15.1801C7.29999 15.2201 7.11332 15.2268 6.93999 15.2001C6.76666 15.1601 6.52666 15.1401 6.21999 15.1401C5.92666 15.1534 5.67999 15.1134 5.47999 15.0201C5.27999 14.9268 5.16666 14.8868 5.13999 14.9001C4.96666 15.0068 4.65999 14.8668 4.21999 14.4801C3.28666 13.6668 3.10666 12.7334 3.67999 11.6801C3.79999 11.4401 3.89332 11.2868 3.95999 11.2201C4.02666 11.1534 4.12666 11.1201 4.25999 11.1201C4.37999 11.1201 4.50666 11.0868 4.63999 11.0201C4.75999 10.9401 4.93999 10.9134 5.17999 10.9401C5.40666 10.9534 5.59999 10.9468 5.75999 10.9201C6.23999 10.8134 6.79999 10.7534 7.43999 10.7401C7.91999 10.7268 8.25999 10.6934 8.45999 10.6401C8.65999 10.5868 8.87332 10.4734 9.09999 10.3001C9.63332 9.88679 9.51999 9.64008 8.75999 9.56008C7.94666 9.46678 7.45332 9.46009 7.27999 9.54009C7.11999 9.62009 6.80666 9.68009 6.33999 9.72009C5.87332 9.74679 5.47332 9.74008 5.13999 9.70008C4.92666 9.66008 4.74666 9.66679 4.59999 9.72009C4.33332 9.81339 4.11332 9.72009 3.93999 9.44009C3.77999 9.16009 3.79332 8.90009 3.97999 8.66009C4.15332 8.43339 4.37332 8.32009 4.63999 8.32009C4.79999 8.32009 4.97332 8.30009 5.15999 8.26009C5.31999 8.22009 5.53332 8.21338 5.79999 8.24008C6.06666 8.25338 6.26666 8.23339 6.39999 8.18009C6.51999 8.12679 6.72666 8.10008 7.01999 8.10008C7.31332 8.10008 7.52666 8.08678 7.65999 8.06008ZM23.8503 0.420084C23.957 0.366784 24.0436 0.353383 24.1103 0.380083C24.1503 0.380083 24.297 0.413389 24.5503 0.480089C25.0036 0.573389 25.2303 0.800089 25.2303 1.16009C25.2303 1.37339 25.317 1.51339 25.4903 1.58009C25.7703 1.70009 26.0036 1.76009 26.1903 1.76009C26.3636 1.76009 26.5103 1.82678 26.6303 1.96008C26.7503 2.08008 26.857 2.29338 26.9503 2.60008C27.0703 2.97338 27.0636 3.24009 26.9303 3.40009C26.8503 3.49339 26.7703 3.62679 26.6903 3.80009C26.6103 3.96009 26.4636 4.10678 26.2503 4.24008C25.8636 4.48008 25.5636 4.71339 25.3503 4.94009C25.1503 5.16679 25.0703 5.35339 25.1103 5.50009C25.137 5.63339 25.297 5.82679 25.5903 6.08009C25.8836 6.32009 26.2303 6.54679 26.6303 6.76009C26.8436 6.88009 26.9436 7.07338 26.9303 7.34008C26.9303 7.60678 26.8236 7.82009 26.6103 7.98009C26.3836 8.12679 26.1036 8.12008 25.7703 7.96008C25.6103 7.89338 25.4036 7.81339 25.1503 7.72009C24.6836 7.57339 24.2503 7.26679 23.8503 6.80009C23.5303 6.41339 23.2503 6.30009 23.0103 6.46008C22.957 6.50008 22.8236 6.56009 22.6103 6.64009C22.3436 6.74679 22.0636 6.90679 21.7703 7.12009C21.197 7.53339 20.7036 7.55339 20.2903 7.18009C20.1303 7.02009 20.057 6.82678 20.0703 6.60008C20.097 6.36008 20.2036 6.19338 20.3903 6.10008C20.5103 6.04678 20.6636 5.94679 20.8503 5.80009C21.0236 5.64009 21.2103 5.51338 21.4103 5.42008C22.5836 4.87338 23.3303 4.45339 23.6503 4.16009C23.8503 4.00009 24.0303 3.86679 24.1903 3.76009C24.537 3.54679 24.7103 3.38678 24.7103 3.28008C24.7103 3.24008 24.5903 3.22009 24.3503 3.22009C24.1103 3.20679 23.8436 3.20679 23.5503 3.22009C23.257 3.23339 23.0503 3.26009 22.9303 3.30009C22.7436 3.35339 22.5303 3.38008 22.2903 3.38008C22.2503 3.38008 22.197 3.38008 22.1303 3.38008C21.4236 3.35338 21.0036 3.32679 20.8703 3.30009C20.7503 3.26009 20.6636 3.16009 20.6103 3.00009C20.6103 2.97339 20.6103 2.96008 20.6103 2.96008C20.5036 2.60008 20.5503 2.32679 20.7503 2.14008C20.9503 1.95338 21.337 1.84009 21.9103 1.80009C22.3236 1.77339 22.6436 1.74679 22.8703 1.72009C23.057 1.70679 23.1903 1.66009 23.2703 1.58009C23.3636 1.48679 23.4236 1.34009 23.4503 1.14009C23.5303 0.740085 23.6636 0.500084 23.8503 0.420084ZM28.7503 1.20008C28.937 1.00008 29.237 1.05339 29.6503 1.36009C29.9036 1.54679 30.0436 1.70009 30.0703 1.82009C30.1103 1.94009 30.137 2.30009 30.1503 2.90009C30.1503 3.39339 30.1503 3.69339 30.1503 3.80009C30.1636 3.90679 30.197 3.98679 30.2503 4.04009C30.3436 4.10679 30.4903 4.20678 30.6903 4.34008C30.9036 4.46008 31.0503 4.52679 31.1303 4.54009C31.4103 4.60679 31.457 4.78679 31.2703 5.08009C31.0836 5.40009 30.817 5.56008 30.4703 5.56008C30.2436 5.56008 30.097 5.60009 30.0303 5.68009C29.977 5.76009 29.9303 5.98679 29.8903 6.36009C29.837 6.77339 29.8036 6.99338 29.7903 7.02008C29.777 7.04678 29.7436 7.20009 29.6903 7.48009C29.6103 7.89339 29.5103 8.10008 29.3903 8.10008C29.3503 8.10008 29.2636 8.13338 29.1303 8.20008C28.997 8.26678 28.897 8.30009 28.8303 8.30009C28.7636 8.30009 28.6836 8.27339 28.5903 8.22009C28.4036 8.10009 28.2903 7.82679 28.2503 7.40009C28.2236 6.96009 28.2636 6.15339 28.3703 4.98009C28.4236 4.23339 28.457 3.42009 28.4703 2.54009C28.4836 1.83339 28.577 1.38678 28.7503 1.20008ZM27.2903 9.26009C27.517 9.22009 27.7303 9.25339 27.9303 9.36009C28.0503 9.41339 28.1836 9.46009 28.3303 9.50009C28.517 9.55339 28.6836 9.75338 28.8303 10.1001C28.9903 10.4334 29.0503 10.7334 29.0103 11.0001C28.9836 11.1734 28.837 11.3934 28.5703 11.6601C28.3036 11.9134 27.997 12.1334 27.6503 12.3201C27.397 12.4668 27.2703 12.6134 27.2703 12.7601C27.2703 12.8934 27.3636 13.0401 27.5503 13.2001C27.7503 13.3601 27.957 13.4601 28.1703 13.5001C28.3036 13.5134 28.457 13.6068 28.6303 13.7801C28.7903 13.9401 28.9436 14.0468 29.0903 14.1001C29.2103 14.1401 29.2903 14.1934 29.3303 14.2601C29.3836 14.3268 29.457 14.4801 29.5503 14.7201C29.6836 15.0668 29.6303 15.3068 29.3903 15.4401C29.1503 15.5868 28.8236 15.5668 28.4103 15.3801C28.0903 15.2468 27.877 15.1601 27.7703 15.1201C27.597 15.0534 27.4303 14.9668 27.2703 14.8601C27.1636 14.7801 26.9703 14.6534 26.6903 14.4801C26.477 14.3601 26.3036 14.2401 26.1703 14.1201C26.0503 14.0134 25.9436 13.9334 25.8503 13.8801C25.7836 13.8534 25.677 13.7868 25.5303 13.6801C25.3303 13.5068 25.077 13.4934 24.7703 13.6401C24.6103 13.7201 24.3836 13.8068 24.0903 13.9001C23.6236 14.0334 23.217 14.2201 22.8703 14.4601C22.657 14.5934 22.4703 14.6734 22.3103 14.7001C22.1503 14.7268 22.0103 14.7734 21.8903 14.8401C21.4503 15.0668 21.117 15.0534 20.8903 14.8001C20.677 14.5601 20.717 14.2468 21.0103 13.8601C21.1436 13.6734 21.257 13.5534 21.3503 13.5001C21.577 13.3534 22.0903 13.0801 22.8903 12.6801C23.517 12.3734 23.9236 12.1734 24.1103 12.0801C24.537 11.8801 24.8503 11.7401 25.0503 11.6601C25.2236 11.6068 25.4236 11.5134 25.6503 11.3801C25.8903 11.2334 26.0303 11.1334 26.0703 11.0801C26.097 11.0268 26.0503 10.9734 25.9303 10.9201C25.8236 10.8668 25.677 10.8268 25.4903 10.8001C25.3036 10.7734 25.1236 10.7668 24.9503 10.7801C24.4436 10.8334 23.677 10.8601 22.6503 10.8601C21.6236 10.8601 21.0636 10.8401 20.9703 10.8001C20.797 10.7068 20.677 10.5401 20.6103 10.3001C20.5436 10.0468 20.5703 9.86679 20.6903 9.76009C20.877 9.58679 21.257 9.46679 21.8303 9.40009C22.4036 9.32009 22.9103 9.33339 23.3503 9.44009C23.7236 9.52009 23.9836 9.50679 24.1303 9.40009C24.1836 9.34679 24.3436 9.32678 24.6103 9.34008C24.8903 9.35338 25.437 9.35338 26.2503 9.34008C26.797 9.32678 27.1436 9.30009 27.2903 9.26009ZM33.255 1.18009C33.3883 1.06009 33.655 1.08008 34.055 1.24008C34.3217 1.34678 34.4817 1.49339 34.535 1.68009C34.5883 1.85339 34.6217 2.33339 34.635 3.12009C34.6483 3.34679 34.655 3.52009 34.655 3.64008C34.6683 3.76008 34.7083 3.87339 34.775 3.98009C34.8417 4.08679 34.9083 4.16008 34.975 4.20008C35.055 4.24008 35.195 4.27339 35.395 4.30009C35.6083 4.31339 35.815 4.32009 36.015 4.32009C36.2283 4.30679 36.5417 4.29338 36.955 4.28008C37.5283 4.24008 38.095 4.24008 38.655 4.28008C39.1083 4.30678 39.435 4.28679 39.635 4.22009C39.8217 4.16679 39.995 4.14679 40.155 4.16009C40.755 4.25339 41.1483 4.26678 41.335 4.20008C41.495 4.14678 41.655 4.22679 41.815 4.44009C41.975 4.65339 42.075 4.90678 42.115 5.20008C42.1283 5.34678 42.115 5.45338 42.075 5.52008C42.035 5.57338 41.935 5.64009 41.775 5.72009C41.6017 5.81339 41.4483 5.89338 41.315 5.96008C40.9817 6.16008 40.635 6.18679 40.275 6.04009C40.115 5.98679 39.935 5.96679 39.735 5.98009C39.535 6.00679 39.2217 6.02679 38.795 6.04009C38.395 6.06679 38.0217 6.08009 37.675 6.08009C37.3683 6.09339 37.1083 6.12679 36.895 6.18009C36.695 6.22009 36.495 6.21339 36.295 6.16009C36.0817 6.09339 35.9283 6.08009 35.835 6.12009C35.635 6.20009 35.4083 6.18679 35.155 6.08009C34.995 6.00009 34.8417 5.96008 34.695 5.96008C34.5483 5.96008 34.4083 5.91339 34.275 5.82009C34.115 5.71339 33.9217 5.58679 33.695 5.44009C33.495 5.30679 33.355 5.19338 33.275 5.10008C33.2083 4.99338 33.1483 4.82009 33.095 4.58009C33.0283 4.36679 32.9617 4.18008 32.895 4.02008C32.8283 3.86008 32.795 3.65339 32.795 3.40009C32.795 3.32009 32.795 3.16679 32.795 2.94009C32.8083 2.70009 32.815 2.55339 32.815 2.50009C32.8283 1.87339 32.975 1.43339 33.255 1.18009ZM41.115 7.92008C41.155 7.88008 41.3017 7.87339 41.555 7.90009C41.8217 7.91339 42.0083 7.94679 42.115 8.00009C42.2617 8.06679 42.395 8.08678 42.515 8.06008C42.675 8.03338 42.795 8.10678 42.875 8.28008C42.9683 8.44008 42.995 8.62678 42.955 8.84008C42.915 9.05338 42.815 9.20008 42.655 9.28008C42.335 9.45338 42.015 9.58009 41.695 9.66009C41.375 9.72679 41.135 9.73339 40.975 9.68009C40.7617 9.60009 40.5817 9.58009 40.435 9.62009C40.275 9.66009 40.075 9.66009 39.835 9.62009C39.595 9.58009 39.4083 9.58009 39.275 9.62009C39.1417 9.66009 38.9017 9.68678 38.555 9.70008C37.6083 9.71338 37.035 9.77338 36.835 9.88008C36.715 9.94678 36.5817 9.97338 36.435 9.96008C35.555 9.82679 34.915 9.79339 34.515 9.86009C34.2617 9.90009 34.055 9.88679 33.895 9.82009C33.735 9.75339 33.5283 9.72009 33.275 9.72009C32.8883 9.72009 32.695 9.64009 32.695 9.48009C32.695 9.44009 32.6417 9.36008 32.535 9.24008C32.3217 8.98678 32.3417 8.73339 32.595 8.48009C32.715 8.37339 32.8217 8.31339 32.915 8.30009C33.0083 8.27339 33.275 8.24679 33.715 8.22009C34.315 8.20679 34.6617 8.18679 34.755 8.16009C34.8483 8.13339 35.2217 8.12679 35.875 8.14009C37.4083 8.19339 38.2683 8.16009 38.455 8.04009C38.5083 8.01339 38.9617 7.99339 39.815 7.98009C40.655 7.96679 41.0883 7.94678 41.115 7.92008ZM33.555 10.7601C33.715 10.6401 33.975 10.6534 34.335 10.8001C34.535 10.8801 34.655 10.9668 34.695 11.0601C34.7483 11.1401 34.7483 11.2934 34.695 11.5201C34.655 11.6801 34.635 11.7868 34.635 11.8401C34.6483 11.8934 34.6817 12.0001 34.735 12.1601C34.8283 12.3734 34.875 12.5068 34.875 12.5601C34.875 12.6534 34.9017 12.7201 34.955 12.7601C35.0217 12.8001 35.1283 12.8334 35.275 12.8601C35.4217 12.9001 35.615 12.9534 35.855 13.0201C36.0417 13.0734 36.2017 13.0934 36.335 13.0801C36.4817 13.0534 36.6617 13.0601 36.875 13.1001C37.075 13.1401 37.255 13.1334 37.415 13.0801C37.5883 13.0268 37.7417 13.0201 37.875 13.0601C38.0083 13.1001 38.1683 13.0868 38.355 13.0201C38.5417 12.9668 39.1083 12.9468 40.055 12.9601C40.815 12.9734 41.2683 13.0001 41.415 13.0401C41.575 13.0668 41.655 13.1534 41.655 13.3001C41.655 13.3801 41.695 13.4668 41.775 13.5601C41.9217 13.7334 41.955 13.9134 41.875 14.1001C41.8083 14.2868 41.6617 14.4068 41.435 14.4601C41.275 14.4868 41.1017 14.5334 40.915 14.6001C40.715 14.6534 40.5217 14.6534 40.335 14.6001C40.135 14.5334 39.8883 14.5268 39.595 14.5801C39.2617 14.6334 38.9817 14.6534 38.755 14.6401C38.515 14.6134 38.3017 14.6201 38.115 14.6601C37.9283 14.6868 37.7283 14.7268 37.515 14.7801C37.315 14.8201 37.1217 14.8068 36.935 14.7401C36.8017 14.7001 36.7083 14.6801 36.655 14.6801C36.615 14.6801 36.5283 14.7068 36.395 14.7601C36.075 14.8934 35.855 14.9001 35.735 14.7801C35.6683 14.7001 35.5417 14.6601 35.355 14.6601C35.115 14.6601 34.8283 14.5401 34.495 14.3001C34.3083 14.1668 34.175 14.0868 34.095 14.0601C33.9617 14.0334 33.8483 13.9668 33.755 13.8601C33.6617 13.7401 33.535 13.5268 33.375 13.2201C33.135 12.7268 33.0283 12.2534 33.055 11.8001C33.0817 11.3468 33.2483 11.0001 33.555 10.7601ZM53.4731 0.0400866C53.6465 8.6626e-05 54.2398 0.0133875 55.2531 0.0800875C55.8531 0.120088 56.2265 0.120088 56.3731 0.0800875C56.6798 8.75443e-05 56.9331 0.0600878 57.1331 0.260088C57.2131 0.353388 57.3265 0.400087 57.4731 0.400087C57.6198 0.400087 57.7398 0.440082 57.8331 0.520082C57.9265 0.600082 58.0331 0.773387 58.1531 1.04009C58.2865 1.30679 58.3531 1.49338 58.3531 1.60008C58.3665 1.70678 58.3131 1.82678 58.1931 1.96008C58.0865 2.08008 57.9598 2.28008 57.8131 2.56008C57.6665 2.82678 57.5931 3.00009 57.5931 3.08009C57.5931 3.16009 57.6598 3.25339 57.7931 3.36009C57.9398 3.46679 58.0798 3.53338 58.2131 3.56008C58.4798 3.60008 58.6798 3.74009 58.8131 3.98009C58.9198 4.14009 59.0265 4.26008 59.1331 4.34008C59.3465 4.48678 59.4731 4.70009 59.5131 4.98009C59.5398 5.32679 59.3931 5.56009 59.0731 5.68009C58.7665 5.78679 58.4398 5.72679 58.0931 5.50009C57.7865 5.28679 57.5665 5.18009 57.4331 5.18009C57.3531 5.18009 57.1531 5.09338 56.8331 4.92008C56.5131 4.73338 56.2665 4.57339 56.0931 4.44009C55.7865 4.17339 55.5531 4.12679 55.3931 4.30009C55.3265 4.36679 55.1531 4.44679 54.8731 4.54009C54.5798 4.63339 54.3265 4.74678 54.1131 4.88008C53.5931 5.18678 52.9998 5.46008 52.3331 5.70008C52.2131 5.75338 52.0798 5.84679 51.9331 5.98009C51.7331 6.15339 51.5465 6.23339 51.3731 6.22009C51.1998 6.19339 50.9998 6.06678 50.7731 5.84008C50.5731 5.62678 50.4865 5.44008 50.5131 5.28008C50.5398 5.10678 50.6998 4.88679 50.9931 4.62009C51.1665 4.47339 51.3398 4.37339 51.5131 4.32009C51.6998 4.28009 51.9131 4.18679 52.1531 4.04009C52.4598 3.85339 52.8998 3.66008 53.4731 3.46008C54.0731 3.26008 54.5731 3.00678 54.9731 2.70008C55.0931 2.62008 55.2931 2.50008 55.5731 2.34008C56.1198 2.02008 56.2798 1.80009 56.0531 1.68009C55.9865 1.65339 55.8998 1.62678 55.7931 1.60008C55.6198 1.56008 55.2865 1.54009 54.7931 1.54009C54.3131 1.54009 54.0265 1.56008 53.9331 1.60008C53.8265 1.64008 53.5398 1.66679 53.0731 1.68009C52.6065 1.68009 52.3465 1.69339 52.2931 1.72009C52.0665 1.81339 51.8265 1.84009 51.5731 1.80009C51.2531 1.74679 51.0731 1.70679 51.0331 1.68009C50.9931 1.65339 50.9798 1.54679 50.9931 1.36009C50.9931 1.29339 50.9865 1.21339 50.9731 1.12009C50.9731 1.01339 50.9731 0.953388 50.9731 0.940088C50.9731 0.846788 51.0531 0.740088 51.2131 0.620088C51.3731 0.500088 51.5398 0.426787 51.7131 0.400087C51.8998 0.360087 52.0398 0.306784 52.1331 0.240084C52.3598 0.0800836 52.5931 0.0267875 52.8331 0.0800875C52.9798 0.120088 53.0798 0.126784 53.1331 0.100084C53.1731 0.0867842 53.2865 0.0667866 53.4731 0.0400866ZM54.3731 7.36009C54.5331 7.30679 54.6598 7.28679 54.7531 7.30009C55.1265 7.36679 56.1398 7.37339 57.7931 7.32009C58.5665 7.29339 59.0265 7.30679 59.1731 7.36009C59.3331 7.41339 59.4598 7.42679 59.5531 7.40009C59.6731 7.37339 59.7598 7.39338 59.8131 7.46008C59.8798 7.52678 59.9398 7.66678 59.9931 7.88008C60.0731 8.18678 60.0798 8.40679 60.0131 8.54009C59.9465 8.67339 59.7865 8.76679 59.5331 8.82009C59.3865 8.86009 59.2265 8.91339 59.0531 8.98009C58.9331 9.03339 58.8465 9.06008 58.7931 9.06008C58.7531 9.06008 58.6598 9.03339 58.5131 8.98009C58.2998 8.91339 58.0798 8.88679 57.8531 8.90009C57.6265 8.92679 57.4398 8.92679 57.2931 8.90009C57.0798 8.84679 56.7665 8.84008 56.3531 8.88008C55.9531 8.90678 55.7265 8.94679 55.6731 9.00009C55.4731 9.21339 55.4131 9.47338 55.4931 9.78008C55.5865 10.0868 55.7598 10.2401 56.0131 10.2401C56.1598 10.2401 56.3798 10.2868 56.6731 10.3801C56.9798 10.4734 57.1998 10.5668 57.3331 10.6601C57.5065 10.7668 57.6598 10.8268 57.7931 10.8401C57.9798 10.8668 58.1065 10.9001 58.1731 10.9401C58.2398 10.9668 58.3331 11.0334 58.4531 11.1401C58.5998 11.2734 58.7198 11.3801 58.8131 11.4601C58.9065 11.5268 58.9731 11.6468 59.0131 11.8201C59.0398 11.9801 59.1065 12.2334 59.2131 12.5801C59.3465 13.0334 59.4065 13.3801 59.3931 13.6201C59.3931 13.8468 59.3131 14.0801 59.1531 14.3201C59.0198 14.5068 58.9265 14.6734 58.8731 14.8201C58.7265 15.2068 58.5065 15.4001 58.2131 15.4001C58.0398 15.4001 57.8731 15.4401 57.7131 15.5201C57.2331 15.7601 56.5865 15.8868 55.7731 15.9001C55.1998 15.9001 54.8331 15.9201 54.6731 15.9601C54.4198 16.0401 54.1398 16.0201 53.8331 15.9001C53.6998 15.8468 53.5665 15.8401 53.4331 15.8801C53.1398 15.9468 52.7865 15.8401 52.3731 15.5601C52.1998 15.4534 52.0131 15.3468 51.8131 15.2401C51.5998 15.1334 51.3398 14.8934 51.0331 14.5201C50.7398 14.1601 50.5798 13.9001 50.5531 13.7401C50.5265 13.2068 50.5131 12.8134 50.5131 12.5601C50.5131 12.3601 50.6131 12.0934 50.8131 11.7601C50.9331 11.5601 50.9998 11.4134 51.0131 11.3201C51.0398 11.2134 51.1131 11.1068 51.2331 11.0001C51.3531 10.8801 51.4798 10.8134 51.6131 10.8001C51.7465 10.7734 51.8998 10.6868 52.0731 10.5401C52.2465 10.3801 52.3998 10.2801 52.5331 10.2401C52.5465 10.2401 52.6198 10.2268 52.7531 10.2001C52.8865 10.1601 52.9931 10.1334 53.0731 10.1201C53.2731 10.0668 53.3998 10.0201 53.4531 9.98009C53.5065 9.92679 53.5865 9.81339 53.6931 9.64009C53.8131 9.42679 53.8531 9.28008 53.8131 9.20008C53.7731 9.12008 53.6331 9.04008 53.3931 8.96008C52.9531 8.82679 52.4998 8.86679 52.0331 9.08009C51.9265 9.13339 51.7931 9.14679 51.6331 9.12009C51.4865 9.09339 51.2465 9.07338 50.9131 9.06008C50.5931 9.03338 50.3998 9.00679 50.3331 8.98009C50.2798 8.94009 50.1998 8.81338 50.0931 8.60008C49.9998 8.40008 49.9531 8.26009 49.9531 8.18009C49.9531 8.08679 49.9931 7.96679 50.0731 7.82009C50.0731 7.80679 50.0798 7.78679 50.0931 7.76009C50.1865 7.61339 50.3398 7.52679 50.5531 7.50009C50.7798 7.47339 51.5131 7.44678 52.7531 7.42008C52.9265 7.42008 53.0598 7.42008 53.1531 7.42008C53.6331 7.40678 53.9198 7.41339 54.0131 7.44009C54.0931 7.45339 54.2131 7.42679 54.3731 7.36009ZM55.1731 11.7801C55.0531 11.7134 54.6998 11.7001 54.1131 11.7401C53.8198 11.7668 53.5865 11.8334 53.4131 11.9401C53.2265 12.0601 53.0665 12.1401 52.9331 12.1801C52.8131 12.2201 52.7331 12.2601 52.6931 12.3001C52.6665 12.3268 52.6331 12.4068 52.5931 12.5401C52.5665 12.6601 52.4998 12.7668 52.3931 12.8601C52.2731 12.9801 52.2265 13.1134 52.2531 13.2601C52.2931 13.4068 52.3998 13.5401 52.5731 13.6601C52.6665 13.7134 52.7798 13.8401 52.9131 14.0401C53.0598 14.2534 53.1598 14.3601 53.2131 14.3601C53.2398 14.3601 53.4065 14.3668 53.7131 14.3801C53.9665 14.3801 54.2198 14.4134 54.4731 14.4801C54.7531 14.5468 55.1198 14.5668 55.5731 14.5401C56.0265 14.5268 56.3865 14.4668 56.6531 14.3601C56.8265 14.2801 56.9531 14.2401 57.0331 14.2401C57.3131 14.2401 57.5265 14.0534 57.6731 13.6801C57.8331 13.3068 57.8198 13.0268 57.6331 12.8401C57.5131 12.7334 57.4331 12.6068 57.3931 12.4601C57.3398 12.2601 57.1598 12.1001 56.8531 11.9801C56.5465 11.8601 56.1931 11.8134 55.7931 11.8401C55.4865 11.8534 55.2798 11.8334 55.1731 11.7801ZM61.8069 10.8601C62.0869 10.7001 62.4402 10.6668 62.8669 10.7601C63.3069 10.8401 63.5869 10.9934 63.7069 11.2201C63.8669 11.5401 63.8935 11.9201 63.7869 12.3601C63.6935 12.7868 63.5202 13.0534 63.2669 13.1601C63.1202 13.2401 63.0269 13.3001 62.9869 13.3401C62.9335 13.3934 62.7469 13.4134 62.4269 13.4001C62.1069 13.3868 61.8802 13.3468 61.7469 13.2801C61.2669 13.0668 61.0335 12.6734 61.0469 12.1001C61.0602 11.5268 61.3135 11.1134 61.8069 10.8601ZM65.6155 10.8601C65.8955 10.7001 66.2488 10.6668 66.6755 10.7601C67.1155 10.8401 67.3955 10.9934 67.5155 11.2201C67.6755 11.5401 67.7021 11.9201 67.5955 12.3601C67.5021 12.7868 67.3288 13.0534 67.0755 13.1601C66.9288 13.2401 66.8355 13.3001 66.7955 13.3401C66.7421 13.3934 66.5555 13.4134 66.2355 13.4001C65.9155 13.3868 65.6888 13.3468 65.5555 13.2801C65.0755 13.0668 64.8421 12.6734 64.8555 12.1001C64.8688 11.5268 65.1221 11.1134 65.6155 10.8601Z" fill="white"/>
</svg>
