<svg width="203" height="18" viewBox="0 0 203 18" fill="none" xmlns="http://www.w3.org/2000/svg">
<path d="M3.48 0.879999C3.58667 0.8 3.74 0.773333 3.94 0.799999C4.14 0.826666 4.24 0.886666 4.24 0.979999C4.24 1.00667 4.32667 1.04667 4.5 1.1C4.68667 1.16667 4.8 1.25333 4.84 1.36C4.89333 1.46667 4.93333 1.69333 4.96 2.04C4.97333 2.44 4.99333 2.65333 5.02 2.68C5.06 2.72 5.48667 2.74667 6.3 2.76C6.72667 2.77333 7.01333 2.84667 7.16 2.98C7.32 3.1 7.38667 3.32 7.36 3.64C7.34667 3.78667 7.21333 3.92667 6.96 4.06C6.72 4.18 6.52 4.21333 6.36 4.16C6.24 4.12 6.07333 4.11333 5.86 4.14C5.44667 4.19333 5.11333 4.18 4.86 4.1C4.72667 4.07333 4.55333 4.07333 4.34 4.1C4.12667 4.14 3.92 4.14 3.72 4.1C3.53333 4.06 3.32 4.05333 3.08 4.08C2.86667 4.10667 2.64667 4.11333 2.42 4.1C2.12667 4.08667 1.74667 4.14 1.28 4.26C1.14667 4.3 1.04 4.3 0.96 4.26C0.88 4.22 0.793333 4.10667 0.7 3.92C0.513333 3.58667 0.493333 3.32667 0.64 3.14C0.8 2.94 1.12 2.82667 1.6 2.8C1.64 2.78667 1.7 2.78 1.78 2.78C2.07333 2.75333 2.27333 2.74 2.38 2.74C2.5 2.72667 2.62667 2.70667 2.76 2.68C2.90667 2.64 2.99333 2.61333 3.02 2.6C3.06 2.57333 3.1 2.52 3.14 2.44C3.18 2.36 3.2 2.28667 3.2 2.22C3.2 2.15333 3.20667 2.03333 3.22 1.86C3.22 1.82 3.22 1.78667 3.22 1.76C3.22 1.46667 3.23333 1.26667 3.26 1.16C3.3 1.05333 3.37333 0.959999 3.48 0.879999ZM9.28 2.88C9.54667 2.73333 9.88 2.78 10.28 3.02C10.36 3.07333 10.4267 3.16667 10.48 3.3C10.5467 3.43333 10.58 3.55333 10.58 3.66C10.58 3.80667 10.6 3.97333 10.64 4.16C10.68 4.36 10.68 4.53333 10.64 4.68C10.6 4.8 10.5733 4.94 10.56 5.1C10.56 5.26 10.5733 5.36 10.6 5.4C10.64 5.44 10.8067 5.47333 11.1 5.5C11.38 5.54 11.5733 5.59333 11.68 5.66C11.7867 5.74 11.9 5.78 12.02 5.78C12.2733 5.78 12.4133 5.89333 12.44 6.12C12.4667 6.33333 12.3667 6.56 12.14 6.8C11.9933 6.94667 11.88 7.03333 11.8 7.06C11.7333 7.08667 11.62 7.08667 11.46 7.06C11.3 7.03333 11.1 7.04 10.86 7.08C10.62 7.10667 10.4733 7.15333 10.42 7.22C10.3533 7.28667 10.3067 7.41333 10.28 7.6C10.2533 7.77333 10.2533 7.93333 10.28 8.08C10.32 8.26667 10.3133 8.45333 10.26 8.64C10.2067 8.81333 10.18 8.99333 10.18 9.18C10.18 9.39333 10.1533 9.54 10.1 9.62C10.0467 9.7 9.93333 9.78 9.76 9.86C9.49333 9.96667 9.26667 9.98 9.08 9.9C8.89333 9.80667 8.78 9.64 8.74 9.4C8.71333 9.22667 8.67333 9.08 8.62 8.96C8.56667 8.85333 8.56 8.62667 8.6 8.28C8.64 7.96 8.64667 7.70667 8.62 7.52C8.60667 7.33333 8.62 7.18 8.66 7.06C8.68667 6.91333 8.68667 6.76667 8.66 6.62C8.62 6.47333 8.63333 6.30667 8.7 6.12C8.88667 5.65333 8.94667 5.28667 8.88 5.02C8.84 4.86 8.84667 4.72667 8.9 4.62C8.98 4.47333 8.97333 4.27333 8.88 4.02C8.82667 3.86 8.82 3.71333 8.86 3.58C9.00667 3.19333 9.14667 2.96 9.28 2.88ZM2.9 5.08C3.31333 4.96 3.80667 4.92667 4.38 4.98C4.75333 5.02 5.05333 5.09333 5.28 5.2C5.50667 5.30667 5.85333 5.54667 6.32 5.92C6.41333 5.98667 6.48 6.09333 6.52 6.24C6.53333 6.28 6.54667 6.34 6.56 6.42C6.58667 6.48667 6.61333 6.56667 6.64 6.66C6.68 6.75333 6.70667 6.83333 6.72 6.9C6.93333 7.54 6.92 8.1 6.68 8.58C6.56 8.82 6.47333 9.04667 6.42 9.26C6.35333 9.54 6.23333 9.70667 6.06 9.76C5.96667 9.78667 5.84 9.87333 5.68 10.02C5.45333 10.2333 5.01333 10.46 4.36 10.7C4.01333 10.8333 3.74 10.9 3.54 10.9C3.35333 10.9 3.08667 10.8333 2.74 10.7C2.38 10.5667 2.14667 10.4667 2.04 10.4C1.93333 10.3333 1.83333 10.2333 1.74 10.1C1.63333 9.95333 1.55333 9.88 1.5 9.88C1.32667 9.88 1.10667 9.66667 0.84 9.24C0.586667 8.81333 0.473333 8.48 0.5 8.24C0.526667 8.06667 0.54 7.91333 0.54 7.78C0.54 7.63333 0.606667 7.38 0.74 7.02C0.873333 6.64667 0.993333 6.4 1.1 6.28C1.23333 6.09333 1.36667 5.9 1.5 5.7C1.68667 5.47333 1.80667 5.35333 1.86 5.34C2.15333 5.27333 2.5 5.18667 2.9 5.08ZM4.22 6.4C3.80667 6.34667 3.48667 6.37333 3.26 6.48C3.04667 6.58667 2.89333 6.78667 2.8 7.08C2.73333 7.26667 2.64 7.46 2.52 7.66C2.32 8.00667 2.28 8.31333 2.4 8.58C2.48 8.76667 2.52667 8.89333 2.54 8.96C2.60667 9.2 2.76 9.28 3 9.2C3.17333 9.14667 3.42667 9.17333 3.76 9.28C4 9.34667 4.26 9.26667 4.54 9.04C4.82 8.81333 5.02 8.52 5.14 8.16C5.27333 7.78667 5.27333 7.47333 5.14 7.22C5.06 7.06 5.02 6.94 5.02 6.86C5.02 6.71333 4.96 6.61333 4.84 6.56C4.73333 6.49333 4.52667 6.44 4.22 6.4ZM7.14 11.04C7.28667 11 7.45333 10.9933 7.64 11.02C7.88 11.0333 8.2 11.0333 8.6 11.02C8.78667 11.02 8.91333 11.0267 8.98 11.04C9.04667 11.0533 9.14 11.1 9.26 11.18C9.42 11.2867 9.56 11.34 9.68 11.34C9.86667 11.34 10.04 11.4933 10.2 11.8C10.36 12.0933 10.44 12.42 10.44 12.78C10.44 13.0867 10.4667 13.3533 10.52 13.58C10.5867 13.86 10.6067 14.16 10.58 14.48C10.5533 14.7867 10.4867 15.0267 10.38 15.2C10.26 15.3867 10.2 15.56 10.2 15.72C10.2133 15.92 10.1933 16.0667 10.14 16.16C10.0867 16.2667 9.98667 16.3667 9.84 16.46C9.65333 16.58 9.52667 16.6467 9.46 16.66C9.39333 16.6867 9.3 16.6867 9.18 16.66C9.06 16.62 8.84 16.66 8.52 16.78C8.21333 16.9 7.95333 16.9667 7.74 16.98C7.54 17.0067 7.29333 16.9933 7 16.94C6.77333 16.9 6.62 16.88 6.54 16.88C6.46 16.88 6.28 16.9133 6 16.98C5.53333 17.1133 5.20667 17.14 5.02 17.06C4.94 17.02 4.70667 16.9867 4.32 16.96C3.93333 16.9467 3.65333 16.8933 3.48 16.8C3.28 16.7067 3.10667 16.64 2.96 16.6C2.74667 16.5467 2.50667 16.38 2.24 16.1C1.97333 15.8333 1.75333 15.52 1.58 15.16C1.43333 14.88 1.34667 14.6933 1.32 14.6C1.30667 14.5067 1.3 14.3133 1.3 14.02C1.31333 13.6067 1.32 13.28 1.32 13.04C1.32 12.6533 1.44667 12.3133 1.7 12.02C1.95333 11.7133 2.24 11.56 2.56 11.56C2.69333 11.56 2.84667 11.5333 3.02 11.48C3.68667 11.2667 4.30667 11.16 4.88 11.16C6.24 11.12 6.99333 11.08 7.14 11.04ZM7.82 12.5C7.54 12.3933 7.25333 12.3733 6.96 12.44C6.82667 12.48 6.55333 12.5133 6.14 12.54C5.71333 12.5667 5.36667 12.62 5.1 12.7C4.83333 12.7667 4.47333 12.8133 4.02 12.84C3.63333 12.88 3.40667 12.9133 3.34 12.94C3.27333 12.9533 3.22 13.0333 3.18 13.18C3.15333 13.3 3.11333 13.4467 3.06 13.62C3.00667 13.7533 3.00667 13.8933 3.06 14.04C3.11333 14.1733 3.16 14.34 3.2 14.54C3.22667 14.7 3.26667 14.8133 3.32 14.88C3.37333 14.9333 3.51333 15.0067 3.74 15.1C3.98 15.1933 4.23333 15.24 4.5 15.24C5.3 15.2533 5.84667 15.32 6.14 15.44C6.27333 15.4933 6.44667 15.5 6.66 15.46C6.88667 15.42 7.21333 15.3933 7.64 15.38C8.02667 15.3533 8.28 15.32 8.4 15.28C8.52 15.24 8.61333 15.1467 8.68 15C8.77333 14.8267 8.82667 14.4533 8.84 13.88C8.85333 13.3067 8.82667 12.9467 8.76 12.8C8.68 12.6267 8.48667 12.54 8.18 12.54C8.02 12.54 7.9 12.5267 7.82 12.5ZM26.0292 4.78C26.1226 4.67333 26.3226 4.66 26.6292 4.74C26.9492 4.80667 27.1492 4.91333 27.2292 5.06C27.3359 5.27333 27.3959 5.78667 27.4092 6.6C27.4226 7.4 27.3759 7.88667 27.2692 8.06C27.2559 8.08667 27.2426 8.37333 27.2292 8.92C27.2292 9.48 27.2026 9.84667 27.1492 10.02C27.1092 10.1667 27.0892 10.4133 27.0892 10.76C27.1026 11.0933 27.1359 11.34 27.1892 11.5C27.2292 11.5933 27.2426 11.7733 27.2292 12.04C27.2159 12.3067 27.1826 12.5267 27.1292 12.7C27.1159 12.78 27.0826 12.84 27.0292 12.88C26.9892 12.92 26.8959 12.98 26.7492 13.06C26.2559 13.3 25.9759 13.2267 25.9092 12.84C25.8826 12.6933 25.8426 12.5667 25.7892 12.46C25.7359 12.3533 25.6959 12.0933 25.6692 11.68C25.6292 11.16 25.6226 10.7933 25.6492 10.58C25.6759 10.3933 25.6692 10.2533 25.6292 10.16C25.5892 10.0533 25.5959 9.92 25.6492 9.76C25.7159 9.54667 25.6892 9.24667 25.5692 8.86C25.5159 8.7 25.4892 8.6 25.4892 8.56C25.4892 8.50667 25.5159 8.42667 25.5692 8.32C25.6492 8.17333 25.6959 7.82 25.7092 7.26C25.7359 6.68667 25.7492 6.38 25.7492 6.34C25.7492 6.27333 25.7292 6.13333 25.6892 5.92C25.6492 5.73333 25.6626 5.53333 25.7292 5.32C25.7959 5.10667 25.8959 4.92667 26.0292 4.78ZM14.2492 5.04C14.3159 5.02667 14.4426 5.03333 14.6292 5.06C14.8292 5.08667 15.0492 5.08 15.2892 5.04C15.5292 5 15.7692 5 16.0092 5.04C16.2359 5.08 16.4159 5.08667 16.5492 5.06C16.7359 5.00667 17.0826 5.08 17.5892 5.28C17.7759 5.34667 17.8959 5.38667 17.9492 5.4C18.0159 5.4 18.1226 5.36667 18.2692 5.3C18.5492 5.19333 18.9092 5.16667 19.3492 5.22C19.7892 5.27333 20.0692 5.38 20.1892 5.54C20.2692 5.63333 20.3892 5.76 20.5492 5.92C20.8026 6.18667 20.9692 6.67333 21.0492 7.38C21.1292 8.07333 21.0826 8.68 20.9092 9.2C20.8292 9.46667 20.7759 9.65333 20.7492 9.76C20.7359 9.86667 20.6492 10.04 20.4892 10.28C20.3426 10.52 20.2492 10.7067 20.2092 10.84C20.0759 11.3067 19.8492 11.7267 19.5292 12.1C19.2092 12.4733 18.9092 12.66 18.6292 12.66C18.4292 12.6733 18.2626 12.6333 18.1292 12.54C17.9959 12.4467 17.9159 12.32 17.8892 12.16C17.8759 11.96 17.8559 11.8133 17.8292 11.72C17.7892 11.4933 17.8759 11.2867 18.0892 11.1C18.3026 10.9 18.5092 10.6067 18.7092 10.22C18.9226 9.83333 19.0692 9.48 19.1492 9.16C19.2026 8.90667 19.2426 8.72 19.2692 8.6C19.2959 8.53333 19.3226 8.41333 19.3492 8.24C19.3626 8.18667 19.3892 8.02 19.4292 7.74C19.5226 7.16667 19.2559 6.87333 18.6292 6.86C18.3492 6.86 18.1626 6.92 18.0692 7.04C17.9759 7.14667 17.9159 7.37333 17.8892 7.72C17.8759 8 17.8426 8.22 17.7892 8.38C17.7626 8.46 17.6892 8.67333 17.5692 9.02C17.4492 9.32667 17.2826 9.68 17.0692 10.08C16.8559 10.48 16.6692 10.7733 16.5092 10.96C16.3092 11.1867 16.1692 11.3533 16.0892 11.46C15.9959 11.5933 15.8826 11.7 15.7492 11.78C15.6026 11.8867 15.4892 11.98 15.4092 12.06C15.2359 12.2467 15.0292 12.28 14.7892 12.16C14.7492 12.1333 14.6026 12.06 14.3492 11.94C14.1092 11.82 14.0159 11.62 14.0692 11.34C14.1226 11.0467 14.2959 10.8267 14.5892 10.68C14.7092 10.6267 14.8092 10.5133 14.8892 10.34C14.9826 10.1933 15.0826 10.0533 15.1892 9.92C15.3759 9.72 15.5426 9.48 15.6892 9.2C15.8359 8.92 15.9159 8.68 15.9292 8.48C15.9559 8.22667 16.0159 8.06 16.1092 7.98C16.2026 7.87333 16.2692 7.69333 16.3092 7.44C16.3626 7.17333 16.3626 6.99333 16.3092 6.9C16.2692 6.82 16.1826 6.76 16.0492 6.72C15.9159 6.66667 15.7759 6.65333 15.6292 6.68C15.3759 6.72 15.0226 6.75333 14.5692 6.78C14.1292 6.79333 13.8826 6.78667 13.8292 6.76C13.7492 6.73333 13.6959 6.66 13.6692 6.54C13.6426 6.43333 13.5959 6.33333 13.5292 6.24C13.3959 6.05333 13.4159 5.82 13.5892 5.54C13.7626 5.26 13.9826 5.09333 14.2492 5.04ZM24.5692 5.48C24.6626 5.64 24.7359 5.9 24.7892 6.26C24.8426 6.60667 24.8492 6.90667 24.8092 7.16C24.7692 7.33333 24.7359 7.83333 24.7092 8.66C24.6826 9.46 24.6426 9.91333 24.5892 10.02C24.5492 10.1133 24.5226 10.3867 24.5092 10.84C24.4959 11.3067 24.4559 11.6467 24.3892 11.86C24.3226 12.0733 24.2559 12.2933 24.1892 12.52C24.0692 12.8933 23.8559 13.1133 23.5492 13.18C23.2559 13.2333 23.0826 13.1 23.0292 12.78C23.0159 12.7667 23.0092 12.74 23.0092 12.7C22.9959 12.5 22.9559 12.32 22.8892 12.16C22.8226 12 22.8159 11.8533 22.8692 11.72C22.9226 11.5733 22.9492 11.3267 22.9492 10.98C22.9626 10.6067 22.9692 10.4 22.9692 10.36C23.0226 10 22.9826 9.74 22.8492 9.58C22.7159 9.42 22.5159 9.38667 22.2492 9.48C22.0092 9.57333 21.8426 9.6 21.7492 9.56C21.6559 9.50667 21.5826 9.34667 21.5292 9.08C21.4092 8.52 21.7359 8.09333 22.5092 7.8C22.7626 7.69333 22.9226 7.56 22.9892 7.4C23.0559 7.22667 23.0892 6.86 23.0892 6.3C23.1026 5.99333 23.1292 5.78 23.1692 5.66C23.2092 5.54 23.3026 5.44 23.4492 5.36C23.5959 5.26667 23.7959 5.24 24.0492 5.28C24.3159 5.30667 24.4892 5.37333 24.5692 5.48ZM45.1047 4.48C45.1847 4.4 45.3047 4.36667 45.4647 4.38C45.5047 4.39333 45.578 4.40667 45.6847 4.42C45.8047 4.43333 45.8847 4.44 45.9247 4.44C46.0847 4.46667 46.1914 4.52667 46.2447 4.62C46.298 4.71333 46.3514 4.92 46.4047 5.24C46.4314 5.49333 46.4447 5.94667 46.4447 6.6C46.4447 7.24 46.4247 7.59333 46.3847 7.66C46.3714 7.68667 46.3847 7.78667 46.4247 7.96C46.478 8.13333 46.4714 8.31333 46.4047 8.5C46.3514 8.68667 46.3314 8.89333 46.3447 9.12C46.3714 9.34667 46.358 9.53333 46.3047 9.68C46.238 9.81333 46.218 9.96667 46.2447 10.14C46.2847 10.42 46.3047 10.9067 46.3047 11.6C46.318 12.2933 46.3047 12.7333 46.2647 12.92C46.2247 13.0933 46.1047 13.2667 45.9047 13.44C45.7047 13.6133 45.5314 13.6933 45.3847 13.68C45.0647 13.6133 44.8847 13.4133 44.8447 13.08C44.818 12.8533 44.7647 12.6533 44.6847 12.48C44.5514 12.1733 44.5114 11.4067 44.5647 10.18C44.5647 9.98 44.5514 9.82667 44.5247 9.72C44.498 9.58667 44.5114 9.45333 44.5647 9.32C44.6314 9.18667 44.6447 8.99333 44.6047 8.74C44.578 8.48667 44.578 8.28 44.6047 8.12C44.6314 7.97333 44.6514 7.79333 44.6647 7.58C44.6647 7.39333 44.6847 7.22667 44.7247 7.08C44.7647 6.92 44.7847 6.53333 44.7847 5.92C44.7847 5.42667 44.798 5.1 44.8247 4.94C44.8647 4.78 44.958 4.62667 45.1047 4.48ZM37.6847 4.64C37.8447 4.58667 37.998 4.58 38.1447 4.62C38.2647 4.66 38.4047 4.66 38.5647 4.62C38.738 4.58 38.898 4.59333 39.0447 4.66C39.2047 4.71333 39.4247 4.74667 39.7047 4.76C39.998 4.76 40.238 4.81333 40.4247 4.92C40.598 5.04 40.7247 5.1 40.8047 5.1C41.058 5.1 41.378 5.36 41.7647 5.88C42.1647 6.38667 42.398 6.86 42.4647 7.3C42.5847 8.04667 42.6114 8.64667 42.5447 9.1C42.4914 9.55333 42.338 9.98 42.0847 10.38C41.9247 10.62 41.8114 10.8533 41.7447 11.08C41.6514 11.3733 41.5247 11.6133 41.3647 11.8C41.218 11.9867 41.0714 12.08 40.9247 12.08C40.858 12.08 40.7647 12.1133 40.6447 12.18C40.5247 12.2467 40.3514 12.3267 40.1247 12.42C39.898 12.5 39.7514 12.54 39.6847 12.54C39.618 12.54 39.4914 12.5733 39.3047 12.64C38.9447 12.7867 38.6514 12.7667 38.4247 12.58C38.2914 12.4733 38.1514 12.4333 38.0047 12.46C37.8714 12.4867 37.7447 12.4667 37.6247 12.4C37.6247 12.3867 37.4714 12.3 37.1647 12.14C36.8847 11.9933 36.578 11.74 36.2447 11.38C35.9247 11.02 35.718 10.7067 35.6247 10.44C35.3714 9.73333 35.2714 9.27333 35.3247 9.06C35.3647 8.9 35.3647 8.7 35.3247 8.46C35.298 8.27333 35.3247 8.01333 35.4047 7.68C35.4847 7.34667 35.5914 7.06 35.7247 6.82C35.818 6.66 35.8914 6.5 35.9447 6.34C36.038 6.00667 36.2247 5.77333 36.5047 5.64C36.598 5.58667 36.7847 5.42 37.0647 5.14C37.358 4.84667 37.5647 4.68 37.6847 4.64ZM39.3447 6.52C38.958 6.52 38.6914 6.50667 38.5447 6.48C38.3714 6.45333 38.1847 6.50667 37.9847 6.64C37.7847 6.76 37.6847 6.88 37.6847 7C37.6847 7.04 37.6447 7.09333 37.5647 7.16C37.418 7.28 37.3247 7.47333 37.2847 7.74C37.258 7.9 37.2047 8.06 37.1247 8.22C36.898 8.67333 36.9314 9.2 37.2247 9.8C37.3847 10.12 37.4647 10.32 37.4647 10.4C37.4647 10.52 37.5114 10.62 37.6047 10.7C37.7114 10.7667 37.8514 10.8 38.0247 10.8C38.238 10.8133 38.4247 10.8533 38.5847 10.92C38.7314 10.9867 38.8514 11.0133 38.9447 11C39.0514 10.9867 39.1847 10.92 39.3447 10.8C39.4914 10.7067 39.658 10.62 39.8447 10.54C40.018 10.4733 40.138 10.4067 40.2047 10.34C40.2847 10.26 40.338 10.14 40.3647 9.98C40.378 9.82 40.4314 9.68 40.5247 9.56C40.6847 9.38667 40.778 9.11333 40.8047 8.74C40.8447 8.36667 40.8114 8.05333 40.7047 7.8C40.598 7.56 40.5314 7.37333 40.5047 7.24C40.4647 6.96 40.3647 6.77333 40.2047 6.68C40.0447 6.57333 39.758 6.52 39.3447 6.52ZM57.2911 4.22C57.2911 4.20667 57.3578 4.22 57.4911 4.26C57.6244 4.3 57.7644 4.34667 57.9111 4.4C58.0578 4.45333 58.1444 4.49333 58.1711 4.52C58.2378 4.58667 58.2911 4.78667 58.3311 5.12C58.3844 5.44 58.3911 5.68 58.3511 5.84C58.2978 6.02667 58.3311 6.14 58.4511 6.18C58.5711 6.20667 58.8644 6.2 59.3311 6.16C59.6378 6.13333 59.8711 6.14667 60.0311 6.2C60.1911 6.25333 60.3111 6.27333 60.3911 6.26C60.5244 6.23333 60.6244 6.29333 60.6911 6.44C60.7578 6.57333 60.7711 6.74 60.7311 6.94C60.7044 7.12667 60.6244 7.28 60.4911 7.4C60.2244 7.64 59.9444 7.76 59.6511 7.76C59.4778 7.76 59.2244 7.79333 58.8911 7.86C58.5578 7.92667 58.3644 7.98 58.3111 8.02C58.2578 8.08667 58.1911 8.24667 58.1111 8.5C58.0311 8.75333 57.9978 8.92 58.0111 9C58.0511 9.17333 58.1511 9.28 58.3111 9.32C58.4844 9.34667 58.8378 9.33333 59.3711 9.28C59.7311 9.25333 60.0511 9.29333 60.3311 9.4C60.6111 9.50667 60.7644 9.65333 60.7911 9.84C60.8444 10.1467 60.7244 10.4133 60.4311 10.64C60.1378 10.8667 59.8044 10.9467 59.4311 10.88C59.2711 10.8533 59.0178 10.86 58.6711 10.9C58.3378 10.9267 58.1511 10.96 58.1111 11C58.0978 11.0133 58.0644 11.34 58.0111 11.98C57.9844 12.5133 57.9511 12.8533 57.9111 13C57.8711 13.1333 57.7778 13.24 57.6311 13.32C57.4844 13.4133 57.4111 13.4667 57.4111 13.48C57.4111 13.5333 57.3511 13.5733 57.2311 13.6C57.1111 13.6267 57.0044 13.62 56.9111 13.58C56.5511 13.46 56.3711 13.28 56.3711 13.04C56.3711 12.88 56.3511 12.7533 56.3111 12.66C56.2711 12.54 56.2578 12.1267 56.2711 11.42C56.2844 10.7133 56.3178 10.2733 56.3711 10.1C56.4244 9.91333 56.4311 9.74667 56.3911 9.6C56.3111 9.33333 56.3178 9.08 56.4111 8.84C56.4644 8.69333 56.4778 8.49333 56.4511 8.24C56.4244 8.01333 56.4378 7.67333 56.4911 7.22C56.5311 6.82 56.5444 6.50667 56.5311 6.28C56.5311 6.06667 56.5511 5.88 56.5911 5.72C56.6311 5.56 56.6311 5.41333 56.5911 5.28C56.5511 5.10667 56.5844 4.90667 56.6911 4.68C56.8111 4.45333 56.9511 4.31333 57.1111 4.26L57.2911 4.22ZM50.6911 4.46C50.8378 4.42 51.0978 4.4 51.4711 4.4C51.8578 4.4 52.0911 4.42667 52.1711 4.48C52.2378 4.52 52.3911 4.55333 52.6311 4.58C52.8711 4.60667 53.1044 4.69333 53.3311 4.84C53.5711 4.97333 53.7444 5.05333 53.8511 5.08C54.0511 5.12 54.3044 5.37333 54.6111 5.84C54.9311 6.30667 55.1378 6.74 55.2311 7.14C55.3244 7.55333 55.3311 8.03333 55.2511 8.58C55.1844 9.11333 55.0444 9.58667 54.8311 10C54.7244 10.2133 54.6511 10.44 54.6111 10.68C54.5444 11.04 54.3644 11.3333 54.0711 11.56C53.7778 11.7867 53.2644 12.02 52.5311 12.26C52.1178 12.3933 51.8444 12.4667 51.7111 12.48C51.5911 12.48 51.4511 12.42 51.2911 12.3C51.1578 12.22 51.0444 12.1933 50.9511 12.22C50.8711 12.2333 50.7511 12.1933 50.5911 12.1C50.4311 12.0067 50.2644 11.92 50.0911 11.84C49.9044 11.7467 49.7844 11.6533 49.7311 11.56C49.6778 11.48 49.5378 11.3333 49.3111 11.12C49.0178 10.8133 48.7711 10.4 48.5711 9.88C48.3711 9.34667 48.3178 8.94 48.4111 8.66C48.4378 8.55333 48.4311 8.4 48.3911 8.2C48.3378 7.88 48.4444 7.38667 48.7111 6.72C48.9778 6.04 49.2378 5.61333 49.4911 5.44C49.6644 5.33333 49.8711 5.15333 50.1111 4.9C50.3644 4.64667 50.5578 4.5 50.6911 4.46ZM51.9711 6.28C51.6644 6.17333 51.4111 6.15333 51.2111 6.22C51.0244 6.27333 50.8444 6.42667 50.6711 6.68C50.4444 7 50.3311 7.24667 50.3311 7.42C50.3311 7.5 50.2911 7.66667 50.2111 7.92C50.0244 8.49333 50.0844 9.05333 50.3911 9.6C50.4844 9.78667 50.5511 9.95333 50.5911 10.1C50.6311 10.2333 50.6778 10.3267 50.7311 10.38C50.7978 10.42 50.9111 10.4533 51.0711 10.48C51.2044 10.4933 51.3644 10.5333 51.5511 10.6C51.8711 10.72 52.1711 10.6733 52.4511 10.46C52.5844 10.3533 52.7111 10.2733 52.8311 10.22C53.0578 10.1267 53.1911 9.97333 53.2311 9.76C53.2711 9.54667 53.3711 9.35333 53.5311 9.18C53.5711 9.12667 53.6178 8.97333 53.6711 8.72C53.7378 8.45333 53.7711 8.23333 53.7711 8.06C53.7711 7.92667 53.7111 7.73333 53.5911 7.48C53.4711 7.22667 53.4111 7.06667 53.4111 7C53.4111 6.8 53.3244 6.64 53.1511 6.52C52.9778 6.38667 52.7444 6.32667 52.4511 6.34C52.1978 6.34 52.0378 6.32 51.9711 6.28ZM71.2691 4.26C71.4291 4.19333 71.6157 4.2 71.8291 4.28C71.9757 4.33333 72.0957 4.36 72.1891 4.36C72.5757 4.36 72.7091 5.16667 72.5891 6.78C72.5357 7.67333 72.5091 8.4 72.5091 8.96C72.5091 9.22667 72.4757 9.43333 72.4091 9.58C72.3291 9.72667 72.3024 9.89333 72.3291 10.08C72.3824 10.4133 72.4091 10.9933 72.4091 11.82C72.4224 12.6467 72.4091 13.1 72.3691 13.18C72.3424 13.2333 72.2291 13.3333 72.0291 13.48C71.8424 13.6267 71.7157 13.7067 71.6491 13.72C71.5824 13.7333 71.4757 13.7067 71.3291 13.64C71.1824 13.56 71.0691 13.48 70.9891 13.4C70.9357 13.32 70.8957 13.1867 70.8691 13C70.8557 12.8 70.8091 12.6267 70.7291 12.48C70.6624 12.36 70.6157 12.02 70.5891 11.46C70.5757 10.8867 70.5957 10.48 70.6491 10.24C70.6757 10.0933 70.6691 9.94 70.6291 9.78C70.5891 9.60667 70.5891 9.44 70.6291 9.28C70.6691 9.12 70.6624 8.94 70.6091 8.74C70.5557 8.54 70.5557 8.32667 70.6091 8.1C70.7291 7.67333 70.7957 6.94667 70.8091 5.92C70.8224 5.28 70.8424 4.92 70.8691 4.84C70.9091 4.72 70.9691 4.6 71.0491 4.48C71.1424 4.36 71.2157 4.28667 71.2691 4.26ZM64.2491 4.5C64.3691 4.44667 64.6024 4.42667 64.9491 4.44C65.3091 4.45333 65.5691 4.48667 65.7291 4.54C65.8491 4.56667 65.9891 4.57333 66.1491 4.56C66.4291 4.52 66.6691 4.6 66.8691 4.8C67.0157 4.92 67.1424 5 67.2491 5.04C67.3691 5.08 67.4757 5.15333 67.5691 5.26C67.6624 5.35333 67.7224 5.45333 67.7491 5.56C67.7491 5.56 67.7557 5.6 67.7691 5.68C67.7824 5.74667 67.7957 5.79333 67.8091 5.82C67.8224 5.9 67.8691 5.99333 67.9491 6.1C68.0024 6.18 68.0357 6.28 68.0491 6.4C68.0624 6.52 68.0757 6.92 68.0891 7.6C68.1024 7.76 68.0957 7.88 68.0691 7.96C68.0424 8.04 67.9491 8.21333 67.7891 8.48C67.5624 8.86667 67.4024 9.16 67.3091 9.36C67.1891 9.58667 67.0224 9.80667 66.8091 10.02C66.6091 10.2333 66.4624 10.4267 66.3691 10.6C66.3024 10.72 66.1957 10.84 66.0491 10.96C65.9157 11.0667 65.5691 11.3267 65.0091 11.74C64.7691 11.9133 64.5824 12.06 64.4491 12.18C64.3157 12.3 64.1624 12.4 63.9891 12.48C63.8157 12.56 63.6891 12.64 63.6091 12.72C63.3691 12.9333 63.0824 12.9933 62.7491 12.9C62.4291 12.8067 62.2291 12.6067 62.1491 12.3C62.0957 12.0867 62.1624 11.84 62.3491 11.56C62.5357 11.2667 62.7424 11.1 62.9691 11.06C63.1957 11.0067 63.4957 10.82 63.8691 10.5C64.0557 10.3133 64.2557 10.16 64.4691 10.04C64.8557 9.8 65.2157 9.44667 65.5491 8.98C65.8957 8.5 66.1024 8.06667 66.1691 7.68C66.1957 7.46667 66.2291 7.34 66.2691 7.3C66.3091 7.24667 66.3291 7.13333 66.3291 6.96C66.3424 6.70667 66.2491 6.52 66.0491 6.4C65.8491 6.28 65.5357 6.22 65.1091 6.22C63.8557 6.23333 63.0491 6.28 62.6891 6.36C62.4224 6.41333 62.2224 6.41333 62.0891 6.36C61.9691 6.29333 61.8957 6.14667 61.8691 5.92C61.8157 5.54667 61.7891 5.32667 61.7891 5.26C61.7891 5.18 61.8291 5.1 61.9091 5.02C62.0424 4.84667 62.2091 4.73333 62.4091 4.68C62.6224 4.61333 62.9291 4.58 63.3291 4.58C63.7957 4.58 64.1024 4.55333 64.2491 4.5ZM76.1234 0.84C76.4168 0.746666 76.5901 0.699999 76.6434 0.699999C76.6968 0.686666 76.8101 0.706666 76.9834 0.76C77.1701 0.799999 77.3568 0.806666 77.5434 0.779999C77.9168 0.713333 78.2501 0.733333 78.5434 0.84C78.5968 0.866666 78.7301 0.846666 78.9434 0.779999C79.0901 0.713333 79.2168 0.68 79.3234 0.68C79.4434 0.68 79.7501 0.693333 80.2434 0.719999C80.8701 0.759999 81.3568 0.786666 81.7034 0.799999C81.9968 0.813332 82.3034 0.893333 82.6234 1.04C82.9568 1.17333 83.1768 1.32 83.2834 1.48C83.3634 1.6 83.4434 1.71333 83.5234 1.82C83.6034 1.91333 83.6568 2.16 83.6834 2.56C83.7101 2.92 83.7101 3.15333 83.6834 3.26C83.6701 3.35333 83.5834 3.47333 83.4234 3.62C83.2501 3.78 83.1368 3.94667 83.0834 4.12C82.9768 4.38667 82.8101 4.52 82.5834 4.52C82.4901 4.52 82.3434 4.55333 82.1434 4.62C81.9568 4.68667 81.7768 4.73333 81.6034 4.76C81.4568 4.77333 81.2434 4.82 80.9634 4.9C80.6968 4.96667 80.4501 4.99333 80.2234 4.98C80.0101 4.95333 79.8234 4.95333 79.6634 4.98C79.5168 5.02 79.1634 5.01333 78.6034 4.96C78.0434 4.90667 77.6834 4.91333 77.5234 4.98C77.3768 5.03333 77.2834 5.19333 77.2434 5.46C77.2034 5.68667 77.2901 5.86667 77.5034 6C77.7301 6.12 77.9834 6.14667 78.2634 6.08C78.4368 6.02667 78.6434 6.03333 78.8834 6.1C79.0968 6.15333 79.5168 6.16 80.1434 6.12C81.0234 6.08 81.7501 6.07333 82.3234 6.1C82.5501 6.1 82.6968 6.13333 82.7634 6.2C82.8301 6.25333 82.8634 6.38 82.8634 6.58C82.8634 6.82 82.7701 7.02667 82.5834 7.2C82.3968 7.36 82.1701 7.44 81.9034 7.44C81.6634 7.44 81.4101 7.47333 81.1434 7.54C80.8768 7.60667 80.4701 7.64 79.9234 7.64C79.3634 7.64 78.9968 7.65333 78.8234 7.68C78.6234 7.69333 78.4368 7.67333 78.2634 7.62C78.0768 7.55333 77.9034 7.54667 77.7434 7.6C77.5834 7.64 77.4034 7.62 77.2034 7.54C77.0301 7.47333 76.8434 7.44 76.6434 7.44C76.3101 7.44 76.0834 7.33333 75.9634 7.12C75.9234 7.05333 75.8434 6.99333 75.7234 6.94C75.5101 6.83333 75.4034 6.66 75.4034 6.42C75.4034 6.34 75.3768 6.2 75.3234 6C75.2301 5.64 75.2301 5.36667 75.3234 5.18C75.3768 5.07333 75.3901 4.94 75.3634 4.78C75.3368 4.51333 75.4634 4.24667 75.7434 3.98C76.0234 3.7 76.3034 3.58 76.5834 3.62C76.7168 3.63333 76.8968 3.6 77.1234 3.52C77.3501 3.42667 77.6168 3.36667 77.9234 3.34C78.2301 3.31333 78.4634 3.33333 78.6234 3.4C78.7568 3.45333 78.9034 3.46 79.0634 3.42C79.2101 3.38 79.4234 3.38 79.7034 3.42C79.9834 3.44667 80.2034 3.44667 80.3634 3.42C80.4968 3.39333 80.6901 3.38 80.9434 3.38C81.1301 3.38 81.2501 3.37333 81.3034 3.36C81.3568 3.33333 81.4301 3.28 81.5234 3.2C81.6834 3.06667 81.8101 2.96667 81.9034 2.9C81.9968 2.83333 82.0434 2.72667 82.0434 2.58C82.0568 2.43333 82.0168 2.31333 81.9234 2.22C81.8034 2.1 81.5634 2.02667 81.2034 2C80.8568 1.97333 80.5234 2.00667 80.2034 2.1C79.6968 2.24667 78.8034 2.32667 77.5234 2.34C77.0834 2.34 76.7301 2.34 76.4634 2.34C75.9301 2.35333 75.6234 2.26 75.5434 2.06C75.5034 1.92667 75.4301 1.78667 75.3234 1.64C75.2168 1.49333 75.2234 1.36 75.3434 1.24C75.4768 1.10667 75.7368 0.973333 76.1234 0.84ZM80.4234 8.56C80.5301 8.50667 80.6834 8.49333 80.8834 8.52C81.1501 8.54667 81.6634 8.56 82.4234 8.56C83.0234 8.56 83.3834 8.56667 83.5034 8.58C83.6368 8.59333 83.7368 8.62667 83.8034 8.68C83.9101 8.76 84.0301 8.8 84.1634 8.8C84.2968 8.8 84.3968 8.82667 84.4634 8.88C84.5434 8.93333 84.6101 9.04 84.6634 9.2C84.7434 9.41333 84.7701 9.6 84.7434 9.76C84.7168 9.90667 84.6434 9.98 84.5234 9.98C84.4834 9.98 84.4301 10 84.3634 10.04C83.8434 10.3067 83.4701 10.3933 83.2434 10.3C83.1234 10.26 82.9234 10.22 82.6434 10.18C82.5368 10.18 82.3968 10.1733 82.2234 10.16C82.0501 10.1333 81.9501 10.12 81.9234 10.12C81.7368 10.0933 81.6234 10.1 81.5834 10.14C81.4101 10.2867 81.1501 10.28 80.8034 10.12C80.6034 10.0267 80.4301 10 80.2834 10.04C80.1368 10.0933 79.8768 10.12 79.5034 10.12C79.0901 10.1333 78.7968 10.16 78.6234 10.2C78.3968 10.24 78.1434 10.2333 77.8634 10.18C77.5701 10.1533 77.2834 10.16 77.0034 10.2C76.7101 10.2267 76.5034 10.2267 76.3834 10.2C76.3568 10.2 76.2834 10.1867 76.1634 10.16C76.0568 10.12 75.9768 10.0933 75.9234 10.08C75.7234 10.0133 75.5301 10.0067 75.3434 10.06C74.9834 10.1267 74.7301 10.0333 74.5834 9.78C74.4501 9.51333 74.5101 9.24 74.7634 8.96C74.8834 8.82667 74.9701 8.74667 75.0234 8.72C75.0768 8.69333 75.1968 8.68 75.3834 8.68C75.6901 8.66667 75.9368 8.66 76.1234 8.66C76.8834 8.62 77.6101 8.62667 78.3034 8.68C78.9168 8.72 79.2901 8.71333 79.4234 8.66C79.5434 8.60667 79.7168 8.58667 79.9434 8.6C80.1568 8.61333 80.3168 8.6 80.4234 8.56ZM80.1834 10.8C80.2368 10.7467 80.5168 10.76 81.0234 10.84C81.5434 10.9067 81.9901 11.0067 82.3634 11.14C83.3368 11.4467 83.6301 12.0667 83.2434 13C83.1101 13.2933 82.9968 13.4867 82.9034 13.58C82.8234 13.66 82.6234 13.76 82.3034 13.88C81.8634 14.0533 81.5768 14.1533 81.4434 14.18C81.3101 14.2067 81.0901 14.22 80.7834 14.22C80.3968 14.2067 80.1368 14.22 80.0034 14.26C79.7768 14.3133 79.6101 14.3467 79.5034 14.36C79.2901 14.4 79.1301 14.4467 79.0234 14.5C78.9301 14.5533 78.7301 14.5667 78.4234 14.54C77.9834 14.5 77.6968 14.5 77.5634 14.54C77.4301 14.5667 77.3234 14.6667 77.2434 14.84C77.1368 15.0533 77.1501 15.2133 77.2834 15.32C77.4168 15.4267 77.7101 15.5067 78.1634 15.56C78.5101 15.6 79.1768 15.6 80.1634 15.56C81.1634 15.52 81.7968 15.4667 82.0634 15.4C82.2368 15.36 82.4034 15.36 82.5634 15.4C82.7101 15.44 82.8568 15.46 83.0034 15.46C83.1234 15.46 83.2101 15.4867 83.2634 15.54C83.3301 15.6067 83.3901 15.74 83.4434 15.94C83.5101 16.2067 83.5301 16.38 83.5034 16.46C83.4768 16.5533 83.3768 16.6333 83.2034 16.7C83.0834 16.7533 82.9634 16.82 82.8434 16.9C82.7368 16.9933 82.5768 17.0267 82.3634 17C82.1501 16.9867 81.9234 17.0067 81.6834 17.06C81.4168 17.1133 81.1234 17.1267 80.8034 17.1C80.4568 17.0867 80.2101 17.0933 80.0634 17.12C79.4634 17.2533 79.0768 17.2867 78.9034 17.22C78.7701 17.1667 78.5768 17.1467 78.3234 17.16C78.0834 17.1867 77.8634 17.1533 77.6634 17.06C77.4768 16.9667 77.3434 16.9267 77.2634 16.94C77.1834 16.9667 77.0434 16.9333 76.8434 16.84C76.6568 16.76 76.5234 16.6733 76.4434 16.58C76.3501 16.4867 76.2901 16.44 76.2634 16.44C76.1834 16.44 76.0768 16.3667 75.9434 16.22C75.8101 16.0733 75.7234 15.9333 75.6834 15.8C75.6301 15.6133 75.5701 15.4933 75.5034 15.44C75.2634 15.2133 75.2234 14.8467 75.3834 14.34C75.5434 13.82 75.7901 13.5133 76.1234 13.42C76.2701 13.38 76.4568 13.3067 76.6834 13.2C76.8568 13.1067 76.9968 13.0533 77.1034 13.04C77.2101 13.0267 77.4568 13.0067 77.8434 12.98C78.3901 12.9667 78.7634 12.94 78.9634 12.9C79.1768 12.8467 79.4568 12.82 79.8034 12.82C80.2434 12.82 80.6034 12.7733 80.8834 12.68C81.1768 12.5867 81.3234 12.4733 81.3234 12.34C81.3234 12.3 81.2701 12.2733 81.1634 12.26C81.0568 12.2467 80.9434 12.2533 80.8234 12.28C80.6634 12.32 80.4834 12.3067 80.2834 12.24C80.0701 12.1867 79.7768 12.1933 79.4034 12.26C78.9368 12.3267 78.0168 12.32 76.6434 12.24C76.4034 12.2267 76.2568 12.2133 76.2034 12.2C76.1501 12.1733 76.1034 12.1133 76.0634 12.02C75.9434 11.78 75.9634 11.5333 76.1234 11.28C76.1234 11.2667 76.1301 11.2533 76.1434 11.24C76.2634 11.0533 76.4034 10.9467 76.5634 10.92C76.7368 10.88 77.2634 10.86 78.1434 10.86C78.2234 10.8467 78.2901 10.84 78.3434 10.84C79.5434 10.84 80.1568 10.8267 80.1834 10.8ZM100.89 4.22C101.063 4.07333 101.27 4.06667 101.51 4.2C101.617 4.26667 101.737 4.32 101.87 4.36C102.23 4.48 102.357 5.38 102.25 7.06C102.223 7.44667 102.243 7.68 102.31 7.76C102.39 7.82667 102.583 7.80667 102.89 7.7C103.263 7.56667 103.61 7.56 103.93 7.68C104.103 7.73333 104.237 7.74667 104.33 7.72C104.463 7.69333 104.583 7.76 104.69 7.92C104.797 8.08 104.843 8.26 104.83 8.46C104.83 8.64667 104.763 8.76667 104.63 8.82C104.51 8.87333 104.343 8.95333 104.13 9.06C103.983 9.14 103.85 9.19333 103.73 9.22C103.623 9.23333 103.37 9.24667 102.97 9.26C102.477 9.28667 102.19 9.31333 102.11 9.34C102.043 9.36667 102.01 9.46667 102.01 9.64C102.01 9.84 101.983 9.99333 101.93 10.1C101.89 10.22 101.877 10.7533 101.89 11.7C101.903 12.4867 101.897 12.9667 101.87 13.14C101.843 13.3133 101.763 13.4333 101.63 13.5C101.51 13.5667 101.397 13.64 101.29 13.72C101.09 13.8533 100.883 13.8667 100.67 13.76C100.457 13.64 100.35 13.4533 100.35 13.2C100.35 13.0533 100.31 12.8867 100.23 12.7C100.163 12.5133 100.157 12.34 100.21 12.18C100.263 12.02 100.277 11.8267 100.25 11.6C100.17 11.0933 100.19 10.7067 100.31 10.44C100.377 10.2667 100.39 10.1 100.35 9.94C100.27 9.66 100.29 9.46 100.41 9.34C100.477 9.27333 100.503 9.19333 100.49 9.1C100.37 8.60667 100.363 8.20667 100.47 7.9C100.523 7.72667 100.543 7.57333 100.53 7.44C100.503 7.30667 100.51 7.17333 100.55 7.04C100.603 6.90667 100.63 6.68667 100.63 6.38C100.643 6.06 100.63 5.78 100.59 5.54C100.563 5.3 100.577 5.04667 100.63 4.78C100.697 4.5 100.783 4.31333 100.89 4.22ZM92.71 4.58C92.87 4.54 93.05 4.56667 93.25 4.66C93.4633 4.74 93.6233 4.85333 93.73 5C93.7833 5.09333 93.8167 5.36667 93.83 5.82C93.8433 6.26 93.8233 6.62 93.77 6.9C93.7033 7.15333 93.67 7.36 93.67 7.52C93.67 7.70667 93.65 7.94 93.61 8.22C93.57 8.51333 93.5767 8.74667 93.63 8.92C93.6967 9.09333 93.7433 9.27333 93.77 9.46C93.7833 9.68667 93.8033 9.84 93.83 9.92C93.8567 10 93.9233 10.0933 94.03 10.2C94.1633 10.3467 94.2833 10.4467 94.39 10.5C94.4967 10.54 94.6633 10.56 94.89 10.56C95.13 10.5467 95.3033 10.56 95.41 10.6C95.5167 10.64 95.6567 10.64 95.83 10.6C96.0033 10.5467 96.31 10.5133 96.75 10.5C97.2033 10.5 97.7167 10.5467 98.29 10.64C98.37 10.6533 98.47 10.7933 98.59 11.06C98.7233 11.3133 98.7767 11.5 98.75 11.62C98.6967 11.8867 98.5167 12.0933 98.21 12.24C97.9033 12.3867 97.61 12.4133 97.33 12.32C97.1967 12.2667 97.07 12.2533 96.95 12.28C96.7633 12.3333 96.45 12.3533 96.01 12.34C95.5833 12.3267 95.3167 12.2867 95.21 12.22C95.09 12.1533 94.95 12.1333 94.79 12.16C94.4167 12.2133 94.1567 12.1933 94.01 12.1C93.9167 12.0467 93.81 12.0267 93.69 12.04C93.57 12.0533 93.4633 12.0333 93.37 11.98C93.2767 11.9133 93.0833 11.7333 92.79 11.44C92.3367 11 92.03 10.44 91.87 9.76C91.71 9.06667 91.71 8.36 91.87 7.64C91.9367 7.36 91.95 7.00667 91.91 6.58C91.87 6.23333 91.8567 6.00667 91.87 5.9C91.8833 5.79333 91.9433 5.61333 92.05 5.36C92.17 5.04 92.2633 4.84 92.33 4.76C92.41 4.68 92.5367 4.62 92.71 4.58ZM106.972 2.6C107.119 2.53333 107.212 2.5 107.252 2.5C107.305 2.5 107.452 2.56 107.692 2.68C107.705 2.68 107.719 2.68667 107.732 2.7C107.905 2.78 108.012 2.84667 108.052 2.9C108.105 2.95333 108.145 3.09333 108.172 3.32C108.199 3.53333 108.185 3.85333 108.132 4.28C108.132 4.33333 108.132 4.36667 108.132 4.38C108.092 4.84667 108.079 5.19333 108.092 5.42C108.119 5.64667 108.152 5.79333 108.192 5.86C108.245 5.91333 108.345 5.96 108.492 6C109.065 6.18667 109.545 6.24667 109.932 6.18C110.199 6.14 110.419 6.13333 110.592 6.16C110.779 6.18667 110.979 6.18 111.192 6.14C111.392 6.1 111.752 6.09333 112.272 6.12C112.792 6.16 113.125 6.16 113.272 6.12C113.432 6.08 113.619 6.06667 113.832 6.08C113.872 6.08 113.939 6.08 114.032 6.08C114.685 6.09333 115.072 6.12 115.192 6.16C115.312 6.18667 115.419 6.28 115.512 6.44C115.512 6.45333 115.519 6.46667 115.532 6.48C115.852 7.09333 115.859 7.46 115.552 7.58C115.539 7.59333 115.499 7.61333 115.432 7.64C115.379 7.66667 115.319 7.69333 115.252 7.72C115.199 7.74667 115.152 7.77333 115.112 7.8C114.725 7.97333 114.392 8 114.112 7.88C113.965 7.82667 113.545 7.81333 112.852 7.84C112.039 7.89333 110.892 7.91333 109.412 7.9C109.225 7.9 109.052 7.88 108.892 7.84C108.745 7.78667 108.559 7.76 108.332 7.76C108.105 7.76 107.905 7.7 107.732 7.58C107.679 7.55333 107.585 7.5 107.452 7.42C107.332 7.32667 107.245 7.26 107.192 7.22C106.859 7.00667 106.579 6.63333 106.352 6.1C106.125 5.55333 106.065 5.10667 106.172 4.76C106.239 4.56 106.252 4.36667 106.212 4.18C106.159 3.94 106.219 3.64667 106.392 3.3C106.565 2.95333 106.759 2.72 106.972 2.6ZM106.592 9.78C106.659 9.75333 107.019 9.75333 107.672 9.78C108.339 9.79333 108.752 9.81333 108.912 9.84C109.112 9.86667 109.332 9.87333 109.572 9.86C109.799 9.83333 110.032 9.84 110.272 9.88C110.525 9.92 110.725 9.9 110.872 9.82C111.099 9.72667 111.605 9.74 112.392 9.86C112.659 9.9 113.125 9.92667 113.792 9.94C114.459 9.94 114.865 9.92 115.012 9.88C115.159 9.84 115.399 9.84 115.732 9.88C116.092 9.93333 116.312 9.98 116.392 10.02C116.472 10.0467 116.559 10.1467 116.652 10.32C116.812 10.64 116.852 10.9067 116.772 11.12C116.692 11.3333 116.505 11.44 116.212 11.44C116.132 11.44 116.019 11.48 115.872 11.56C115.752 11.6133 115.612 11.6467 115.452 11.66C115.292 11.66 115.172 11.64 115.092 11.6C115.012 11.5467 114.472 11.5067 113.472 11.48C113.205 11.48 112.892 11.4933 112.532 11.52C112.199 11.5467 112.005 11.6 111.952 11.68C111.912 11.76 111.879 12.0733 111.852 12.62C111.852 12.6867 111.845 12.78 111.832 12.9C111.779 14.1667 111.719 14.9067 111.652 15.12C111.599 15.3467 111.405 15.4867 111.072 15.54C111.045 15.54 111.025 15.54 111.012 15.54C110.919 15.5667 110.745 15.5 110.492 15.34C110.252 15.18 110.112 15.0467 110.072 14.94C110.032 14.86 110.012 14.68 110.012 14.4C110.025 14.1067 110.052 13.8533 110.092 13.64C110.132 13.36 110.152 13.0733 110.152 12.78C110.152 12.4867 110.179 12.2333 110.232 12.02C110.285 11.82 110.299 11.6933 110.272 11.64C110.259 11.5867 110.179 11.54 110.032 11.5C109.859 11.46 109.285 11.4733 108.312 11.54C107.992 11.5533 107.772 11.54 107.652 11.5C107.519 11.4467 107.339 11.4467 107.112 11.5C106.845 11.5533 106.639 11.5533 106.492 11.5C106.359 11.4467 106.219 11.3133 106.072 11.1C105.925 10.8733 105.845 10.7067 105.832 10.6C105.819 10.48 105.872 10.3667 105.992 10.26C106.299 9.98 106.499 9.82 106.592 9.78ZM118.685 2.18C118.818 2.06 119.085 2.08 119.485 2.24C119.751 2.34667 119.911 2.49333 119.965 2.68C120.018 2.85333 120.051 3.33333 120.065 4.12C120.078 4.34667 120.085 4.52 120.085 4.64C120.098 4.76 120.138 4.87333 120.205 4.98C120.271 5.08667 120.338 5.16 120.405 5.2C120.485 5.24 120.625 5.27333 120.825 5.3C121.038 5.31333 121.245 5.32 121.445 5.32C121.658 5.30667 121.971 5.29333 122.385 5.28C122.958 5.24 123.525 5.24 124.085 5.28C124.538 5.30667 124.865 5.28667 125.065 5.22C125.251 5.16667 125.425 5.14667 125.585 5.16C126.185 5.25333 126.578 5.26667 126.765 5.2C126.925 5.14667 127.085 5.22667 127.245 5.44C127.405 5.65333 127.505 5.90667 127.545 6.2C127.558 6.34667 127.545 6.45333 127.505 6.52C127.465 6.57333 127.365 6.64 127.205 6.72C127.031 6.81333 126.878 6.89333 126.745 6.96C126.411 7.16 126.065 7.18667 125.705 7.04C125.545 6.98667 125.365 6.96667 125.165 6.98C124.965 7.00667 124.651 7.02667 124.225 7.04C123.825 7.06667 123.451 7.08 123.105 7.08C122.798 7.09333 122.538 7.12667 122.325 7.18C122.125 7.22 121.925 7.21333 121.725 7.16C121.511 7.09333 121.358 7.08 121.265 7.12C121.065 7.2 120.838 7.18667 120.585 7.08C120.425 7 120.271 6.96 120.125 6.96C119.978 6.96 119.838 6.91333 119.705 6.82C119.545 6.71333 119.351 6.58667 119.125 6.44C118.925 6.30667 118.785 6.19333 118.705 6.1C118.638 5.99333 118.578 5.82 118.525 5.58C118.458 5.36667 118.391 5.18 118.325 5.02C118.258 4.86 118.225 4.65333 118.225 4.4C118.225 4.32 118.225 4.16667 118.225 3.94C118.238 3.7 118.245 3.55333 118.245 3.5C118.258 2.87333 118.405 2.43333 118.685 2.18ZM126.545 8.92C126.585 8.88 126.731 8.87333 126.985 8.9C127.251 8.91333 127.438 8.94667 127.545 9C127.691 9.06667 127.825 9.08667 127.945 9.06C128.105 9.03333 128.225 9.10667 128.305 9.28C128.398 9.44 128.425 9.62667 128.385 9.84C128.345 10.0533 128.245 10.2 128.085 10.28C127.765 10.4533 127.445 10.58 127.125 10.66C126.805 10.7267 126.565 10.7333 126.405 10.68C126.191 10.6 126.011 10.58 125.865 10.62C125.705 10.66 125.505 10.66 125.265 10.62C125.025 10.58 124.838 10.58 124.705 10.62C124.571 10.66 124.331 10.6867 123.985 10.7C123.038 10.7133 122.465 10.7733 122.265 10.88C122.145 10.9467 122.011 10.9733 121.865 10.96C120.985 10.8267 120.345 10.7933 119.945 10.86C119.691 10.9 119.485 10.8867 119.325 10.82C119.165 10.7533 118.958 10.72 118.705 10.72C118.318 10.72 118.125 10.64 118.125 10.48C118.125 10.44 118.071 10.36 117.965 10.24C117.751 9.98667 117.771 9.73333 118.025 9.48C118.145 9.37333 118.251 9.31333 118.345 9.3C118.438 9.27333 118.705 9.24667 119.145 9.22C119.745 9.20667 120.091 9.18667 120.185 9.16C120.278 9.13333 120.651 9.12667 121.305 9.14C122.838 9.19333 123.698 9.16 123.885 9.04C123.938 9.01333 124.391 8.99333 125.245 8.98C126.085 8.96667 126.518 8.94667 126.545 8.92ZM118.985 11.76C119.145 11.64 119.405 11.6533 119.765 11.8C119.965 11.88 120.085 11.9667 120.125 12.06C120.178 12.14 120.178 12.2933 120.125 12.52C120.085 12.68 120.065 12.7867 120.065 12.84C120.078 12.8933 120.111 13 120.165 13.16C120.258 13.3733 120.305 13.5067 120.305 13.56C120.305 13.6533 120.331 13.72 120.385 13.76C120.451 13.8 120.558 13.8333 120.705 13.86C120.851 13.9 121.045 13.9533 121.285 14.02C121.471 14.0733 121.631 14.0933 121.765 14.08C121.911 14.0533 122.091 14.06 122.305 14.1C122.505 14.14 122.685 14.1333 122.845 14.08C123.018 14.0267 123.171 14.02 123.305 14.06C123.438 14.1 123.598 14.0867 123.785 14.02C123.971 13.9667 124.538 13.9467 125.485 13.96C126.245 13.9733 126.698 14 126.845 14.04C127.005 14.0667 127.085 14.1533 127.085 14.3C127.085 14.38 127.125 14.4667 127.205 14.56C127.351 14.7333 127.385 14.9133 127.305 15.1C127.238 15.2867 127.091 15.4067 126.865 15.46C126.705 15.4867 126.531 15.5333 126.345 15.6C126.145 15.6533 125.951 15.6533 125.765 15.6C125.565 15.5333 125.318 15.5267 125.025 15.58C124.691 15.6333 124.411 15.6533 124.185 15.64C123.945 15.6133 123.731 15.62 123.545 15.66C123.358 15.6867 123.158 15.7267 122.945 15.78C122.745 15.82 122.551 15.8067 122.365 15.74C122.231 15.7 122.138 15.68 122.085 15.68C122.045 15.68 121.958 15.7067 121.825 15.76C121.505 15.8933 121.285 15.9 121.165 15.78C121.098 15.7 120.971 15.66 120.785 15.66C120.545 15.66 120.258 15.54 119.925 15.3C119.738 15.1667 119.605 15.0867 119.525 15.06C119.391 15.0333 119.278 14.9667 119.185 14.86C119.091 14.74 118.965 14.5267 118.805 14.22C118.565 13.7267 118.458 13.2533 118.485 12.8C118.511 12.3467 118.678 12 118.985 11.76ZM142.303 2.54C142.383 2.51333 142.649 2.5 143.103 2.5C143.556 2.5 143.816 2.51333 143.883 2.54C143.936 2.55333 144.029 2.64667 144.163 2.82C144.296 2.99333 144.376 3.12667 144.403 3.22C144.443 3.32667 144.409 3.49333 144.303 3.72C144.209 3.93333 144.116 4.05333 144.023 4.08C143.703 4.13333 142.809 4.16667 141.343 4.18C140.863 4.18 140.589 4.2 140.523 4.24C140.469 4.29333 140.269 4.33333 139.923 4.36C139.563 4.4 139.356 4.43333 139.303 4.46C139.183 4.52667 138.516 4.57333 137.303 4.6C136.903 4.61333 136.616 4.63333 136.443 4.66C136.216 4.68667 136.069 4.66667 136.003 4.6C135.949 4.53333 135.923 4.36667 135.923 4.1C135.923 3.9 135.929 3.77333 135.943 3.72C135.969 3.66667 136.036 3.58 136.143 3.46C136.356 3.24667 136.483 3.11333 136.523 3.06C136.603 2.99333 136.656 2.95333 136.683 2.94C136.723 2.91333 136.789 2.91333 136.883 2.94C137.123 2.99333 137.456 2.98667 137.883 2.92C138.149 2.86667 138.543 2.82667 139.063 2.8C139.796 2.76 140.303 2.72667 140.583 2.7C140.689 2.68667 140.829 2.68 141.003 2.68C141.189 2.66667 141.343 2.66 141.463 2.66C141.596 2.64667 141.696 2.63333 141.763 2.62C142.056 2.60667 142.236 2.58 142.303 2.54ZM142.683 5.56C143.096 5.53333 143.389 5.56 143.563 5.64C143.749 5.70667 143.883 5.84667 143.963 6.06C144.109 6.47333 144.049 6.82 143.783 7.1C143.516 7.36667 143.169 7.43333 142.743 7.3C142.569 7.24667 142.409 7.25333 142.263 7.32C142.116 7.37333 141.823 7.41333 141.383 7.44C140.036 7.53333 139.309 7.59333 139.203 7.62C139.149 7.63333 138.896 7.65333 138.443 7.68C138.043 7.70667 137.783 7.76 137.663 7.84C137.543 7.90667 137.469 8.06 137.443 8.3C137.429 8.44667 137.403 8.62 137.363 8.82C137.309 9.06 137.349 9.23333 137.483 9.34C137.629 9.44667 137.929 9.53333 138.383 9.6C138.756 9.65333 139.016 9.66 139.163 9.62C139.323 9.58 139.503 9.58667 139.703 9.64C139.903 9.66667 140.083 9.67333 140.243 9.66C140.763 9.58 141.389 9.52667 142.123 9.5C142.856 9.47333 143.296 9.49333 143.443 9.56C143.576 9.61333 143.663 9.62667 143.703 9.6C143.836 9.52 143.976 9.64 144.123 9.96C144.256 10.2533 144.249 10.52 144.103 10.76C143.956 10.9867 143.849 11.1267 143.783 11.18C143.716 11.2333 143.609 11.26 143.463 11.26C143.369 11.2467 142.736 11.2333 141.563 11.22C140.456 11.2067 139.749 11.1933 139.443 11.18C139.149 11.1533 138.909 11.1533 138.723 11.18C138.043 11.3133 137.296 11.1133 136.483 10.58C136.243 10.42 136.076 10.2867 135.983 10.18C135.903 10.06 135.823 9.86667 135.743 9.6C135.676 9.37333 135.596 9.18 135.503 9.02C135.329 8.71333 135.336 8.37333 135.523 8C135.589 7.86667 135.623 7.78 135.623 7.74C135.623 7.68667 135.596 7.59333 135.543 7.46C135.409 7.14 135.469 6.84 135.723 6.56C135.843 6.42667 135.989 6.34 136.163 6.3C136.336 6.26 136.656 6.23333 137.123 6.22C137.523 6.20667 137.796 6.18667 137.943 6.16C138.103 6.13333 138.309 6.07333 138.563 5.98C138.776 5.91333 139.016 5.88 139.283 5.88C139.549 5.88 139.776 5.84 139.963 5.76C140.163 5.66667 140.349 5.63333 140.523 5.66C140.669 5.68667 140.983 5.68667 141.463 5.66C141.583 5.64667 141.789 5.63333 142.083 5.62C142.376 5.59333 142.576 5.57333 142.683 5.56ZM140.043 11.88C140.243 11.76 140.523 11.8333 140.883 12.1C141.043 12.2067 141.143 12.3267 141.183 12.46C141.223 12.58 141.236 12.82 141.223 13.18C141.223 13.4867 141.223 13.6667 141.223 13.72C141.236 13.7733 141.269 13.8 141.323 13.8C141.536 13.8133 141.869 13.8133 142.323 13.8C142.789 13.7733 143.063 13.7533 143.143 13.74C143.303 13.7 143.769 13.68 144.543 13.68C145.316 13.68 145.729 13.7 145.783 13.74C145.823 13.7933 145.876 13.9267 145.943 14.14C146.023 14.34 146.063 14.4867 146.063 14.58C146.063 14.8067 145.889 14.96 145.543 15.04C145.303 15.1067 145.169 15.14 145.143 15.14C144.823 15.2467 144.516 15.26 144.223 15.18C144.023 15.1133 143.903 15.0933 143.863 15.12C143.836 15.1467 143.636 15.1733 143.263 15.2C142.996 15.2133 142.663 15.2467 142.263 15.3C141.956 15.34 141.716 15.3333 141.543 15.28C141.369 15.2267 141.196 15.2267 141.023 15.28C140.836 15.3333 140.703 15.3533 140.623 15.34C140.543 15.3133 140.403 15.3267 140.203 15.38C140.003 15.4333 139.436 15.4467 138.503 15.42C137.636 15.4067 137.049 15.4 136.743 15.4C136.556 15.4 136.356 15.3733 136.143 15.32C135.943 15.28 135.816 15.2333 135.763 15.18C135.683 15.1 135.643 14.98 135.643 14.82C135.656 14.6467 135.709 14.5067 135.803 14.4C135.963 14.2133 136.116 14.1 136.263 14.06C136.423 14.0067 136.723 13.98 137.163 13.98C137.669 13.9933 138.023 13.9867 138.223 13.96C138.423 13.92 138.643 13.8867 138.883 13.86C139.109 13.8467 139.249 13.8133 139.303 13.76C139.369 13.7067 139.403 13.5933 139.403 13.42C139.403 13.2333 139.436 13.04 139.503 12.84C139.569 12.64 139.603 12.4933 139.603 12.4C139.603 12.32 139.643 12.2267 139.723 12.12C139.816 12.0133 139.923 11.9333 140.043 11.88ZM150.323 3.9C150.429 3.87333 150.723 3.86667 151.203 3.88C151.696 3.89333 152.023 3.92 152.183 3.96C152.329 4 152.476 4 152.623 3.96C152.903 3.90667 153.143 3.96 153.343 4.12C153.463 4.22667 153.563 4.26667 153.643 4.24C153.856 4.18667 154.096 4.38 154.363 4.82C154.629 5.26 154.729 5.62667 154.663 5.92C154.623 6.05333 154.623 6.18 154.663 6.3C154.703 6.46 154.709 6.92 154.683 7.68C154.669 8.05333 154.603 8.33333 154.483 8.52C154.363 8.70667 154.156 8.84 153.863 8.92C153.529 9.02667 153.276 9.11333 153.103 9.18C152.849 9.28667 152.289 9.33333 151.423 9.32C151.089 9.30667 150.683 9.34 150.203 9.42C150.056 9.44667 149.876 9.47333 149.663 9.5C149.463 9.52667 149.356 9.54667 149.343 9.56C149.129 9.58667 148.989 9.76 148.923 10.08C148.856 10.3867 148.869 10.72 148.963 11.08C149.056 11.4267 149.216 11.66 149.443 11.78C149.563 11.8333 149.796 11.86 150.143 11.86C150.476 11.86 150.709 11.88 150.843 11.92C150.963 11.96 151.336 11.96 151.963 11.92C152.589 11.88 153.023 11.8867 153.263 11.94C153.503 11.9933 153.636 12.0067 153.663 11.98C153.769 11.9133 153.923 12.0333 154.123 12.34C154.243 12.54 154.309 12.6867 154.323 12.78C154.336 12.86 154.296 12.9333 154.203 13C154.109 13.0533 153.989 13.1533 153.843 13.3C153.749 13.3933 153.676 13.4467 153.623 13.46C153.583 13.4733 153.476 13.4733 153.303 13.46C153.089 13.4333 152.929 13.44 152.823 13.48C152.729 13.52 152.343 13.54 151.663 13.54C150.983 13.54 150.616 13.52 150.563 13.48C150.509 13.44 150.329 13.4267 150.023 13.44C149.703 13.44 149.483 13.4067 149.363 13.34C149.243 13.26 149.083 13.22 148.883 13.22C148.536 13.22 148.316 13.12 148.223 12.92C148.183 12.84 148.076 12.7333 147.903 12.6C147.729 12.4667 147.609 12.32 147.543 12.16C147.436 11.8933 147.336 11.6533 147.243 11.44C147.029 10.92 147.023 10.4733 147.222 10.1C147.316 9.9 147.396 9.65333 147.463 9.36C147.529 9.06667 147.576 8.88667 147.603 8.82C147.643 8.75333 147.756 8.64 147.943 8.48C148.249 8.2 148.509 8.04 148.723 8C148.896 7.97333 149.069 7.92667 149.243 7.86C149.429 7.79333 149.616 7.76 149.803 7.76C149.976 7.76 150.136 7.73333 150.283 7.68C150.429 7.62667 150.816 7.6 151.443 7.6C152.056 7.6 152.429 7.56667 152.563 7.5C152.696 7.42 152.763 7.2 152.763 6.84C152.776 6.69333 152.803 6.58 152.843 6.5C152.923 6.36667 152.943 6.2 152.903 6C152.876 5.8 152.809 5.65333 152.703 5.56C152.596 5.48 152.343 5.42667 151.943 5.4C151.556 5.36 151.243 5.36667 151.003 5.42C150.843 5.46 150.649 5.5 150.423 5.54C150.236 5.55333 150.076 5.58 149.943 5.62C149.769 5.66 149.596 5.66 149.423 5.62C149.223 5.56667 149.043 5.56667 148.883 5.62C148.309 5.78 147.943 5.66667 147.783 5.28C147.596 4.85333 147.669 4.54667 148.003 4.36C148.016 4.34667 148.063 4.32 148.143 4.28C148.223 4.24 148.283 4.20667 148.323 4.18C148.496 4.08667 148.976 4.02 149.763 3.98C150.016 3.96667 150.203 3.94 150.323 3.9ZM157.423 4.2C157.569 4.06667 157.769 4.06667 158.023 4.2C158.169 4.28 158.276 4.32 158.343 4.32C158.449 4.32 158.529 4.41333 158.583 4.6C158.636 4.77333 158.689 5.11333 158.743 5.62C158.756 5.79333 158.743 6.19333 158.703 6.82C158.676 7.44667 158.663 7.8 158.663 7.88C158.663 7.98667 158.663 8.14 158.663 8.34C158.649 8.58 158.643 8.84667 158.643 9.14C158.643 9.43333 158.616 9.66 158.563 9.82C158.509 9.96667 158.503 10.1733 158.543 10.44C158.583 10.6933 158.596 10.92 158.583 11.12C158.556 11.3067 158.563 11.4533 158.603 11.56C158.643 11.68 158.643 11.9933 158.603 12.5C158.576 13.0067 158.536 13.3067 158.483 13.4C158.283 13.68 158.103 13.86 157.943 13.94C157.783 14.0067 157.603 13.9933 157.403 13.9C157.283 13.8333 157.196 13.7667 157.143 13.7C157.103 13.62 157.083 13.5067 157.083 13.36C157.083 13.1867 157.049 13.02 156.983 12.86C156.916 12.66 156.896 12.4933 156.923 12.36C156.936 12.2267 156.916 11.9467 156.863 11.52C156.796 11.0933 156.789 10.8267 156.842 10.72C156.936 10.5467 156.949 10.3067 156.883 10C156.843 9.85333 156.856 9.70667 156.923 9.56C156.989 9.4 157.009 9.18667 156.983 8.92C156.929 8.52 156.929 8.06 156.983 7.54C157.103 6.51333 157.143 5.75333 157.103 5.26C157.089 5.06 157.109 4.85333 157.163 4.64C157.229 4.42667 157.316 4.28 157.423 4.2ZM162.697 4.18C162.95 3.98 163.137 3.86 163.257 3.82C163.39 3.76667 163.517 3.75333 163.637 3.78C163.73 3.79333 163.963 3.81333 164.337 3.84C164.99 3.89333 165.423 3.94667 165.637 4C165.85 4.05333 166.03 4.14 166.177 4.26C166.283 4.35333 166.41 4.41333 166.557 4.44C166.757 4.48 166.923 4.57333 167.057 4.72C167.19 4.85333 167.463 5.24 167.877 5.88C168.143 6.29333 168.27 6.72667 168.257 7.18C168.257 7.62 168.117 8.16 167.837 8.8C167.73 9.05333 167.65 9.26667 167.597 9.44C167.517 9.73333 167.37 9.88 167.157 9.88C166.97 9.88 166.75 9.98 166.497 10.18C165.923 10.6333 165.31 10.9333 164.657 11.08C164.003 11.2267 163.47 11.1867 163.057 10.96C162.91 10.8667 162.723 10.7867 162.497 10.72C162.283 10.6533 162.13 10.5933 162.037 10.54C161.943 10.4733 161.783 10.3267 161.557 10.1C161.317 9.87333 161.157 9.68 161.077 9.52C160.997 9.36 160.897 9.07333 160.777 8.66C160.67 8.24667 160.63 7.95333 160.657 7.78C160.67 7.60667 160.683 7.38 160.697 7.1C160.71 6.82 160.777 6.52667 160.897 6.22C161.057 5.84667 161.17 5.58 161.237 5.42C161.33 5.18 161.41 5.02 161.477 4.94C161.557 4.84667 161.703 4.74667 161.917 4.64C162.17 4.52 162.43 4.36667 162.697 4.18ZM165.597 5.66C165.383 5.58 165.03 5.54 164.537 5.54C164.057 5.54 163.697 5.58667 163.457 5.68C163.043 5.82667 162.73 6.2 162.517 6.8C162.303 7.38667 162.297 7.90667 162.497 8.36C162.59 8.54667 162.683 8.75333 162.777 8.98C162.83 9.15333 162.877 9.25333 162.917 9.28C162.97 9.30667 163.097 9.32667 163.297 9.34C163.523 9.35333 163.75 9.41333 163.977 9.52C164.19 9.62667 164.357 9.66667 164.477 9.64C164.597 9.6 164.843 9.46 165.217 9.22C165.763 8.88667 166.037 8.64667 166.037 8.5C166.037 8.46 166.11 8.36 166.257 8.2C166.363 8.05333 166.43 7.92667 166.457 7.82C166.497 7.7 166.51 7.5 166.497 7.22C166.483 6.95333 166.45 6.78 166.397 6.7C166.317 6.60667 166.243 6.50667 166.177 6.4C166.083 6.28 166.037 6.17333 166.037 6.08C166.037 5.90667 165.89 5.76667 165.597 5.66ZM170.197 4.58C170.357 4.48667 170.597 4.49333 170.917 4.6C171.237 4.69333 171.41 4.81333 171.437 4.96C171.623 5.90667 171.683 6.5 171.617 6.74C171.59 6.88667 171.59 7.05333 171.617 7.24C171.63 7.46667 171.637 7.98667 171.637 8.8C171.61 9.92 171.603 10.9867 171.617 12C171.63 12.7333 171.617 13.1867 171.577 13.36C171.537 13.52 171.423 13.6867 171.237 13.86C170.93 14.1133 170.677 14.22 170.477 14.18C170.29 14.1267 170.19 13.94 170.177 13.62C170.177 13.4467 170.137 13.2533 170.057 13.04C169.977 12.84 169.95 12.6867 169.977 12.58C170.017 12.46 170.017 12.2067 169.977 11.82C169.95 11.42 169.957 11.16 169.997 11.04C170.023 10.92 170.003 10.7267 169.937 10.46C169.87 10.1933 169.857 9.97333 169.897 9.8C169.937 9.61333 169.93 9.35333 169.877 9.02C169.823 8.68667 169.803 8.5 169.817 8.46C169.87 8.39333 169.897 7.96 169.897 7.16C169.897 6.93333 169.877 6.55333 169.837 6.02C169.81 5.55333 169.817 5.22 169.857 5.02C169.91 4.82 170.023 4.67333 170.197 4.58ZM163.557 12.3C163.703 12.2867 163.857 12.28 164.017 12.28C164.177 12.2667 164.317 12.26 164.437 12.26C164.57 12.2467 164.643 12.24 164.657 12.24C164.79 12.24 164.95 12.28 165.137 12.36C165.283 12.44 165.39 12.48 165.457 12.48C165.537 12.48 165.717 12.46 165.997 12.42C167.343 12.1933 168.017 12.4267 168.017 13.12C168.017 13.2267 167.95 13.3733 167.817 13.56C167.683 13.7333 167.557 13.8533 167.437 13.92C167.357 13.96 167.017 13.9867 166.417 14C165.83 14 165.457 13.98 165.297 13.94C165.15 13.9 164.95 13.9 164.697 13.94C164.443 13.98 164.25 13.98 164.117 13.94C163.983 13.9133 163.61 13.8867 162.997 13.86C162.81 13.86 162.557 13.8533 162.237 13.84C161.917 13.8267 161.743 13.82 161.717 13.82C161.41 13.82 161.17 13.7533 160.997 13.62C160.823 13.4733 160.737 13.28 160.737 13.04C160.737 12.56 161.19 12.32 162.097 12.32C162.497 12.3333 162.983 12.3267 163.557 12.3ZM183.783 2.12C183.97 2.06667 184.077 2.04667 184.103 2.06C184.143 2.07333 184.357 2.1 184.743 2.14C185.423 2.19333 185.843 2.23333 186.003 2.26C186.177 2.28667 186.397 2.36667 186.663 2.5C187.05 2.67333 187.317 2.78 187.463 2.82C187.903 2.96667 188.397 3.7 188.943 5.02C189.17 5.54 189.09 6.12667 188.703 6.78C188.583 6.96667 188.503 7.13333 188.463 7.28C188.45 7.32 188.43 7.39333 188.403 7.5C188.377 7.59333 188.363 7.66 188.363 7.7C188.323 7.83333 188.25 7.94 188.143 8.02C187.877 8.24667 187.737 8.36 187.723 8.36C187.283 8.74667 186.503 9.04667 185.383 9.26C185.223 9.28667 184.89 9.30667 184.383 9.32C183.983 9.33333 183.73 9.32667 183.623 9.3C183.53 9.27333 183.303 9.16 182.943 8.96C182.783 8.88 182.65 8.84 182.543 8.84C182.41 8.84 182.283 8.80667 182.163 8.74C182.057 8.66 181.897 8.50667 181.683 8.28C181.337 7.88 181.11 7.5 181.003 7.14C180.91 6.78 180.883 6.17333 180.923 5.32C180.937 5.01333 181.01 4.74 181.143 4.5C181.263 4.27333 181.397 4.02 181.543 3.74C181.677 3.48667 181.797 3.30667 181.903 3.2C182.01 3.08 182.183 2.96667 182.423 2.86C182.677 2.74 182.923 2.6 183.163 2.44C183.417 2.28 183.623 2.17333 183.783 2.12ZM184.903 3.74C184.743 3.68667 184.503 3.69333 184.183 3.76C183.863 3.82667 183.637 3.92667 183.503 4.06C183.437 4.12667 183.317 4.23333 183.143 4.38C183.037 4.47333 182.963 4.54667 182.923 4.6C182.897 4.64 182.877 4.72 182.863 4.84C182.837 5.02667 182.79 5.16667 182.723 5.26C182.577 5.46 182.503 5.7 182.503 5.98C182.517 6.24667 182.597 6.48667 182.743 6.7C182.797 6.79333 182.863 6.94 182.943 7.14C183.01 7.31333 183.063 7.42 183.103 7.46C183.157 7.48667 183.303 7.51333 183.543 7.54C183.783 7.56667 184.01 7.62667 184.223 7.72C184.837 8.01333 185.477 7.90667 186.143 7.4C186.29 7.29333 186.417 7.21333 186.523 7.16C186.723 7.05333 186.843 6.88 186.883 6.64C186.91 6.49333 186.97 6.36667 187.063 6.26C187.17 6.15333 187.237 5.95333 187.263 5.66C187.29 5.42 187.29 5.26 187.263 5.18C187.25 5.1 187.183 4.99333 187.063 4.86C186.93 4.71333 186.837 4.56 186.783 4.4C186.703 4.21333 186.583 4.08 186.423 4C186.263 3.92 185.997 3.86667 185.623 3.84C185.237 3.81333 184.997 3.78 184.903 3.74ZM180.663 10.2C180.903 10.1733 181.097 10.1667 181.243 10.18C181.337 10.2067 181.597 10.2267 182.023 10.24C183.21 10.2667 183.877 10.3 184.023 10.34C184.143 10.38 184.283 10.3667 184.443 10.3C184.603 10.22 184.823 10.2 185.103 10.24C185.597 10.3067 186.23 10.3533 187.003 10.38C187.777 10.3933 188.29 10.3733 188.543 10.32C188.73 10.28 189.003 10.2667 189.363 10.28C189.737 10.28 189.943 10.3 189.983 10.34C190.037 10.38 190.083 10.4667 190.123 10.6C190.177 10.7467 190.243 10.86 190.323 10.94C190.47 11.1267 190.49 11.3133 190.383 11.5C190.277 11.6733 190.07 11.7933 189.763 11.86C189.67 11.8867 189.537 11.9267 189.363 11.98C189.217 12.0467 189.057 12.06 188.883 12.02C188.603 11.9533 187.99 11.92 187.043 11.92C186.11 11.9067 185.61 11.9333 185.543 12C185.45 12.0933 185.403 12.9333 185.403 14.52C185.39 14.9867 185.363 15.2733 185.323 15.38C185.283 15.5 185.163 15.6 184.963 15.68C184.777 15.7733 184.637 15.8133 184.543 15.8C184.45 15.7867 184.303 15.7133 184.103 15.58C183.917 15.46 183.797 15.3267 183.743 15.18C183.69 15.0467 183.67 14.8333 183.683 14.54C183.737 13.74 183.797 12.9933 183.863 12.3C183.877 12.1533 183.877 12.06 183.863 12.02C183.85 11.98 183.817 11.9467 183.763 11.92C183.697 11.8667 183.47 11.8467 183.083 11.86C182.71 11.86 182.39 11.88 182.123 11.92C181.883 11.96 181.683 11.9667 181.523 11.94C181.283 11.9133 180.983 11.9067 180.623 11.92C180.49 11.92 180.337 11.8867 180.163 11.82C180.003 11.7533 179.903 11.68 179.863 11.6C179.823 11.52 179.757 11.42 179.663 11.3C179.543 11.18 179.497 11.04 179.523 10.88C179.55 10.7067 179.63 10.62 179.763 10.62C179.803 10.62 179.903 10.5533 180.063 10.42C180.223 10.2867 180.423 10.2133 180.663 10.2ZM196.238 2.12C197.891 2.06667 198.838 2.1 199.078 2.22C199.211 2.3 199.351 2.34 199.498 2.34C199.791 2.38 200.058 2.60667 200.298 3.02C200.538 3.42 200.591 3.72667 200.458 3.94C200.418 4.00667 200.311 4.20667 200.138 4.54C200.004 4.82 199.864 5.05333 199.718 5.24C199.558 5.46667 199.504 5.64667 199.558 5.78C199.624 5.9 199.844 6.06667 200.218 6.28C200.458 6.42667 200.651 6.58 200.798 6.74C200.958 6.9 201.104 7.00667 201.238 7.06C201.478 7.15333 201.598 7.36 201.598 7.68C201.598 8 201.438 8.22 201.118 8.34C200.811 8.46 200.491 8.42667 200.158 8.24C199.918 8.12 199.764 8.06 199.698 8.06C199.404 8.04667 198.918 7.70667 198.238 7.04C198.051 6.85333 197.904 6.74 197.798 6.7C197.704 6.66 197.598 6.68 197.478 6.76C197.358 6.82667 197.184 6.89333 196.958 6.96C196.718 7.04 196.504 7.14 196.318 7.26C196.104 7.38 195.991 7.44 195.978 7.44C195.964 7.44 195.864 7.50667 195.678 7.64C195.478 7.77333 195.224 7.92 194.918 8.08C194.624 8.24 194.431 8.32667 194.338 8.34C194.258 8.35333 194.138 8.43333 193.978 8.58C193.791 8.72667 193.578 8.81333 193.338 8.84C193.098 8.85333 192.958 8.79333 192.918 8.66C192.904 8.59333 192.824 8.49333 192.678 8.36C192.531 8.22667 192.471 8.09333 192.498 7.96C192.524 7.82667 192.658 7.62 192.898 7.34C193.071 7.14 193.238 7.01333 193.398 6.96C193.571 6.92 193.778 6.82 194.018 6.66C194.271 6.5 194.631 6.31333 195.098 6.1C195.524 5.91333 195.858 5.75333 196.098 5.62C196.324 5.48667 196.544 5.37333 196.758 5.28C196.984 5.14667 197.171 5.00667 197.318 4.86C197.478 4.7 197.658 4.58 197.858 4.5C198.004 4.42 198.144 4.30667 198.278 4.16C198.411 4.01333 198.464 3.9 198.438 3.82C198.398 3.7 198.071 3.63333 197.458 3.62C196.844 3.59333 196.391 3.63333 196.098 3.74C195.858 3.82 195.478 3.86 194.958 3.86C194.438 3.87333 194.091 3.90667 193.918 3.96C193.758 4.01333 193.571 4.02667 193.358 4C193.144 3.97333 192.978 3.91333 192.858 3.82C192.764 3.76667 192.758 3.54667 192.838 3.16C192.851 3.02667 192.911 2.9 193.018 2.78C193.138 2.66 193.244 2.6 193.338 2.6C193.431 2.6 193.558 2.56 193.718 2.48C193.891 2.38667 194.078 2.34 194.278 2.34C194.504 2.32667 194.711 2.29333 194.898 2.24C195.098 2.18667 195.544 2.14667 196.238 2.12ZM192.058 10.08L192.878 10.12C193.411 10.1467 193.744 10.16 193.877 10.16C194.011 10.16 194.484 10.18 195.298 10.22C196.111 10.2467 196.578 10.2333 196.698 10.18C196.831 10.1267 196.991 10.1133 197.178 10.14C197.338 10.18 197.518 10.2 197.718 10.2C197.904 10.2 198.124 10.2267 198.378 10.28C198.631 10.3333 199.111 10.34 199.818 10.3C200.644 10.26 201.278 10.24 201.718 10.24C201.931 10.2533 202.071 10.28 202.138 10.32C202.204 10.36 202.318 10.4933 202.478 10.72C202.691 11 202.738 11.2533 202.618 11.48C202.511 11.6933 202.264 11.8267 201.878 11.88C201.784 11.8933 201.658 11.9267 201.497 11.98C201.351 12.02 201.198 12.0133 201.037 11.96C200.878 11.92 200.598 11.9 200.198 11.9C199.798 11.9 199.524 11.8733 199.378 11.82C199.258 11.7667 199.104 11.7533 198.918 11.78C198.598 11.8333 198.311 11.84 198.058 11.8C198.044 11.8 198.038 11.7933 198.038 11.78C197.798 11.74 197.651 11.8267 197.598 12.04C197.544 12.2533 197.498 13.0067 197.458 14.3C197.458 14.3267 197.458 14.3467 197.458 14.36C197.431 14.92 197.398 15.2667 197.358 15.4C197.331 15.5467 197.238 15.66 197.078 15.74C196.878 15.8467 196.671 15.8667 196.458 15.8C196.258 15.7467 196.071 15.6133 195.898 15.4C195.844 15.32 195.804 15.1267 195.778 14.82C195.764 14.5 195.778 14.2867 195.818 14.18C195.858 14.0867 195.878 13.82 195.878 13.38C195.891 12.94 195.924 12.6067 195.978 12.38C196.044 12.14 196.077 12 196.077 11.96C196.077 11.8533 195.924 11.7733 195.618 11.72C195.324 11.6533 195.031 11.6467 194.738 11.7C194.658 11.7133 194.524 11.7333 194.338 11.76C194.151 11.7867 194.031 11.8067 193.978 11.82C193.711 11.86 193.491 11.86 193.318 11.82C193.144 11.78 192.938 11.7733 192.698 11.8C192.231 11.84 191.918 11.7333 191.758 11.48C191.651 11.32 191.578 11.2067 191.538 11.14C191.444 11.02 191.411 10.9133 191.438 10.82C191.478 10.7133 191.584 10.5733 191.758 10.4L192.058 10.08Z" fill="white"/>
</svg>
