<svg width="51" height="19" viewBox="0 0 51 19" fill="none" xmlns="http://www.w3.org/2000/svg">
<path d="M14.96 11.14C14.2933 11.3667 13.5067 11.5533 12.6 11.7C11.6933 11.8467 10.7667 11.9333 9.82 11.96V14.82H16.72V17.02H0.48V14.82H7.42V11.9C5.51333 11.7 4.24 11.2333 3.6 10.5C3.02667 9.87333 2.74 9.15333 2.74 8.34C2.74 8.03333 2.76667 7.74667 2.82 7.48H2.08V5.28H14.36V7.48H5.28C5.18667 7.8 5.14 8.08 5.14 8.32C5.14 8.62667 5.22667 8.87333 5.4 9.06C5.6 9.28667 6.03333 9.46 6.7 9.58C7.38 9.7 8.18 9.76 9.1 9.76C10.2333 9.76 11.34 9.67333 12.42 9.5C13.5133 9.31333 14.36 9.05333 14.96 8.72V11.14ZM2.08 1.18H14.96V3.38H2.08V1.18ZM32.447 0.799999V18.24H30.047V0.799999H32.447ZM18.107 7.5H23.987C24.5337 7.5 24.9337 7.34667 25.187 7.04C25.4404 6.73333 25.567 6.34667 25.567 5.88C25.567 5.53333 25.507 5.2 25.387 4.88C25.267 4.54667 25.1204 4.29333 24.947 4.12C24.467 3.64 23.827 3.4 23.027 3.4C22.0537 3.4 20.867 3.77333 19.467 4.52L18.307 2.6C19.987 1.68 21.587 1.22 23.107 1.22C24.587 1.22 25.7737 1.66667 26.667 2.56C27.067 2.97333 27.3804 3.47333 27.607 4.06C27.8337 4.64667 27.947 5.24667 27.947 5.86C27.947 6.54 27.8004 7.17333 27.507 7.76C27.227 8.34667 26.787 8.82 26.187 9.18C25.6004 9.52667 24.867 9.7 23.987 9.7H21.587C21.3337 10.14 21.1337 10.5533 20.987 10.94C20.8404 11.3133 20.767 11.68 20.767 12.04C20.767 12.56 20.947 12.9933 21.307 13.34C21.707 13.7267 22.3337 13.92 23.187 13.92C23.9337 13.92 24.7937 13.7733 25.767 13.48C26.7404 13.1867 27.687 12.8 28.607 12.32V14.8C27.727 15.1867 26.807 15.5 25.847 15.74C24.9004 15.98 24.0004 16.1 23.147 16.1C21.6137 16.1 20.4404 15.7 19.627 14.9C18.787 14.0733 18.367 13.12 18.367 12.04C18.367 11.32 18.5537 10.54 18.927 9.7H18.107V7.5ZM36.9039 13.34H46.0839C46.3239 13.34 46.5039 13.3067 46.6239 13.24C46.7439 13.1733 46.8039 13.0933 46.8039 13C46.8039 12.8267 46.6772 12.7 46.4239 12.62C46.0772 12.5 45.6039 12.4067 45.0039 12.34C44.4172 12.2733 43.7572 12.24 43.0239 12.24C41.2239 12.24 39.4639 12.44 37.7439 12.84L37.1839 10.68C38.9839 10.2667 40.8906 10.06 42.9039 10.06C43.8106 10.06 44.6372 10.1067 45.3839 10.2C46.1306 10.28 46.7306 10.3933 47.1839 10.54C47.8506 10.7667 48.3506 11.1 48.6839 11.54C49.0306 11.98 49.2039 12.46 49.2039 12.98C49.2039 13.42 49.0772 13.84 48.8239 14.24C48.5839 14.6267 48.2239 14.94 47.7439 15.18C47.2772 15.42 46.7239 15.54 46.0839 15.54H40.2039C40.0839 15.66 40.0239 15.7867 40.0239 15.92C40.0239 16.1467 40.1906 16.3333 40.5239 16.48C40.9906 16.6933 41.7439 16.8 42.7839 16.8C43.8639 16.8 45.0372 16.6867 46.3039 16.46C47.5706 16.2333 48.6906 15.9267 49.6639 15.54L50.5439 17.58C49.4906 18.0067 48.2572 18.3467 46.8439 18.6C45.4439 18.8667 44.1106 19 42.8439 19C41.4039 19 40.2972 18.8267 39.5239 18.48C38.8839 18.1867 38.4039 17.8133 38.0839 17.36C37.7772 16.92 37.6239 16.4533 37.6239 15.96C37.6239 15.8667 37.6372 15.7267 37.6639 15.54H36.9039V13.34ZM49.2439 0.799999V9.84H46.8439V8.42H44.0839V6.02H46.8439V4.62H44.0839V2.22H46.8439V0.799999H49.2439ZM37.2639 6.52C37.2639 6.88 37.4172 7.15333 37.7239 7.34C38.0439 7.51333 38.4572 7.6 38.9639 7.6C39.2039 7.6 39.4506 7.58 39.7039 7.54C40.2239 7.47333 40.5906 7.30667 40.8039 7.04C41.0306 6.77333 41.1439 6.32 41.1439 5.68V5.42C39.8772 5.42 38.9106 5.5 38.2439 5.66C37.5906 5.82 37.2639 6.10667 37.2639 6.52ZM34.8639 1.32H37.2639V3.68C38.1706 3.4 39.3772 3.24667 40.8839 3.22C40.7506 2.64667 40.5239 2.01333 40.2039 1.32H42.7839C43.2906 2.64 43.5439 4.09333 43.5439 5.68C43.5439 6.88 43.2306 7.82 42.6039 8.5C41.9906 9.18 41.1172 9.59333 39.9839 9.74C39.7039 9.78 39.4239 9.8 39.1439 9.8C37.9706 9.8 36.9639 9.52667 36.1239 8.98C35.2839 8.43333 34.8639 7.61333 34.8639 6.52V1.32Z" fill="white"/>
</svg>
