<svg width="289" height="32" viewBox="0 0 289 32" fill="none" xmlns="http://www.w3.org/2000/svg">
<rect y="13" width="250" height="7" rx="3.5" fill="white"/>
<path d="M268.809 20.1172C266.945 20.1172 265.609 19.0918 265.574 17.6094H267.355C267.385 18.2422 268 18.6582 268.82 18.6641C269.664 18.6582 270.268 18.1895 270.262 17.5039C270.268 16.8125 269.652 16.3262 268.656 16.3203H267.871V15.0195H268.656C269.494 15.0195 270.08 14.5625 270.074 13.8945C270.08 13.2441 269.582 12.7988 268.832 12.8047C268.082 12.7988 267.467 13.2207 267.438 13.8711H265.75C265.779 12.4121 267.092 11.3984 268.832 11.3984C270.602 11.3984 271.779 12.4473 271.773 13.7891C271.779 14.7383 271.117 15.4121 270.168 15.582V15.6523C271.416 15.8047 272.102 16.5605 272.09 17.6211C272.102 19.0742 270.725 20.1172 268.809 20.1172Z" fill="white"/>
<path d="M278.692 11.1172L275.95 21.2773H274.461L277.192 11.1172H278.692ZM284.286 20.1172C282.422 20.1172 281.087 19.0918 281.051 17.6094H282.833C282.862 18.2422 283.477 18.6582 284.297 18.6641C285.141 18.6582 285.745 18.1895 285.739 17.5039C285.745 16.8125 285.13 16.3262 284.133 16.3203H283.348V15.0195H284.133C284.971 15.0195 285.557 14.5625 285.551 13.8945C285.557 13.2441 285.059 12.7988 284.309 12.8047C283.559 12.7988 282.944 13.2207 282.915 13.8711H281.227C281.256 12.4121 282.569 11.3984 284.309 11.3984C286.079 11.3984 287.256 12.4473 287.251 13.7891C287.256 14.7383 286.594 15.4121 285.645 15.582V15.6523C286.893 15.8047 287.579 16.5605 287.567 17.6211C287.579 19.0742 286.202 20.1172 284.286 20.1172Z" fill="#8D68FF"/>
</svg>
