<svg width="289" height="32" viewBox="0 0 289 32" fill="none" xmlns="http://www.w3.org/2000/svg">
<path d="M271.324 11.5156V20H269.555V13.1914H269.508L267.562 14.4102V12.8516L269.66 11.5156H271.324Z" fill="white"/>
<path d="M278.653 11.1172L275.91 21.2773H274.422L277.153 11.1172H278.653ZM284.247 20.1172C282.383 20.1172 281.047 19.0918 281.012 17.6094H282.794C282.823 18.2422 283.438 18.6582 284.258 18.6641C285.102 18.6582 285.706 18.1895 285.7 17.5039C285.706 16.8125 285.09 16.3262 284.094 16.3203H283.309V15.0195H284.094C284.932 15.0195 285.518 14.5625 285.512 13.8945C285.518 13.2441 285.02 12.7988 284.27 12.8047C283.52 12.7988 282.905 13.2207 282.876 13.8711H281.188C281.217 12.4121 282.53 11.3984 284.27 11.3984C286.04 11.3984 287.217 12.4473 287.212 13.7891C287.217 14.7383 286.555 15.4121 285.606 15.582V15.6523C286.854 15.8047 287.54 16.5605 287.528 17.6211C287.54 19.0742 286.163 20.1172 284.247 20.1172Z" fill="#8D68FF"/>
<rect y="13" width="250" height="7" rx="3.5" fill="#8D68FF"/>
<rect y="13" width="84" height="7" rx="3.5" fill="white"/>
</svg>
