<svg width="288" height="32" viewBox="0 0 288 32" fill="none" xmlns="http://www.w3.org/2000/svg">
<path d="M265.668 20L265.656 18.7227L268.703 15.9219C269.494 15.166 269.922 14.6973 269.922 14.0234C269.922 13.2676 269.354 12.7988 268.574 12.8047C267.777 12.7988 267.256 13.3027 267.262 14.1172H265.586C265.58 12.459 266.811 11.3984 268.598 11.3984C270.414 11.3984 271.621 12.4355 271.621 13.9062C271.621 14.873 271.152 15.6641 269.406 17.2461L268.117 18.5V18.5469H271.738V20H265.668Z" fill="white"/>
<path d="M278.352 11.1172L275.61 21.2773H274.121L276.852 11.1172H278.352ZM283.946 20.1172C282.083 20.1172 280.747 19.0918 280.712 17.6094H282.493C282.522 18.2422 283.137 18.6582 283.958 18.6641C284.801 18.6582 285.405 18.1895 285.399 17.5039C285.405 16.8125 284.79 16.3262 283.794 16.3203H283.008V15.0195H283.794C284.631 15.0195 285.217 14.5625 285.212 13.8945C285.217 13.2441 284.719 12.7988 283.969 12.8047C283.219 12.7988 282.604 13.2207 282.575 13.8711H280.887C280.917 12.4121 282.229 11.3984 283.969 11.3984C285.739 11.3984 286.917 12.4473 286.911 13.7891C286.917 14.7383 286.255 15.4121 285.305 15.582V15.6523C286.553 15.8047 287.239 16.5605 287.227 17.6211C287.239 19.0742 285.862 20.1172 283.946 20.1172Z" fill="#8D68FF"/>
<path d="M246.5 13H3.5C1.567 13 0 14.567 0 16.5C0 18.433 1.567 20 3.5 20H246.5C248.433 20 250 18.433 250 16.5C250 14.567 248.433 13 246.5 13Z" fill="#8D68FF"/>
<path d="M121.5 13H3.5C1.567 13 0 14.567 0 16.5C0 18.433 1.567 20 3.5 20H121.5C123.433 20 125 18.433 125 16.5C125 14.567 123.433 13 121.5 13Z" fill="white"/>
<path d="M246.5 13H3.5C1.567 13 0 14.567 0 16.5C0 18.433 1.567 20 3.5 20H246.5C248.433 20 250 18.433 250 16.5C250 14.567 248.433 13 246.5 13Z" fill="#8D68FF"/>
<path d="M164.5 13H3.5C1.567 13 0 14.567 0 16.5C0 18.433 1.567 20 3.5 20H164.5C166.433 20 168 18.433 168 16.5C168 14.567 166.433 13 164.5 13Z" fill="white"/>
</svg>
