<svg width="72" height="20" viewBox="0 0 72 20" fill="none" xmlns="http://www.w3.org/2000/svg">
<g clip-path="url(#clip0_1619_2180)">
<path d="M14.84 0.800049V8.32005H16.76V10.72H14.84V18.24H12.44V0.800049H14.84ZM11.24 14.5601C10.24 14.9867 9.28668 15.3334 8.38001 15.6C7.48668 15.8533 6.64001 15.98 5.84001 15.98C3.60001 15.98 2.15334 14.8267 1.50001 12.5201C1.14001 11.2401 0.960007 9.72005 0.960007 7.96005C0.960007 6.30672 1.12668 4.09338 1.46001 1.32005H3.86001C3.51334 4.09338 3.34001 6.29338 3.34001 7.92005C3.34001 9.52005 3.50001 10.8533 3.82001 11.92C4.00668 12.5868 4.28668 13.0667 4.66001 13.36C5.04668 13.6533 5.52001 13.8 6.08001 13.8C6.68001 13.8 7.36001 13.6667 8.12001 13.4C8.89334 13.12 9.93334 12.6933 11.24 12.12V14.5601ZM21.487 6.34005C21.487 7.00672 21.687 7.56005 22.087 8.00005C22.487 8.42672 22.9937 8.64005 23.607 8.64005H23.807C24.4204 8.64005 24.927 8.42672 25.327 8.00005C25.727 7.56005 25.927 7.00672 25.927 6.34005V5.82005C25.927 5.14005 25.727 4.58672 25.327 4.16005C24.9404 3.73338 24.4337 3.52005 23.807 3.52005H23.607C22.9804 3.52005 22.467 3.73338 22.067 4.16005C21.6804 4.58672 21.487 5.14005 21.487 5.82005V6.34005ZM19.087 5.82005C19.087 4.99338 19.2804 4.24005 19.667 3.56005C20.0537 2.86672 20.587 2.32005 21.267 1.92005C21.9604 1.52005 22.7404 1.32005 23.607 1.32005H23.807C24.6737 1.32005 25.447 1.52005 26.127 1.92005C26.8204 2.32005 27.3604 2.86672 27.747 3.56005C28.1337 4.24005 28.327 4.99338 28.327 5.82005V6.34005C28.327 7.15338 28.1337 7.90672 27.747 8.60005C27.3604 9.28005 26.8204 9.82672 26.127 10.24C25.447 10.64 24.6737 10.84 23.807 10.84H23.607C22.7404 10.84 21.9604 10.64 21.267 10.24C20.587 9.82672 20.0537 9.28005 19.667 8.60005C19.2804 7.90672 19.087 7.15338 19.087 6.34005V5.82005ZM33.047 0.800049V18.24H30.647V14.62C28.1804 15.6333 25.2937 16.14 21.987 16.14C20.987 16.14 19.8004 16.08 18.427 15.96L18.627 13.76C19.827 13.8667 20.9737 13.92 22.067 13.92C25.427 13.92 28.287 13.34 30.647 12.18V0.800049H33.047ZM43.298 15.3C43.298 15.6333 43.458 15.92 43.778 16.16C44.098 16.4 44.578 16.5733 45.218 16.68C46.098 16.8001 46.8313 16.8601 47.418 16.8601C48.0313 16.8601 48.7646 16.8001 49.618 16.68C50.258 16.5733 50.738 16.4 51.058 16.16C51.378 15.92 51.538 15.6333 51.538 15.3V15.14C51.538 14.7668 51.378 14.4533 51.058 14.2C50.7513 13.9333 50.338 13.8 49.818 13.8H45.018C44.498 13.8 44.078 13.9333 43.758 14.2C43.4513 14.4533 43.298 14.7668 43.298 15.14V15.3ZM40.898 15.14C40.898 14.5 41.0713 13.9134 41.418 13.38C41.778 12.8333 42.2713 12.4 42.898 12.08C43.5246 11.76 44.2313 11.6 45.018 11.6H49.818C50.6046 11.6 51.3113 11.76 51.938 12.08C52.5646 12.4 53.0513 12.8333 53.398 13.38C53.758 13.9134 53.938 14.5 53.938 15.14V15.3C53.938 16.2467 53.5713 17.0267 52.838 17.64C52.1046 18.2667 51.1646 18.6667 50.018 18.84C49.0846 18.9734 48.218 19.0401 47.418 19.0401C46.6313 19.0401 45.7646 18.9734 44.818 18.84C43.6713 18.6667 42.7313 18.2667 41.998 17.64C41.2646 17.0267 40.898 16.2467 40.898 15.3V15.14ZM53.658 0.800049V11.24H51.258V6.38005H49.138V3.98005H51.258V0.800049H53.658ZM40.238 1.32005H49.178C48.858 3.09338 48.458 4.60005 47.978 5.84005C48.9513 6.37338 49.438 7.24005 49.438 8.44005C49.438 9.24005 49.2446 10.0533 48.858 10.88H46.118C46.4113 10.4268 46.638 10.0267 46.798 9.68005C46.9713 9.32005 47.058 8.98672 47.058 8.68005C47.058 8.44005 46.9913 8.23338 46.858 8.06005C45.698 9.86005 44.1846 10.84 42.318 11L41.958 11.0201C41.358 11.0201 40.8313 10.9067 40.378 10.68C39.9246 10.4534 39.578 10.1533 39.338 9.78005C39.1113 9.39338 38.998 8.98005 38.998 8.54005C38.998 8.04672 39.1446 7.57338 39.438 7.12005C39.7446 6.66672 40.2113 6.28005 40.838 5.96005C41.478 5.62672 42.2713 5.40672 43.218 5.30005C43.9113 5.23338 44.4713 5.20005 44.898 5.20005C45.1113 5.20005 45.3913 5.21338 45.738 5.24005C45.9513 4.70672 46.138 4.13338 46.298 3.52005H40.238V1.32005ZM41.938 8.80005C42.8846 8.80005 43.738 8.34005 44.498 7.42005L43.458 7.50005C42.8713 7.56672 42.378 7.71338 41.978 7.94005C41.578 8.15338 41.378 8.35338 41.378 8.54005C41.378 8.71338 41.5646 8.80005 41.938 8.80005ZM59.7748 7.24005C59.7748 7.98672 60.1282 8.52672 60.8348 8.86005C61.5548 9.19338 62.4615 9.36005 63.5548 9.36005C63.9548 9.36005 64.3415 9.34005 64.7148 9.30005C65.7948 9.19338 66.5882 8.94672 67.0948 8.56005C67.6015 8.17338 67.8548 7.58672 67.8548 6.80005V6.62005C66.9348 6.31338 65.9882 6.06672 65.0148 5.88005C64.0548 5.68005 63.1882 5.58005 62.4148 5.58005C60.6548 5.58005 59.7748 6.13338 59.7748 7.24005ZM71.9348 17.0201H55.6948V14.82H62.6348V11.5C61.1548 11.3667 59.9082 10.9668 58.8948 10.3C57.8815 9.63338 57.3748 8.61338 57.3748 7.24005V1.12005H59.7748V3.84005C60.5348 3.58672 61.4148 3.46005 62.4148 3.46005C64.0548 3.46005 65.8682 3.74672 67.8548 4.32005V1.38005H70.2548V6.80005C70.2548 8.21338 69.7815 9.31338 68.8348 10.1C67.8882 10.8734 66.6215 11.34 65.0348 11.5V14.82H71.9348V17.0201Z" fill="white"/>
</g>
<defs>
<clipPath id="clip0_1619_2180">
<rect width="72" height="20" fill="white"/>
</clipPath>
</defs>
</svg>
