<svg width="104" height="104" viewBox="0 0 104 104" fill="none" xmlns="http://www.w3.org/2000/svg">
<g clip-path="url(#clip0_1619_2209)">
<path fill-rule="evenodd" clip-rule="evenodd" d="M73.8946 29.5063L63.6864 7.63315C58.9365 -2.54438 44.4644 -2.54438 39.7146 7.63315L29.5063 29.5063L7.63315 39.7146C-2.54438 44.4644 -2.54438 58.9365 7.63315 63.6864L29.5063 73.8946L39.7146 95.7678C44.4644 105.945 58.9365 105.945 63.6864 95.7678L73.8946 73.8946L95.7678 63.6864C105.945 58.9365 105.945 44.4644 95.7678 39.7146L73.8946 29.5063ZM56.6359 10.9236C54.68 6.7329 48.7209 6.7329 46.7651 10.9236L36.1979 33.5659C35.6569 34.7251 34.7251 35.6569 33.5659 36.1979L10.9236 46.7651C6.7329 48.7209 6.7329 54.68 10.9236 56.6359L33.5659 67.203C34.7251 67.744 35.6569 68.6758 36.1979 69.8351L46.7651 92.4773C48.7209 96.6681 54.68 96.6681 56.6359 92.4773L67.203 69.8351C67.744 68.6758 68.6758 67.744 69.8351 67.203L92.4773 56.6359C96.6681 54.68 96.6681 48.7209 92.4773 46.7651L69.8351 36.1979C68.6758 35.6569 67.744 34.7251 67.203 33.5659L56.6359 10.9236Z" fill="white" fill-opacity="0.3"/>
<path d="M46.7652 10.9238C48.721 6.73308 54.6801 6.73308 56.6359 10.9238L67.2031 33.5661C67.7441 34.7253 68.6759 35.6571 69.8351 36.1981L92.4774 46.7653C96.6681 48.7211 96.6681 54.6802 92.4774 56.636L69.8351 67.2032C68.6759 67.7442 67.7441 68.676 67.2031 69.8352L56.6359 92.4775C54.6801 96.6683 48.721 96.6683 46.7652 92.4775L36.198 69.8352C35.657 68.676 34.7252 67.7442 33.566 67.2032L10.9237 56.636C6.73295 54.6802 6.73295 48.7211 10.9237 46.7653L33.566 36.1981C34.7252 35.6571 35.657 34.7253 36.198 33.5661L46.7652 10.9238Z" fill="#FFF950"/>
<path fill-rule="evenodd" clip-rule="evenodd" d="M58.751 9.93638L69.3182 32.5786C69.6273 33.241 70.1598 33.7735 70.8222 34.0827L93.4645 44.6498C99.4513 47.4439 99.4513 55.9569 93.4645 58.7509L70.8222 69.3181C70.1598 69.6272 69.6273 70.1597 69.3182 70.8221L58.751 93.4644C55.957 99.4511 47.444 99.4511 44.6499 93.4644L34.0828 70.8221C33.7736 70.1597 33.2412 69.6272 32.5788 69.3181L9.9365 58.7509C3.94972 55.9569 3.94972 47.4439 9.9365 44.6498L32.5788 34.0827C33.2412 33.7735 33.7736 33.241 34.0828 32.5786L44.6499 9.93638C47.444 3.94959 55.957 3.94959 58.751 9.93638ZM56.6359 10.9235C54.68 6.73278 48.7209 6.73278 46.7651 10.9235L36.1979 33.5658C35.6569 34.725 34.7251 35.6568 33.5659 36.1978L10.9236 46.765C6.7329 48.7208 6.7329 54.6799 10.9236 56.6357L33.5659 67.2029C34.7251 67.7439 35.6569 68.6757 36.1979 69.8349L46.7651 92.4772C48.7209 96.668 54.68 96.668 56.6359 92.4772L67.203 69.8349C67.744 68.6757 68.6758 67.7439 69.8351 67.2029L92.4773 56.6357C96.6681 54.6799 96.6681 48.7208 92.4773 46.765L69.8351 36.1978C68.6758 35.6568 67.744 34.725 67.203 33.5658L56.6359 10.9235Z" fill="#FFCC00"/>
</g>
<defs>
<clipPath id="clip0_1619_2209">
<rect width="104" height="104" fill="white"/>
</clipPath>
</defs>
</svg>
