<svg width="96" height="111" viewBox="0 0 96 111" fill="none" xmlns="http://www.w3.org/2000/svg">
<mask id="path-1-outside-1_1636_2748" maskUnits="userSpaceOnUse" x="0" y="-1" width="96" height="111" fill="black">
<rect fill="white" y="-1" width="96" height="111"/>
<path fill-rule="evenodd" clip-rule="evenodd" d="M31.1159 2.35593C21.7336 4.82058 15.1927 13.3015 15.1927 23.0022V31.2114C7.03328 38.1365 2 47.2933 2 56.4259C2 70.1591 13.3815 79.9715 29.6597 84.1031C27.5832 86.822 26.3855 89.9112 26.3855 92.9947C26.3855 101.871 36.3108 107.339 48.5542 107.339C60.7976 107.339 70.7229 101.871 70.7229 92.9947C70.7229 89.8196 69.453 86.6385 67.2614 83.8619C83.0462 79.5978 94 69.8985 94 56.4259C94 47.2447 88.913 38.0391 80.6768 31.1011V23.0022C80.6768 13.3015 74.136 4.82058 64.7537 2.35593C57.9869 0.578376 51.3685 5.68275 51.3685 12.6791V19.4891C50.2562 19.4169 49.1329 19.38 48 19.38C46.8228 19.38 45.656 19.4198 44.501 19.4977V12.6791C44.501 5.68275 37.8826 0.578376 31.1159 2.35593Z"/>
</mask>
<path fill-rule="evenodd" clip-rule="evenodd" d="M31.1159 2.35593C21.7336 4.82058 15.1927 13.3015 15.1927 23.0022V31.2114C7.03328 38.1365 2 47.2933 2 56.4259C2 70.1591 13.3815 79.9715 29.6597 84.1031C27.5832 86.822 26.3855 89.9112 26.3855 92.9947C26.3855 101.871 36.3108 107.339 48.5542 107.339C60.7976 107.339 70.7229 101.871 70.7229 92.9947C70.7229 89.8196 69.453 86.6385 67.2614 83.8619C83.0462 79.5978 94 69.8985 94 56.4259C94 47.2447 88.913 38.0391 80.6768 31.1011V23.0022C80.6768 13.3015 74.136 4.82058 64.7537 2.35593C57.9869 0.578376 51.3685 5.68275 51.3685 12.6791V19.4891C50.2562 19.4169 49.1329 19.38 48 19.38C46.8228 19.38 45.656 19.4198 44.501 19.4977V12.6791C44.501 5.68275 37.8826 0.578376 31.1159 2.35593Z" fill="white"/>
<path d="M31.1159 2.35593L30.6078 0.421559L31.1159 2.35593ZM15.1927 31.2114L16.4869 32.7362C16.9346 32.3562 17.1927 31.7987 17.1927 31.2114H15.1927ZM29.6597 84.1031L31.2492 85.317C31.657 84.7831 31.7694 84.0801 31.5485 83.4456C31.3276 82.8111 30.8029 82.3299 30.1517 82.1646L29.6597 84.1031ZM67.2614 83.8619L66.7398 81.9311C66.091 82.1063 65.5736 82.5958 65.3625 83.2339C65.1515 83.872 65.2751 84.5734 65.6915 85.101L67.2614 83.8619ZM80.6768 31.1011H78.6768C78.6768 31.691 78.9372 32.2507 79.3883 32.6307L80.6768 31.1011ZM64.7537 2.35593L64.2455 4.2903L64.7537 2.35593ZM51.3685 19.4891L51.239 21.4849C51.7907 21.5207 52.3327 21.3265 52.7362 20.9484C53.1396 20.5703 53.3685 20.042 53.3685 19.4891H51.3685ZM44.501 19.4977H42.501C42.501 20.0515 42.7307 20.5806 43.1352 20.9588C43.5398 21.337 44.0831 21.5305 44.6356 21.4932L44.501 19.4977ZM17.1927 23.0022C17.1927 14.2104 23.1207 6.52403 31.624 4.2903L30.6078 0.421559C20.3464 3.11712 13.1927 12.3926 13.1927 23.0022H17.1927ZM17.1927 31.2114V23.0022H13.1927V31.2114H17.1927ZM4 56.4259C4 48.03 8.64709 39.3901 16.4869 32.7362L13.8986 29.6866C5.41947 36.883 0 46.5566 0 56.4259H4ZM30.1517 82.1646C14.2448 78.1273 4 68.8026 4 56.4259H0C0 71.5155 12.5182 81.8158 29.1677 86.0416L30.1517 82.1646ZM28.3855 92.9947C28.3855 90.4335 29.3834 87.7601 31.2492 85.317L28.0702 82.8892C25.7831 85.8839 24.3855 89.3889 24.3855 92.9947H28.3855ZM48.5542 105.339C42.6983 105.339 37.5462 104.026 33.9292 101.794C30.3481 99.5829 28.3855 96.5706 28.3855 92.9947H24.3855C24.3855 98.2952 27.3856 102.455 31.828 105.197C36.2345 107.917 42.1667 109.339 48.5542 109.339V105.339ZM68.7229 92.9947C68.7229 96.5706 66.7604 99.5829 63.1793 101.794C59.5622 104.026 54.4101 105.339 48.5542 105.339V109.339C54.9417 109.339 60.874 107.917 65.2804 105.197C69.7228 102.455 72.7229 98.2952 72.7229 92.9947H68.7229ZM65.6915 85.101C67.6645 87.6006 68.7229 90.3573 68.7229 92.9947H72.7229C72.7229 89.2819 71.2415 85.6764 68.8313 82.6227L65.6915 85.101ZM92 56.4259C92 68.5708 82.1437 77.7699 66.7398 81.9311L67.783 85.7926C83.9488 81.4257 96 71.2263 96 56.4259H92ZM79.3883 32.6307C87.303 39.2979 92 47.9853 92 56.4259H96C96 46.5042 90.5231 36.7804 81.9653 29.5715L79.3883 32.6307ZM78.6768 23.0022V31.1011H82.6768V23.0022H78.6768ZM64.2455 4.2903C72.7488 6.52403 78.6768 14.2104 78.6768 23.0022H82.6768C82.6768 12.3926 75.5232 3.11712 65.2618 0.421559L64.2455 4.2903ZM53.3685 12.6791C53.3685 6.99373 58.7468 2.84583 64.2455 4.2903L65.2618 0.421559C57.2271 -1.68908 49.3685 4.37176 49.3685 12.6791H53.3685ZM53.3685 19.4891V12.6791H49.3685V19.4891H53.3685ZM48 21.38C49.0894 21.38 50.1695 21.4155 51.239 21.4849L51.4981 17.4933C50.3429 17.4183 49.1763 17.38 48 17.38V21.38ZM44.6356 21.4932C45.746 21.4183 46.868 21.38 48 21.38V17.38C46.7777 17.38 45.5659 17.4214 44.3665 17.5023L44.6356 21.4932ZM42.501 12.6791V19.4977H46.501V12.6791H42.501ZM31.624 4.2903C37.1228 2.84583 42.501 6.99373 42.501 12.6791H46.501C46.501 4.37176 38.6425 -1.68908 30.6078 0.421559L31.624 4.2903Z" fill="#7D4FFF" mask="url(#path-1-outside-1_1636_2748)"/>
<ellipse cx="68" cy="50.5" rx="12" ry="11.5" fill="#FFE4EF"/>
<ellipse cx="29" cy="50.5" rx="12" ry="11.5" fill="#FFE4EF"/>
<path d="M48 104.306C48 105.987 47.1543 107.372 45.6596 108.377C44.1432 109.396 41.9756 110 39.5 110C37.0244 110 34.8568 109.396 33.3404 108.377C31.8457 107.372 31 105.987 31 104.306C31 100.806 34.7112 97 39.5 97C44.2888 97 48 100.806 48 104.306Z" fill="white" stroke="#7D4FFF" stroke-width="2"/>
<path d="M65 104.306C65 105.987 64.1543 107.372 62.6596 108.377C61.1432 109.396 58.9756 110 56.5 110C54.0244 110 51.8568 109.396 50.3404 108.377C48.8457 107.372 48 105.987 48 104.306C48 100.806 51.7112 97 56.5 97C61.2888 97 65 100.806 65 104.306Z" fill="white" stroke="#7D4FFF" stroke-width="2"/>
<path fill-rule="evenodd" clip-rule="evenodd" d="M38.4471 49.4879C38.3298 48.9483 37.7971 48.6059 37.2575 48.7232C36.7178 48.8406 36.3754 49.3732 36.4928 49.9129C36.8436 51.5263 38.7828 54.0257 43.2541 54.0257C46.1445 54.0257 47.9768 52.9813 49.0059 51.807C49.9583 52.9743 51.6518 54.0257 54.3406 54.0257C58.5396 54.0257 60.3114 51.4616 60.6235 49.8959C60.7315 49.3542 60.3799 48.8276 59.8383 48.7197C59.2966 48.6117 58.77 48.9633 58.6621 49.5049C58.5323 50.1561 57.5647 52.0257 54.3406 52.0257C51.1397 52.0257 50.1629 50.1828 50.0221 49.5192C50.0139 49.4749 50.0028 49.4315 49.9888 49.3891C49.9372 49.2309 49.8485 49.0927 49.7346 48.9824C49.6409 48.8913 49.5285 48.8178 49.4017 48.7686C49.2903 48.7251 49.1704 48.7011 49.0468 48.7002C48.7858 48.6978 48.539 48.7982 48.3547 48.9704C48.2389 49.0787 48.1478 49.2154 48.0935 49.3727C48.0789 49.4146 48.0671 49.4576 48.0581 49.5015C47.9144 50.1197 46.854 52.0257 43.2541 52.0257C39.6276 52.0257 38.5783 50.0914 38.4471 49.4879Z" fill="#7D4FFF"/>
<path d="M34 39C36.1429 39.3333 39.9429 40.4 42 42C39.8571 42.3333 37.5 43 34.9286 44" stroke="#7D4FFF" stroke-width="2" stroke-linecap="round" stroke-linejoin="round"/>
<path d="M62 39C59.8571 39.3333 56.0571 40.4 54 42C56.1429 42.3333 58.5 43 61.0714 44" stroke="#7D4FFF" stroke-width="2" stroke-linecap="round" stroke-linejoin="round"/>
<path d="M76.8685 74.8822C77.7937 76.1719 77.9514 77.6289 77.4903 79.0779C77.021 80.5522 75.8981 82.0365 74.2397 83.2263C72.5814 84.4161 70.8155 85.0043 69.2686 84.9765C67.7482 84.9492 66.4185 84.333 65.4932 83.0434C63.5588 80.3471 64.1071 75.7271 67.2444 73.4761C70.3818 71.2252 74.934 72.186 76.8685 74.8822Z" fill="white" stroke="#7D4FFF" stroke-width="2"/>
<path d="M19.4543 74.8822C18.529 76.1719 18.3713 77.6289 18.8325 79.0779C19.3018 80.5522 20.4247 82.0365 22.083 83.2263C23.7414 84.4161 25.5072 85.0043 27.0542 84.9765C28.5745 84.9492 29.9042 84.333 30.8295 83.0434C32.7639 80.3471 32.2157 75.7271 29.0783 73.4761C25.9409 71.2252 21.3887 72.186 19.4543 74.8822Z" fill="white" stroke="#7D4FFF" stroke-width="2"/>
</svg>
