<svg width="96" height="116" viewBox="0 0 96 116" fill="none" xmlns="http://www.w3.org/2000/svg">
<g clip-path="url(#clip0_1619_2188)">
<path fill-rule="evenodd" clip-rule="evenodd" d="M31.1159 2.35593C21.7336 4.82058 15.1927 13.3015 15.1927 23.0022V31.2114C7.03328 38.1365 2 47.2933 2 56.4259C2 67.7432 9.7294 76.3979 21.559 81.4049C18.3345 82.497 16 85.6316 16 88.7527C16 92.6187 19.5817 95 24 95C24.8789 95 25.7246 94.9058 26.5157 94.7244C27.1485 98.8513 30.0477 102.125 34.3152 104.302C33.506 105.435 33.0361 106.737 33.0361 108.038C33.0361 111.627 36.6179 113.839 41.0361 113.839C44.4915 113.839 47.4352 112.486 48.5542 110.18C49.6732 112.486 52.6169 113.839 56.0723 113.839C60.4906 113.839 64.0723 111.627 64.0723 108.038C64.0723 106.737 63.6024 105.435 62.7932 104.302C66.9955 102.158 69.871 98.9511 70.5621 94.913C71.0286 94.9706 71.5091 95 72 95C76.4183 95 80 92.6187 80 88.7527C80 85.6316 77.6655 82.497 74.441 81.4049C86.2706 76.3979 94 67.7432 94 56.4259C94 47.2447 88.913 38.0391 80.6768 31.1011V23.0022C80.6768 13.3015 74.136 4.82058 64.7537 2.35593C57.9869 0.578376 51.3685 5.68275 51.3685 12.6791V19.4891C50.2562 19.4169 49.1329 19.38 48 19.38C46.8228 19.38 45.656 19.4198 44.501 19.4977V12.6791C44.501 5.68275 37.8826 0.578376 31.1159 2.35593Z" fill="white"/>
<mask id="mask0_1619_2188" style="mask-type:luminance" maskUnits="userSpaceOnUse" x="0" y="-1" width="96" height="117">
<path d="M96 -1H0V116H96V-1Z" fill="white"/>
<path fill-rule="evenodd" clip-rule="evenodd" d="M31.1159 2.35593C21.7336 4.82058 15.1927 13.3015 15.1927 23.0022V31.2114C7.03328 38.1365 2 47.2933 2 56.4259C2 67.7432 9.7294 76.3979 21.559 81.4049C18.3345 82.497 16 85.6316 16 88.7527C16 92.6187 19.5817 95 24 95C24.8789 95 25.7246 94.9058 26.5157 94.7244C27.1485 98.8513 30.0477 102.125 34.3152 104.302C33.506 105.435 33.0361 106.737 33.0361 108.038C33.0361 111.627 36.6179 113.839 41.0361 113.839C44.4915 113.839 47.4352 112.486 48.5542 110.18C49.6732 112.486 52.6169 113.839 56.0723 113.839C60.4906 113.839 64.0723 111.627 64.0723 108.038C64.0723 106.737 63.6024 105.435 62.7932 104.302C66.9955 102.158 69.871 98.9511 70.5621 94.913C71.0286 94.9706 71.5091 95 72 95C76.4183 95 80 92.6187 80 88.7527C80 85.6316 77.6655 82.497 74.441 81.4049C86.2706 76.3979 94 67.7432 94 56.4259C94 47.2447 88.913 38.0391 80.6768 31.1011V23.0022C80.6768 13.3015 74.136 4.82058 64.7537 2.35593C57.9869 0.578376 51.3685 5.68275 51.3685 12.6791V19.4891C50.2562 19.4169 49.1329 19.38 48 19.38C46.8228 19.38 45.656 19.4198 44.501 19.4977V12.6791C44.501 5.68275 37.8826 0.578376 31.1159 2.35593Z" fill="black"/>
</mask>
<g mask="url(#mask0_1619_2188)">
<path d="M15.1927 31.2114L16.4869 32.7362C16.9346 32.3562 17.1927 31.7987 17.1927 31.2114H15.1927ZM21.559 81.4049L22.2005 83.2992C22.9869 83.0329 23.5269 82.3084 23.5576 81.4787C23.5882 80.6491 23.1031 79.8867 22.3385 79.5631L21.559 81.4049ZM26.5157 94.7244L28.4926 94.4213C28.4083 93.8718 28.0992 93.3822 27.6394 93.0699C27.1796 92.7576 26.6105 92.6507 26.0687 92.775L26.5157 94.7244ZM34.3152 104.302L35.9426 105.464C36.281 104.991 36.3962 104.393 36.2582 103.828C36.1202 103.262 35.7426 102.785 35.2241 102.52L34.3152 104.302ZM48.5542 110.18L50.3536 109.307C50.0192 108.617 49.3204 108.18 48.5542 108.18C47.788 108.18 47.0892 108.617 46.7548 109.307L48.5542 110.18ZM62.7932 104.302L61.8843 102.52C61.3658 102.785 60.9883 103.262 60.8502 103.828C60.7122 104.393 60.8274 104.991 61.1658 105.464L62.7932 104.302ZM70.5621 94.913L70.8071 92.9281C69.7469 92.7973 68.771 93.5227 68.5908 94.5756L70.5621 94.913ZM74.441 81.4049L73.6615 79.5631C72.8969 79.8867 72.4118 80.6491 72.4424 81.4787C72.4731 82.3084 73.0131 83.0329 73.7995 83.2992L74.441 81.4049ZM80.6768 31.1011H78.6768C78.6768 31.691 78.9372 32.2507 79.3883 32.6307L80.6768 31.1011ZM51.3685 19.4891L51.239 21.4849C51.7907 21.5207 52.3327 21.3265 52.7362 20.9484C53.1396 20.5703 53.3685 20.042 53.3685 19.4891H51.3685ZM44.501 19.4977H42.501C42.501 20.0515 42.7307 20.5806 43.1352 20.9588C43.5398 21.337 44.0831 21.5305 44.6356 21.4932L44.501 19.4977ZM17.1927 23.0022C17.1927 14.2104 23.1207 6.524 31.624 4.29027L30.6078 0.421528C20.3464 3.11709 13.1927 12.3926 13.1927 23.0022H17.1927ZM17.1927 31.2114V23.0022H13.1927V31.2114H17.1927ZM4 56.4259C4 48.03 8.64709 39.3901 16.4869 32.7362L13.8986 29.6866C5.41947 36.883 0 46.5566 0 56.4259H4ZM22.3385 79.5631C10.9445 74.7405 4 66.6544 4 56.4259H0C0 68.8321 8.5143 78.0554 20.7794 83.2467L22.3385 79.5631ZM18 88.7527C18 86.5641 19.7145 84.1412 22.2005 83.2992L20.9174 79.5106C16.9545 80.8527 14 84.699 14 88.7527H18ZM24 93C22.1271 93 20.5718 92.4925 19.538 91.7223C18.547 90.9839 18 89.9942 18 88.7527H14C14 91.3772 15.2438 93.5111 17.1483 94.9299C19.0099 96.3169 21.4546 97 24 97V93ZM26.0687 92.775C25.4323 92.9209 24.7369 93 24 93V97C25.0208 97 26.017 96.8907 26.9627 96.6738L26.0687 92.775ZM35.2241 102.52C31.3342 100.536 28.9988 97.7227 28.4926 94.4213L24.5388 95.0275C25.2981 99.9799 28.7611 103.714 33.4063 106.083L35.2241 102.52ZM35.0361 108.038C35.0361 107.219 35.3353 106.315 35.9426 105.464L32.6878 103.139C31.6767 104.555 31.0361 106.256 31.0361 108.038H35.0361ZM41.0361 111.839C39.1333 111.839 37.5565 111.359 36.5171 110.64C35.5221 109.951 35.0361 109.077 35.0361 108.038H31.0361C31.0361 110.588 32.341 112.614 34.2414 113.929C36.0974 115.213 38.5207 115.839 41.0361 115.839V111.839ZM46.7548 109.307C46.1109 110.634 44.1116 111.839 41.0361 111.839V115.839C44.8715 115.839 48.7596 114.339 50.3536 111.053L46.7548 109.307ZM56.0723 111.839C52.9968 111.839 50.9975 110.634 50.3536 109.307L46.7548 111.053C48.3488 114.339 52.2369 115.839 56.0723 115.839V111.839ZM62.0723 108.038C62.0723 109.077 61.5863 109.951 60.5913 110.64C59.5519 111.359 57.9751 111.839 56.0723 111.839V115.839C58.5877 115.839 61.011 115.213 62.867 113.929C64.7674 112.614 66.0723 110.588 66.0723 108.038H62.0723ZM61.1658 105.464C61.7732 106.315 62.0723 107.219 62.0723 108.038H66.0723C66.0723 106.256 65.4317 104.555 64.4206 103.139L61.1658 105.464ZM68.5908 94.5756C68.0377 97.8071 65.7153 100.566 61.8843 102.52L63.7021 106.084C68.2758 103.75 71.7043 100.095 72.5335 95.2505L68.5908 94.5756ZM72 93C71.5888 93 71.1901 92.9754 70.8071 92.9281L70.3172 96.898C70.8671 96.9658 71.4294 97 72 97V93ZM78 88.7527C78 89.9942 77.453 90.9839 76.462 91.7223C75.4282 92.4925 73.8729 93 72 93V97C74.5454 97 76.9901 96.3169 78.8517 94.9299C80.7562 93.5111 82 91.3772 82 88.7527H78ZM73.7995 83.2992C76.2855 84.1412 78 86.5641 78 88.7527H82C82 84.699 79.0455 80.8527 75.0826 79.5106L73.7995 83.2992ZM92 56.4259C92 66.6544 85.0555 74.7405 73.6615 79.5631L75.2206 83.2467C87.4857 78.0554 96 68.8321 96 56.4259H92ZM79.3883 32.6307C87.303 39.2979 92 47.9853 92 56.4259H96C96 46.5042 90.5231 36.7804 81.9653 29.5715L79.3883 32.6307ZM78.6768 23.0022V31.1011H82.6768V23.0022H78.6768ZM64.2455 4.29027C72.7488 6.524 78.6768 14.2104 78.6768 23.0022H82.6768C82.6768 12.3926 75.5232 3.11709 65.2618 0.421528L64.2455 4.29027ZM53.3685 12.6791C53.3685 6.9937 58.7468 2.8458 64.2455 4.29027L65.2618 0.421528C57.2271 -1.68911 49.3685 4.37173 49.3685 12.6791H53.3685ZM53.3685 19.4891V12.6791H49.3685V19.4891H53.3685ZM48 21.38C49.0894 21.38 50.1695 21.4155 51.239 21.4849L51.4981 17.4933C50.3429 17.4183 49.1763 17.38 48 17.38V21.38ZM44.6356 21.4932C45.746 21.4183 46.868 21.38 48 21.38V17.38C46.7777 17.38 45.5659 17.4214 44.3665 17.5023L44.6356 21.4932ZM42.501 12.6791V19.4977H46.501V12.6791H42.501ZM31.624 4.29027C37.1228 2.8458 42.501 6.9937 42.501 12.6791H46.501C46.501 4.37173 38.6425 -1.68911 30.6078 0.421528L31.624 4.29027Z" fill="#7D4FFF"/>
</g>
<path d="M68 62C74.6274 62 80 56.8513 80 50.5C80 44.1487 74.6274 39 68 39C61.3726 39 56 44.1487 56 50.5C56 56.8513 61.3726 62 68 62Z" fill="#FFE4EF"/>
<path d="M29 62C35.6274 62 41 56.8513 41 50.5C41 44.1487 35.6274 39 29 39C22.3726 39 17 44.1487 17 50.5C17 56.8513 22.3726 62 29 62Z" fill="#FFE4EF"/>
<path d="M40.2409 45.2664C41.7714 45.2664 43.012 43.5294 43.012 41.3868C43.012 39.2442 41.7714 37.5073 40.2409 37.5073C38.7105 37.5073 37.4698 39.2442 37.4698 41.3868C37.4698 43.5294 38.7105 45.2664 40.2409 45.2664Z" fill="#7D4FFF"/>
<path d="M56.8674 45.2664C58.3978 45.2664 59.6385 43.5294 59.6385 41.3868C59.6385 39.2442 58.3978 37.5073 56.8674 37.5073C55.337 37.5073 54.0963 39.2442 54.0963 41.3868C54.0963 43.5294 55.337 45.2664 56.8674 45.2664Z" fill="#7D4FFF"/>
<path d="M49 56C46.6 56 45.3333 54.4444 45 53.6667L49 49L53 53.6667C52.6667 54.4444 51.4 56 49 56Z" fill="#FFA8CB"/>
<path fill-rule="evenodd" clip-rule="evenodd" d="M38.4472 49.4879C38.3299 48.9483 37.7973 48.6059 37.2576 48.7232C36.7179 48.8406 36.3755 49.3732 36.4929 49.9129C36.8437 51.5263 38.7829 54.0257 43.2543 54.0257C46.1446 54.0257 47.9769 52.9813 49.0061 51.8069C49.9584 52.9743 51.652 54.0257 54.3408 54.0257C58.5398 54.0257 60.3116 51.4616 60.6237 49.8959C60.7316 49.3542 60.3801 48.8276 59.8384 48.7197C59.2968 48.6117 58.7702 48.9633 58.6623 49.5049C58.5325 50.1561 57.5648 52.0257 54.3408 52.0257C51.1367 52.0257 50.1611 50.1791 50.0218 49.5172C50.0151 49.4811 50.0064 49.4456 49.9958 49.4108C49.9436 49.2374 49.8472 49.0871 49.7217 48.97C49.633 48.8869 49.5284 48.8192 49.4114 48.7724C49.2973 48.7264 49.1739 48.7011 49.0467 48.7002C48.7921 48.6979 48.5509 48.7935 48.3682 48.9582C48.2407 49.0732 48.1417 49.2218 48.0864 49.3942C48.0753 49.4287 48.066 49.4638 48.0587 49.4995C47.9167 50.1158 46.8579 52.0257 43.2543 52.0257C39.6277 52.0257 38.5784 50.0914 38.4472 49.4879Z" fill="#7D4FFF"/>
</g>
<defs>
<clipPath id="clip0_1619_2188">
<rect width="96" height="116" fill="white"/>
</clipPath>
</defs>
</svg>
