<svg width="96" height="110" viewBox="0 0 96 110" fill="none" xmlns="http://www.w3.org/2000/svg">
<g clip-path="url(#clip0_1609_1867)">
<path fill-rule="evenodd" clip-rule="evenodd" d="M31.1159 2.35642C21.7336 4.82107 15.1927 13.302 15.1927 23.0026V25.2115C7.03328 32.1366 2 41.2934 2 50.4261C2 64.1592 13.3815 73.9717 29.6597 78.1032C27.5832 80.8221 26.3855 83.9113 26.3855 86.9948C26.3855 91.9411 29.4675 95.829 34.3152 98.3021C33.506 99.4349 33.0361 100.738 33.0361 102.038C33.0361 105.628 36.6179 107.839 41.0361 107.839C44.4915 107.839 47.4352 106.486 48.5542 104.18C49.6732 106.486 52.6169 107.839 56.0723 107.839C60.4906 107.839 64.0723 105.628 64.0723 102.038C64.0723 100.738 63.6024 99.4349 62.7932 98.3021C67.6409 95.829 70.7229 91.9411 70.7229 86.9948C70.7229 83.8197 69.453 80.6386 67.2614 77.862C83.0462 73.598 94 63.8987 94 50.4261C94 41.2449 88.913 32.0393 80.6768 25.1012V23.0026C80.6768 13.302 74.136 4.82107 64.7537 2.35642C57.9869 0.578864 51.3685 5.68324 51.3685 12.6795V13.4892C50.2562 13.417 49.1329 13.3801 48 13.3801C46.8228 13.3801 45.656 13.42 44.501 13.4979V12.6795C44.501 5.68324 37.8826 0.578864 31.1159 2.35642Z" fill="white"/>
<mask id="mask0_1609_1867" style="mask-type:luminance" maskUnits="userSpaceOnUse" x="0" y="-1" width="96" height="112">
<path d="M96 -0.999512H0V110H96V-0.999512Z" fill="white"/>
<path fill-rule="evenodd" clip-rule="evenodd" d="M31.1159 2.35642C21.7336 4.82107 15.1927 13.302 15.1927 23.0026V25.2115C7.03328 32.1366 2 41.2934 2 50.4261C2 64.1592 13.3815 73.9717 29.6597 78.1032C27.5832 80.8221 26.3855 83.9113 26.3855 86.9948C26.3855 91.9411 29.4675 95.829 34.3152 98.3021C33.506 99.4349 33.0361 100.738 33.0361 102.038C33.0361 105.628 36.6179 107.839 41.0361 107.839C44.4915 107.839 47.4352 106.486 48.5542 104.18C49.6732 106.486 52.6169 107.839 56.0723 107.839C60.4906 107.839 64.0723 105.628 64.0723 102.038C64.0723 100.738 63.6024 99.4349 62.7932 98.3021C67.6409 95.829 70.7229 91.9411 70.7229 86.9948C70.7229 83.8197 69.453 80.6386 67.2614 77.862C83.0462 73.598 94 63.8987 94 50.4261C94 41.2449 88.913 32.0393 80.6768 25.1012V23.0026C80.6768 13.302 74.136 4.82107 64.7537 2.35642C57.9869 0.578864 51.3685 5.68324 51.3685 12.6795V13.4892C50.2562 13.417 49.1329 13.3801 48 13.3801C46.8228 13.3801 45.656 13.42 44.501 13.4979V12.6795C44.501 5.68324 37.8826 0.578864 31.1159 2.35642Z" fill="black"/>
</mask>
<g mask="url(#mask0_1609_1867)">
<path d="M15.1927 25.2115L16.4869 26.7364C16.9346 26.3564 17.1927 25.7988 17.1927 25.2115H15.1927ZM29.6597 78.1032L31.2492 79.3172C31.657 78.7832 31.7694 78.0802 31.5485 77.4457C31.3276 76.8112 30.8029 76.33 30.1517 76.1647L29.6597 78.1032ZM34.3152 98.3021L35.9426 99.4646C36.281 98.9909 36.3962 98.3934 36.2582 97.8279C36.1202 97.2623 35.7426 96.785 35.2241 96.5205L34.3152 98.3021ZM48.5542 104.18L50.3536 103.307C50.0192 102.617 49.3204 102.18 48.5542 102.18C47.788 102.18 47.0892 102.617 46.7548 103.307L48.5542 104.18ZM62.7932 98.3021L61.8843 96.5205C61.3658 96.785 60.9883 97.2624 60.8502 97.8279C60.7122 98.3934 60.8274 98.9909 61.1658 99.4646L62.7932 98.3021ZM67.2614 77.862L66.7398 75.9312C66.091 76.1065 65.5736 76.5959 65.3625 77.234C65.1515 77.8721 65.2751 78.5736 65.6915 79.1011L67.2614 77.862ZM80.6768 25.1012H78.6768C78.6768 25.6911 78.9372 26.2509 79.3883 26.6309L80.6768 25.1012ZM51.3685 13.4892L51.239 15.485C51.7907 15.5208 52.3327 15.3266 52.7362 14.9485C53.1396 14.5704 53.3685 14.0422 53.3685 13.4892H51.3685ZM44.501 13.4979H42.501C42.501 14.0517 42.7307 14.5807 43.1352 14.9589C43.5398 15.3371 44.0831 15.5306 44.6356 15.4933L44.501 13.4979ZM17.1927 23.0026C17.1927 14.2109 23.1207 6.52452 31.624 4.29079L30.6078 0.422046C20.3464 3.11761 13.1927 12.3931 13.1927 23.0026H17.1927ZM17.1927 25.2115V23.0026H13.1927V25.2115H17.1927ZM4 50.4261C4 42.0302 8.64709 33.3902 16.4869 26.7364L13.8986 23.6867C5.41947 30.8831 0 40.5567 0 50.4261H4ZM30.1517 76.1647C14.2448 72.1274 4 62.8028 4 50.4261H0C0 65.5156 12.5182 75.816 29.1677 80.0418L30.1517 76.1647ZM28.3855 86.9948C28.3855 84.4336 29.3834 81.7602 31.2492 79.3172L28.0702 76.8893C25.7831 79.884 24.3855 83.389 24.3855 86.9948H28.3855ZM35.2241 96.5205C30.8165 94.2719 28.3855 90.9625 28.3855 86.9948H24.3855C24.3855 92.9198 28.1186 97.386 33.4063 100.084L35.2241 96.5205ZM35.0361 102.038C35.0361 101.219 35.3353 100.315 35.9426 99.4646L32.6878 97.1395C31.6767 98.5549 31.0361 100.256 31.0361 102.038H35.0361ZM41.0361 105.839C39.1333 105.839 37.5565 105.359 36.5171 104.64C35.5221 103.951 35.0361 103.077 35.0361 102.038H31.0361C31.0361 104.589 32.341 106.615 34.2414 107.929C36.0974 109.213 38.5207 109.839 41.0361 109.839V105.839ZM46.7548 103.307C46.1109 104.634 44.1116 105.839 41.0361 105.839V109.839C44.8715 109.839 48.7596 108.339 50.3536 105.053L46.7548 103.307ZM56.0723 105.839C52.9968 105.839 50.9975 104.634 50.3536 103.307L46.7548 105.053C48.3488 108.339 52.2369 109.839 56.0723 109.839V105.839ZM62.0723 102.038C62.0723 103.077 61.5863 103.951 60.5913 104.64C59.5519 105.359 57.9751 105.839 56.0723 105.839V109.839C58.5877 109.839 61.011 109.213 62.867 107.929C64.7674 106.615 66.0723 104.589 66.0723 102.038H62.0723ZM61.1658 99.4646C61.7732 100.315 62.0723 101.219 62.0723 102.038H66.0723C66.0723 100.256 65.4317 98.5549 64.4206 97.1395L61.1658 99.4646ZM68.7229 86.9948C68.7229 90.9624 66.292 94.2719 61.8843 96.5205L63.7021 100.084C68.9898 97.386 72.7229 92.9198 72.7229 86.9948H68.7229ZM65.6915 79.1011C67.6645 81.6008 68.7229 84.3574 68.7229 86.9948H72.7229C72.7229 83.282 71.2415 79.6765 68.8313 76.6229L65.6915 79.1011ZM92 50.4261C92 62.5709 82.1437 71.7701 66.7398 75.9312L67.783 79.7928C83.9488 75.4258 96 65.2264 96 50.4261H92ZM79.3883 26.6309C87.303 33.298 92 41.9854 92 50.4261H96C96 40.5044 90.5231 30.7805 81.9653 23.5716L79.3883 26.6309ZM78.6768 23.0026V25.1012H82.6768V23.0026H78.6768ZM64.2455 4.29079C72.7488 6.52452 78.6768 14.2109 78.6768 23.0026H82.6768C82.6768 12.3931 75.5232 3.11761 65.2618 0.422046L64.2455 4.29079ZM53.3685 12.6795C53.3685 6.99422 58.7468 2.84632 64.2455 4.29079L65.2618 0.422046C57.2271 -1.68859 49.3685 4.37225 49.3685 12.6795H53.3685ZM53.3685 13.4892V12.6795H49.3685V13.4892H53.3685ZM48 15.3801C49.0894 15.3801 50.1695 15.4156 51.239 15.485L51.4981 11.4934C50.3429 11.4184 49.1763 11.3801 48 11.3801V15.3801ZM44.6356 15.4933C45.746 15.4184 46.868 15.3801 48 15.3801V11.3801C46.7777 11.3801 45.5659 11.4215 44.3665 11.5024L44.6356 15.4933ZM42.501 12.6795V13.4979H46.501V12.6795H42.501ZM31.624 4.29079C37.1228 2.84632 42.501 6.99422 42.501 12.6795H46.501C46.501 4.37225 38.6425 -1.68859 30.6078 0.422046L31.624 4.29079Z" fill="#7D4FFF"/>
</g>
<path d="M68 49.4928C74.6274 49.4928 80 44.3441 80 37.9928C80 31.6415 74.6274 26.4928 68 26.4928C61.3726 26.4928 56 31.6415 56 37.9928C56 44.3441 61.3726 49.4928 68 49.4928Z" fill="#FFE4EF"/>
<path d="M29 49.4928C35.6274 49.4928 41 44.3441 41 37.9928C41 31.6415 35.6274 26.4928 29 26.4928C22.3726 26.4928 17 31.6415 17 37.9928C17 44.3441 22.3726 49.4928 29 49.4928Z" fill="#FFE4EF"/>
<path fill-rule="evenodd" clip-rule="evenodd" d="M38.4471 36.9807C38.3298 36.441 37.7971 36.0986 37.2575 36.216C36.7178 36.3333 36.3754 36.8659 36.4928 37.4056C36.8436 39.019 38.7828 41.5184 43.2541 41.5184C46.1445 41.5184 47.9768 40.474 49.0059 39.2997C49.9583 40.4671 51.6519 41.5184 54.3407 41.5184C58.5397 41.5184 60.3115 38.9544 60.6236 37.3886C60.7315 36.847 60.3799 36.3204 59.8383 36.2124C59.2967 36.1045 58.7701 36.456 58.6621 36.9977C58.5324 37.6488 57.5647 39.5184 54.3407 39.5184C51.1365 39.5184 50.161 37.6718 50.0217 37.0099C50.015 36.9739 50.0063 36.9384 49.9957 36.9035C49.9435 36.7302 49.847 36.5798 49.7215 36.4627C49.6329 36.3796 49.5283 36.312 49.4112 36.2651C49.2972 36.2191 49.1738 36.1939 49.0466 36.193C48.7919 36.1906 48.5508 36.2862 48.3681 36.4509C48.2406 36.5659 48.1415 36.7145 48.0863 36.887C48.0752 36.9214 48.0659 36.9566 48.0586 36.9923C47.9166 37.6085 46.8577 39.5184 43.2541 39.5184C39.6276 39.5184 38.5783 37.5841 38.4471 36.9807Z" fill="#7D4FFF"/>
<path d="M40.2408 32.7591C41.7712 32.7591 43.0119 31.0222 43.0119 28.8796C43.0119 26.737 41.7712 25.0001 40.2408 25.0001C38.7104 25.0001 37.4697 26.737 37.4697 28.8796C37.4697 31.0222 38.7104 32.7591 40.2408 32.7591Z" fill="#7D4FFF"/>
<path d="M56.8673 32.7591C58.3977 32.7591 59.6384 31.0222 59.6384 28.8796C59.6384 26.737 58.3977 25.0001 56.8673 25.0001C55.3368 25.0001 54.0962 26.737 54.0962 28.8796C54.0962 31.0222 55.3368 32.7591 56.8673 32.7591Z" fill="#7D4FFF"/>
<path d="M37.8926 68.1233C36.6835 69.5298 36.9926 71.6798 38.549 72.6888C38.8954 72.9133 39.0803 73.3181 39.0231 73.7269C38.7664 75.5639 40.1889 77.2055 42.0436 77.2128C42.4564 77.2144 42.8308 77.455 43.0038 77.8298C43.7809 79.5139 45.8651 80.1259 47.4293 79.1293C47.7775 78.9075 48.2225 78.9075 48.5707 79.1293C50.1349 80.1259 52.2191 79.5139 52.9962 77.8298C53.1692 77.455 53.5436 77.2144 53.9564 77.2128C55.8111 77.2055 57.2336 75.5639 56.9769 73.7269C56.9197 73.3182 57.1046 72.9133 57.451 72.6888C59.0074 71.6798 59.3165 69.5298 58.1074 68.1233C57.8383 67.8103 57.775 67.3697 57.945 66.9936C58.7088 65.3034 57.8065 63.3276 56.0289 62.798C55.6333 62.6802 55.3418 62.3438 55.2815 61.9355C55.0103 60.1006 53.183 58.9263 51.4013 59.4418C51.0048 59.5565 50.5777 59.4311 50.3062 59.1203C49.0861 57.7233 46.9139 57.7233 45.6938 59.1203C45.4223 59.4311 44.9952 59.5565 44.5987 59.4418C42.817 58.9263 40.9897 60.1006 40.7185 61.9355C40.6582 62.3438 40.3667 62.6802 39.9711 62.798C38.1935 63.3276 37.2912 65.3034 38.055 66.9936C38.225 67.3697 38.1617 67.8103 37.8926 68.1233Z" fill="#FFF950"/>
<path d="M37.8926 68.1233L38.6364 68.7627M37.8926 68.1233C36.6835 69.5298 36.9926 71.6798 38.549 72.6888M37.8926 68.1233C38.1617 67.8103 38.225 67.3697 38.055 66.9936C37.2912 65.3034 38.1935 63.3276 39.9711 62.798C40.3667 62.6802 40.6582 62.3438 40.7185 61.9355C40.9897 60.1006 42.817 58.9263 44.5987 59.4418C44.9952 59.5565 45.4223 59.4311 45.6938 59.1203C46.9139 57.7233 49.0861 57.7233 50.3062 59.1203C50.5777 59.4311 51.0048 59.5565 51.4013 59.4418C53.183 58.9263 55.0103 60.1006 55.2815 61.9355C55.3418 62.3438 55.6333 62.6802 56.0289 62.798C57.8065 63.3276 58.7088 65.3034 57.945 66.9936C57.775 67.3697 57.8383 67.8103 58.1074 68.1233C59.3165 69.5298 59.0074 71.6798 57.451 72.6888C57.1046 72.9133 56.9197 73.3182 56.9769 73.7269C57.2336 75.5639 55.8111 77.2055 53.9564 77.2128C53.5436 77.2144 53.1692 77.455 52.9962 77.8298C52.2191 79.5139 50.1349 80.1259 48.5707 79.1293C48.2225 78.9075 47.7775 78.9075 47.4293 79.1293C45.8651 80.1259 43.7809 79.5139 43.0038 77.8298C42.8308 77.455 42.4564 77.2144 42.0436 77.2128C40.1889 77.2055 38.7664 75.5639 39.0231 73.7269C39.0803 73.3181 38.8954 72.9133 38.549 72.6888M38.549 72.6888L39.093 71.8497" stroke="#FFCC00" stroke-width="2"/>
<path d="M66.1282 70.9035C67.5061 71.6914 68.2556 72.9507 68.4389 74.4602C68.6255 75.9962 68.2218 77.8131 67.2087 79.5849C66.1955 81.3567 64.8344 82.6261 63.4161 83.2444C62.0222 83.852 60.5566 83.8448 59.1787 83.0569C56.298 81.4096 54.8747 76.9802 56.7915 73.6282C58.7082 70.2762 63.2475 69.2562 66.1282 70.9035Z" fill="white" stroke="#7D4FFF" stroke-width="2"/>
<path d="M30.9199 70.9035C29.542 71.6914 28.7925 72.9507 28.6091 74.4602C28.4225 75.9962 28.8262 77.8131 29.8394 79.5849C30.8525 81.3567 32.2136 82.6261 33.632 83.2444C35.0259 83.852 36.4914 83.8448 37.8693 83.0569C40.75 81.4096 42.1733 76.9802 40.2566 73.6282C38.3399 70.2762 33.8006 69.2562 30.9199 70.9035Z" fill="white" stroke="#7D4FFF" stroke-width="2"/>
</g>
<defs>
<clipPath id="clip0_1609_1867">
<rect width="96" height="110" fill="white"/>
</clipPath>
</defs>
</svg>
