<svg width="70" height="70" viewBox="0 0 70 70" fill="none" xmlns="http://www.w3.org/2000/svg">
<path d="M70 35C70 54.33 54.33 70 35 70C15.67 70 0 54.33 0 35C0 15.67 15.67 0 35 0C54.33 0 70 15.67 70 35Z" fill="#8D68FF"/>
<mask id="path-2-outside-1_1609_1150" maskUnits="userSpaceOnUse" x="4" y="7" width="61" height="56" fill="black">
<rect fill="white" x="4" y="7" width="61" height="56"/>
<path fill-rule="evenodd" clip-rule="evenodd" d="M14.1738 22.0122C14.1738 16.002 18.2262 10.7475 24.0392 9.22052C28.2316 8.11921 32.3322 11.2817 32.3322 15.6164V19.8411C33.0477 19.7929 33.7707 19.7682 34.5 19.7682C35.2019 19.7682 35.8978 19.7911 36.5869 19.8358V15.6164C36.5869 11.2817 40.6875 8.11921 44.8799 9.22052C50.6929 10.7475 54.7453 16.002 54.7453 22.0122V27.0301C59.8483 31.3287 63 37.0322 63 42.7206C63 54.1661 50.2401 61.2162 34.5 61.2162C18.7599 61.2162 6 54.1661 6 42.7206C6 37.0623 9.11845 31.3891 14.1738 27.0985V22.0122Z"/>
</mask>
<path fill-rule="evenodd" clip-rule="evenodd" d="M14.1738 22.0122C14.1738 16.002 18.2262 10.7475 24.0392 9.22052C28.2316 8.11921 32.3322 11.2817 32.3322 15.6164V19.8411C33.0477 19.7929 33.7707 19.7682 34.5 19.7682C35.2019 19.7682 35.8978 19.7911 36.5869 19.8358V15.6164C36.5869 11.2817 40.6875 8.11921 44.8799 9.22052C50.6929 10.7475 54.7453 16.002 54.7453 22.0122V27.0301C59.8483 31.3287 63 37.0322 63 42.7206C63 54.1661 50.2401 61.2162 34.5 61.2162C18.7599 61.2162 6 54.1661 6 42.7206C6 37.0623 9.11845 31.3891 14.1738 27.0985V22.0122Z" fill="white"/>
<path d="M24.0392 9.22052L24.4203 10.6713L24.0392 9.22052ZM32.3322 19.8411H30.8322C30.8322 20.2565 31.0044 20.6533 31.3078 20.9369C31.6112 21.2206 32.0187 21.3657 32.4331 21.3377L32.3322 19.8411ZM36.5869 19.8358L36.4898 21.3326C36.9036 21.3595 37.3101 21.2138 37.6127 20.9303C37.9152 20.6467 38.0869 20.2505 38.0869 19.8358H36.5869ZM44.8799 9.22052L44.4988 10.6713L44.8799 9.22052ZM54.7453 27.0301H53.2453C53.2453 27.4725 53.4406 27.8923 53.7789 28.1773L54.7453 27.0301ZM14.1738 27.0985L15.1444 28.2422C15.4802 27.9572 15.6738 27.539 15.6738 27.0985H14.1738ZM23.6581 7.76974C17.1858 9.46994 12.6738 15.3204 12.6738 22.0122H15.6738C15.6738 16.6837 19.2666 12.0251 24.4203 10.6713L23.6581 7.76974ZM33.8322 15.6164C33.8322 10.2985 28.8015 6.41862 23.6581 7.76974L24.4203 10.6713C27.6618 9.8198 30.8322 12.2649 30.8322 15.6164H33.8322ZM33.8322 19.8411V15.6164H30.8322V19.8411H33.8322ZM32.4331 21.3377C33.1153 21.2917 33.8045 21.2682 34.5 21.2682V18.2682C33.7368 18.2682 32.9802 18.294 32.2312 18.3445L32.4331 21.3377ZM34.5 21.2682C35.1693 21.2682 35.8328 21.29 36.4898 21.3326L36.6841 18.3389C35.9628 18.2921 35.2345 18.2682 34.5 18.2682V21.2682ZM38.0869 19.8358V15.6164H35.0869V19.8358H38.0869ZM38.0869 15.6164C38.0869 12.2649 41.2573 9.8198 44.4988 10.6713L45.261 7.76974C40.1176 6.41862 35.0869 10.2985 35.0869 15.6164H38.0869ZM44.4988 10.6713C49.6525 12.0251 53.2453 16.6837 53.2453 22.0122H56.2453C56.2453 15.3204 51.7332 9.46994 45.261 7.76974L44.4988 10.6713ZM53.2453 22.0122V27.0301H56.2453V22.0122H53.2453ZM53.7789 28.1773C58.6407 32.2728 61.5 37.5876 61.5 42.7206H64.5C64.5 36.4768 61.0558 30.3846 55.7117 25.8829L53.7789 28.1773ZM61.5 42.7206C61.5 47.7988 58.6968 51.9923 53.8629 54.9851C49.0018 57.9949 42.17 59.7162 34.5 59.7162V62.7162C42.5702 62.7162 49.9883 60.9125 55.4422 57.5358C60.9233 54.1422 64.5 49.0879 64.5 42.7206H61.5ZM34.5 59.7162C26.83 59.7162 19.9982 57.9949 15.1371 54.9851C10.3032 51.9923 7.5 47.7988 7.5 42.7206H4.5C4.5 49.0879 8.07673 54.1422 13.5578 57.5358C19.0117 60.9125 26.4298 62.7162 34.5 62.7162V59.7162ZM7.5 42.7206C7.5 37.6149 10.3288 32.3292 15.1444 28.2422L13.2031 25.9549C7.90809 30.4489 4.5 36.5098 4.5 42.7206H7.5ZM12.6738 22.0122V27.0985H15.6738V22.0122H12.6738Z" fill="#7D4FFF" mask="url(#path-2-outside-1_1609_1150)"/>
<path d="M54.3261 39.0488C54.3261 42.9839 50.9974 46.1738 46.8913 46.1738C42.7852 46.1738 39.4565 42.9839 39.4565 39.0488C39.4565 35.1138 42.7852 31.9238 46.8913 31.9238C50.9974 31.9238 54.3261 35.1138 54.3261 39.0488Z" fill="#FFE4EF"/>
<path d="M30.163 39.0488C30.163 42.9839 26.8344 46.1738 22.7282 46.1738C18.6221 46.1738 15.2935 42.9839 15.2935 39.0488C15.2935 35.1138 18.6221 31.9238 22.7282 31.9238C26.8344 31.9238 30.163 35.1138 30.163 39.0488Z" fill="#FFE4EF"/>
<path d="M34 42C32.2 42 31.25 41.3333 31 41L34 39L37 41C36.75 41.3333 35.8 42 34 42Z" fill="#FFA8CB"/>
<path fill-rule="evenodd" clip-rule="evenodd" d="M27.7089 38.394C27.6209 37.9893 27.2214 37.7325 26.8166 37.8205C26.4119 37.9085 26.1551 38.308 26.2431 38.7127C26.4748 39.7782 27.7343 41.3636 30.5597 41.3636C32.2964 41.3636 33.4415 40.7646 34.1199 40.0555C34.7484 40.7601 35.8086 41.3636 37.4284 41.3636C40.0935 41.3636 41.2437 39.7297 41.449 38.7C41.5299 38.2938 41.2663 37.8988 40.86 37.8178C40.4538 37.7369 40.0589 38.0006 39.9779 38.4068C39.9094 38.7505 39.3623 39.8636 37.4284 39.8636C35.5173 39.8636 34.9605 38.7767 34.8815 38.4193C34.8556 38.2773 34.7892 38.1463 34.6921 38.042C34.6135 37.9575 34.5148 37.8904 34.4014 37.8491C34.3221 37.8199 34.2373 37.804 34.1501 37.8033C33.9412 37.8012 33.7444 37.887 33.6038 38.0323C33.5389 38.0993 33.486 38.1791 33.4494 38.2687C33.4313 38.3127 33.4173 38.3585 33.4078 38.4057C33.3289 38.7301 32.7248 39.8636 30.5597 39.8636C28.3679 39.8636 27.7758 38.702 27.7089 38.394Z" fill="#7D4FFF"/>
<path fill-rule="evenodd" clip-rule="evenodd" d="M24.2645 31.4185C24.3453 31.0123 24.7402 30.7485 25.1465 30.8294C25.8725 30.974 26.8534 31.2711 27.8228 31.6987C28.7849 32.1232 29.7938 32.7014 30.5292 33.4334C30.7255 33.6289 30.7981 33.9166 30.718 34.1818C30.6379 34.447 30.4182 34.6464 30.1465 34.7005C28.8891 34.9509 27.4798 35.4573 25.9146 36.2364C25.5438 36.4209 25.0935 36.27 24.909 35.8992C24.7244 35.5284 24.8754 35.0781 25.2462 34.8935C26.3158 34.3611 27.3383 33.9383 28.3127 33.6297C27.9703 33.427 27.5995 33.2397 27.2174 33.0711C26.3431 32.6855 25.4668 32.4226 24.8536 32.3005C24.4473 32.2196 24.1836 31.8247 24.2645 31.4185Z" fill="#7D4FFF"/>
<path fill-rule="evenodd" clip-rule="evenodd" d="M42.7355 31.4185C42.6547 31.0123 42.2598 30.7485 41.8535 30.8294C41.1275 30.974 40.1466 31.2711 39.1772 31.6987C38.2151 32.1232 37.2062 32.7014 36.4708 33.4334C36.2745 33.6289 36.2019 33.9166 36.282 34.1818C36.3621 34.447 36.5818 34.6464 36.8535 34.7005C38.1109 34.9509 39.5202 35.4573 41.0854 36.2364C41.4562 36.4209 41.9065 36.27 42.091 35.8992C42.2756 35.5284 42.1246 35.0781 41.7538 34.8935C40.6842 34.3611 39.6617 33.9383 38.6873 33.6297C39.0297 33.427 39.4005 33.2397 39.7826 33.0711C40.6569 32.6855 41.5332 32.4226 42.1464 32.3005C42.5527 32.2196 42.8164 31.8247 42.7355 31.4185Z" fill="#7D4FFF"/>
</svg>
