<svg width="88" height="82" viewBox="0 0 88 82" fill="none" xmlns="http://www.w3.org/2000/svg">
<g clip-path="url(#clip0_1763_1196)">
<path fill-rule="evenodd" clip-rule="evenodd" d="M14.4022 21.9669C14.4022 13.104 20.3031 5.35543 28.7676 3.10363C34.8724 1.47959 40.8433 6.14314 40.8433 12.5352V18.7649C41.8853 18.6938 42.938 18.6573 44 18.6573C45.022 18.6573 46.0355 18.6911 47.039 18.757V12.5352C47.039 6.14314 53.01 1.47959 59.1147 3.10363C67.5792 5.35543 73.4802 13.104 73.4802 21.9669V29.3662C80.9107 35.7051 85.5 44.1157 85.5 52.504C85.5 69.3821 66.9198 79.7784 44 79.7784C21.0802 79.7784 2.5 69.3821 2.5 52.504C2.5 44.16 7.0409 35.794 14.4022 29.467V21.9669Z" fill="white"/>
<path fill-rule="evenodd" clip-rule="evenodd" d="M12.3745 22.0285C12.3745 12.2297 18.9041 3.66293 28.2703 1.17334C35.69 -0.798828 42.947 4.8644 42.947 12.6267V16.6197C43.297 16.6121 43.648 16.6082 44 16.6082C44.3126 16.6082 44.6245 16.6113 44.9356 16.6173V12.6267C44.9356 4.8644 52.1926 -0.798828 59.6123 1.17334C68.9785 3.66293 75.5081 12.2297 75.5081 22.0285V28.4326C82.8311 34.9683 87.5 43.6187 87.5 52.469C87.5 61.7929 82.3252 69.1986 74.3803 74.1759C66.4736 79.1293 55.713 81.7784 44 81.7784C32.287 81.7784 21.5264 79.1293 13.6197 74.1759C5.67479 69.1986 0.5 61.7929 0.5 52.469C0.5 43.6658 5.11963 35.0603 12.3745 28.5377V22.0285ZM14.4709 29.5049C7.12669 35.8119 2.59634 44.1515 2.59634 52.469C2.59634 69.2938 21.1334 79.6573 44 79.6573C66.8666 79.6573 85.4037 69.2938 85.4037 52.469C85.4037 44.1073 80.825 35.7232 73.4117 29.4045V22.0285C73.4117 13.1936 67.5245 5.4696 59.0796 3.22493C52.989 1.60602 47.0319 6.25482 47.0319 12.6267V18.8288C46.3378 18.7832 45.6388 18.7531 44.9356 18.7389C44.6246 18.7326 44.3127 18.7294 44 18.7294C43.648 18.7294 43.2969 18.7334 42.947 18.7414C42.2437 18.7574 41.5448 18.7893 40.8507 18.8367V12.6267C40.8507 6.25482 34.8936 1.60602 28.803 3.22493C20.3581 5.4696 14.4709 13.1936 14.4709 22.0285V29.5049Z" fill="#7D4FFF"/>
<path d="M72.5 47.2784C72.5 53.0774 67.5751 57.7784 61.5 57.7784C55.4249 57.7784 50.5 53.0774 50.5 47.2784C50.5 41.4795 55.4249 36.7784 61.5 36.7784C67.5751 36.7784 72.5 41.4795 72.5 47.2784Z" fill="#FFE4EF"/>
<path d="M37.5 47.2784C37.5 53.0774 32.5751 57.7784 26.5 57.7784C20.4249 57.7784 15.5 53.0774 15.5 47.2784C15.5 41.4795 20.4249 36.7784 26.5 36.7784C32.5751 36.7784 37.5 41.4795 37.5 47.2784Z" fill="#FFE4EF"/>
<path fill-rule="evenodd" clip-rule="evenodd" d="M35.5675 46.5896C35.4448 46.0339 34.8879 45.6813 34.3237 45.8022C33.7594 45.923 33.4014 46.4714 33.5241 47.0272C33.8553 48.5273 35.6622 50.7784 39.7393 50.7784C42.2721 50.7784 43.9288 49.9097 44.8998 48.8919C45.7993 49.9033 47.3326 50.7784 49.6935 50.7784C53.5357 50.7784 55.186 48.4607 55.4796 47.0097C55.5925 46.4519 55.2249 45.9097 54.6586 45.7985C54.0923 45.6874 53.5417 46.0494 53.4288 46.6071C53.3257 47.1163 52.5163 48.719 49.6935 48.719C46.8932 48.719 46.0743 47.1417 45.9609 46.6195C45.9201 46.405 45.8109 46.2092 45.6517 46.0605C45.557 45.972 45.4447 45.9003 45.3186 45.8512C45.2005 45.8049 45.0729 45.7794 44.9415 45.7785C44.673 45.776 44.4188 45.8761 44.2272 46.0483C44.0981 46.1643 43.9974 46.3131 43.9399 46.4853C43.9271 46.5231 43.9166 46.5618 43.9084 46.6011C43.7949 47.0769 42.9069 48.719 39.7393 48.719C36.5455 48.719 35.6691 47.0497 35.5675 46.5896Z" fill="#7D4FFF"/>
<path d="M39.5 39.2784C39.5 41.2114 38.3807 42.7784 37 42.7784C35.6193 42.7784 34.5 41.2114 34.5 39.2784C34.5 37.3454 35.6193 35.7784 37 35.7784C38.3807 35.7784 39.5 37.3454 39.5 39.2784Z" fill="#7D4FFF"/>
<path d="M54.5 39.2784C54.5 41.2114 53.3807 42.7784 52 42.7784C50.6193 42.7784 49.5 41.2114 49.5 39.2784C49.5 37.3454 50.6193 35.7784 52 35.7784C53.3807 35.7784 54.5 37.3454 54.5 39.2784Z" fill="#7D4FFF"/>
<g clip-path="url(#clip1_1763_1196)">
<path d="M76.5 73.4721C76.5 69.33 72.4706 66.7786 67.5 66.7786C62.5294 66.7786 58.5 69.33 58.5 73.4721C58.5 77.6142 62.5294 81.7786 67.5 81.7786C72.4706 81.7786 76.5 77.6142 76.5 73.4721Z" fill="white"/>
<path fill-rule="evenodd" clip-rule="evenodd" d="M72.6116 70.1729C73.7617 70.9889 74.4038 72.0913 74.4038 73.4721C74.4038 76.5211 71.3031 79.7822 67.5 79.7822C63.6969 79.7822 60.5962 76.5211 60.5962 73.4721C60.5962 72.0913 61.2383 70.9889 62.3884 70.1729C63.5832 69.3251 65.3671 68.7749 67.5 68.7749C69.6329 68.7749 71.4168 69.3251 72.6116 70.1729ZM67.5 66.7786C72.4706 66.7786 76.5 69.33 76.5 73.4721C76.5 77.6142 72.4706 81.7786 67.5 81.7786C62.5294 81.7786 58.5 77.6142 58.5 73.4721C58.5 69.33 62.5294 66.7786 67.5 66.7786Z" fill="#7D4FFF"/>
<path d="M30.5 73.4721C30.5 69.33 26.2467 66.7786 21 66.7786C15.7533 66.7786 11.5 69.33 11.5 73.4721C11.5 77.6142 15.7533 81.7786 21 81.7786C26.2467 81.7786 30.5 77.6142 30.5 73.4721Z" fill="white"/>
<path fill-rule="evenodd" clip-rule="evenodd" d="M26.3956 70.1729C27.6095 70.9889 28.2874 72.0913 28.2874 73.4721C28.2874 76.5211 25.0144 79.7822 21 79.7822C16.9856 79.7822 13.7126 76.5211 13.7126 73.4721C13.7126 72.0913 14.3905 70.9889 15.6044 70.1729C16.8656 69.3251 18.7486 68.7749 21 68.7749C23.2514 68.7749 25.1344 69.3251 26.3956 70.1729ZM21 66.7786C26.2467 66.7786 30.5 69.33 30.5 73.4721C30.5 77.6142 26.2467 81.7786 21 81.7786C15.7533 81.7786 11.5 77.6142 11.5 73.4721C11.5 69.33 15.7533 66.7786 21 66.7786Z" fill="#7D4FFF"/>
</g>
</g>
<defs>
<clipPath id="clip0_1763_1196">
<rect width="88" height="82" fill="white"/>
</clipPath>
<clipPath id="clip1_1763_1196">
<rect width="66" height="16" fill="white" transform="translate(11 66)"/>
</clipPath>
</defs>
</svg>
